<svg width="256" height="256" viewBox="0 0 256 256" fill="none" xmlns="http://www.w3.org/2000/svg">
<path d="M64.5216 41.0885C55.6896 47.8085 48.0496 55.7365 41.6016 64.8725" stroke="#6B9483" stroke-width="2"/>
<path d="M41.6014 64.8725C33.7507 76.0511 28.1374 88.5445 24.7614 102.352" stroke="#618F7D" stroke-width="2"/>
<path d="M24.7614 102.352C20.8174 117.168 20.9855 135.216 22.9695 150.296" stroke="#4F867B" stroke-width="2"/>
<path d="M116.777 21.1363C97.4922 23.1203 80.0735 29.771 64.5215 41.0883" stroke="#6C9886" stroke-width="2"/>
<path d="M231.849 106.736C229.999 97.0031 226.919 87.7044 222.609 78.8404" stroke="#5A9483" stroke-width="2"/>
<path d="M222.61 78.8406C210.754 54.8006 189.058 36.7046 164.186 27.3766" stroke="#639884" stroke-width="2"/>
<path d="M164.185 27.3765C148.895 22.0005 133.092 19.9205 116.777 21.1365" stroke="#6D9D8A" stroke-width="2"/>
<path d="M164.185 27.3763C163.985 27.9523 163.809 28.3283 163.121 28.1443C159.969 27.307 156.823 26.4297 153.681 25.5123C152.353 25.1283 151.316 24.9443 150.569 24.9603C147.873 25.0403 144.345 27.0963 146.561 30.2243C146.7 30.427 146.756 30.6483 146.729 30.8883C146.409 33.6883 144.217 34.0963 142.361 35.3763C142.169 35.5097 141.959 35.5603 141.729 35.5283C140.748 35.4057 139.807 35.5283 138.905 35.8963C138.859 35.9118 138.821 35.9438 138.799 35.986C138.777 36.0282 138.771 36.0777 138.784 36.1246C138.797 36.1716 138.828 36.2128 138.869 36.2401C138.911 36.2674 138.961 36.2789 139.009 36.2723C143.009 35.803 145.505 36.859 146.497 39.4403" stroke="#9BC79F" stroke-width="2"/>
<path d="M146.497 39.4405L137.745 37.7685C137.377 37.6991 137.375 37.6191 137.737 37.5285C138.244 37.4058 138.503 37.0751 138.513 36.5365C138.524 36.2538 138.388 36.1071 138.105 36.0965C123.791 35.4725 110.012 37.7578 96.7693 42.9525C95.2066 43.5658 93.548 44.4111 91.7933 45.4885C87.7613 47.9685 83.6893 50.2645 79.8973 52.9605C73.3213 57.6405 67.5213 61.0085 62.9613 68.3765" stroke="#B7CCA1" stroke-width="2"/>
<path d="M62.9615 68.3765L60.7136 71.1925C60.5376 71.4165 60.3695 71.4138 60.2095 71.1845C57.3695 67.2245 54.1696 67.5365 50.1936 66.6645C48.1562 66.2165 46.0816 66.1391 43.9696 66.4325C43.8443 66.4493 43.7168 66.4314 43.6011 66.3806C43.4854 66.3298 43.3859 66.2481 43.3135 66.1445C42.9775 65.6538 42.5482 65.4831 42.0256 65.6325C41.8656 65.6751 41.7669 65.6165 41.7296 65.4565L41.6016 64.8725" stroke="#9BC79F" stroke-width="2"/>
<path d="M222.61 78.8404C222.284 78.9151 222.162 79.1738 222.242 79.6164C222.274 79.8084 222.212 79.8484 222.058 79.7364L221.866 79.5924C221.626 79.4164 221.38 79.4111 221.13 79.5764C219.908 80.4031 218.604 80.7898 217.218 80.7364C215.804 80.6778 214.828 80.7418 214.29 80.9284C212.722 81.4671 211.186 82.2938 209.682 83.4084" stroke="#88BE99" stroke-width="2"/>
<path d="M209.682 83.4084C206.284 76.6351 201.946 71.8538 196.666 69.0645" stroke="#77B395" stroke-width="2"/>
<path d="M196.665 69.0646C193.793 63.1766 186.697 57.4726 179.921 60.0246C179.649 60.1313 179.433 60.0619 179.273 59.8166C173.449 50.9766 160.681 44.9846 150.993 41.8086" stroke="#4B8983" stroke-width="2"/>
<path d="M150.994 41.8084C150.508 40.6884 149.01 39.8991 146.498 39.4404" stroke="#ADC89B" stroke-width="2"/>
<path d="M190.074 56.6646C187.423 56.7019 184.839 57.1446 182.322 57.9926C181.676 58.2112 181.692 58.3446 182.37 58.3926C185.65 58.6219 188.676 59.6486 191.45 61.4726C191.796 61.7019 191.916 61.6139 191.81 61.2086L190.674 57.1206C190.639 56.9882 190.562 56.8711 190.453 56.7884C190.344 56.7057 190.21 56.662 190.074 56.6646Z" stroke="#88BE99" stroke-width="2"/>
<path d="M150.994 41.8085C144.108 39.7711 137.135 38.7285 130.073 38.6805" stroke="#668F84" stroke-width="2"/>
<path d="M130.074 38.6805C104.106 39.6298 82.7083 49.9098 65.8816 69.5205" stroke="#689E8F" stroke-width="2"/>
<path d="M65.8813 69.5206L62.9613 68.3766" stroke="#ADC89B" stroke-width="2"/>
<path d="M130.073 38.6805C131.231 39.2618 132.423 39.5525 133.649 39.5525C133.744 39.5546 133.838 39.5807 133.92 39.6282C134.002 39.6757 134.072 39.7432 134.121 39.8245C134.649 40.7258 134.495 41.1898 133.657 41.2165C126.564 41.4778 121.284 44.3791 117.817 49.9205C117.401 50.5871 117.497 50.6725 118.105 50.1765C124.401 45.0965 131.321 41.9445 139.369 42.5845C144.783 43.0111 149.028 43.7338 152.105 44.7525C161.561 47.8805 164.625 56.9845 159.233 65.2725C159.189 65.3409 159.131 65.3996 159.064 65.445C158.996 65.4904 158.92 65.5215 158.84 65.5365C158.76 65.5514 158.677 65.5499 158.598 65.5321C158.518 65.5142 158.443 65.4803 158.377 65.4325C153.3 61.8431 147.697 59.8458 141.569 59.4405C140.409 59.3685 139.313 58.9205 138.377 58.8725C131.513 58.4938 124.652 58.4325 117.793 58.6885C104.849 59.1685 89.8733 63.1205 79.4093 70.8405C71.9133 76.3765 66.6173 81.2245 61.2653 89.2645C61.0253 89.6218 60.2626 90.3231 58.9773 91.3685" stroke="#066077" stroke-width="2"/>
<path d="M58.9774 91.3684L54.2574 94.7844" stroke="#3A8F8C" stroke-width="2"/>
<path d="M54.2574 94.7845C54.8334 91.1151 56.0761 87.7684 57.9854 84.7444C58.0557 84.6313 58.1007 84.5048 58.1173 84.3736C58.1339 84.2423 58.1216 84.1095 58.0814 83.9845L57.7214 82.8645" stroke="#054F6A" stroke-width="2"/>
<path d="M57.7214 82.8645C60.0414 78.2245 62.7614 73.7765 65.8814 69.5205" stroke="#4C998D" stroke-width="2"/>
<path d="M77.9936 61.7765C76.8896 62.7125 73.0896 66.1205 73.6416 67.6085C73.6944 67.7541 73.7792 67.8862 73.8895 67.9949C73.9999 68.1036 74.1332 68.1863 74.2797 68.2369C74.4261 68.2875 74.5821 68.3048 74.736 68.2874C74.89 68.27 75.0381 68.2184 75.1696 68.1365C85.8843 61.4858 96.8176 55.2138 107.97 49.3205C109.458 48.5365 110.842 47.3365 112.13 46.3045C112.318 46.1522 112.455 45.946 112.522 45.7136C112.589 45.4812 112.584 45.2337 112.506 45.0045C112.429 44.7753 112.283 44.5753 112.088 44.4316C111.894 44.2878 111.66 44.2072 111.418 44.2005C109.972 44.1578 108.479 44.4138 106.938 44.9685C96.2816 48.8298 86.6336 54.4325 77.9936 61.7765Z" stroke="#82AA97" stroke-width="2"/>
<path d="M196.665 69.0643C194.591 68.835 192.351 67.859 189.945 66.1363" stroke="#317A7F" stroke-width="2"/>
<path d="M189.945 66.1364C189.177 66.2911 188.492 66.1711 187.889 65.7764C184.905 63.8244 181.329 62.7604 178.033 61.4084C177.063 61.0137 176.052 60.6911 175.001 60.4404C174.66 60.3604 174.359 60.4351 174.097 60.6644L162.273 70.9924C162.215 71.0429 162.147 71.0809 162.074 71.1039C162 71.127 161.923 71.1346 161.846 71.1263C161.77 71.1181 161.696 71.0941 161.629 71.0559C161.562 71.0177 161.503 70.9662 161.457 70.9044C159.329 68.0724 156.521 66.2111 153.033 65.3204C152.959 65.2983 152.878 65.3036 152.807 65.3352C152.736 65.3669 152.678 65.4229 152.645 65.4932C152.611 65.5634 152.603 65.6434 152.623 65.7188C152.643 65.7942 152.689 65.86 152.753 65.9044L159.657 70.8324C159.805 70.9382 159.924 71.0785 160.005 71.2411C160.086 71.4037 160.126 71.5836 160.121 71.7651C160.116 71.9466 160.067 72.1242 159.978 72.2824C159.889 72.4405 159.762 72.5744 159.609 72.6724C148.255 79.9204 135.82 84.9817 122.305 87.8564C103.657 91.8244 83.9934 96.1204 69.3374 109.336C64.4334 113.76 64.7854 119.84 65.6494 126.048C66.0414 128.888 65.4014 131.048 64.3294 133.48C64.236 133.694 64.0925 133.881 63.9111 134.027C63.7297 134.173 63.5156 134.274 63.2868 134.32C63.058 134.366 62.8211 134.357 62.5961 134.293C62.371 134.229 62.1644 134.112 61.9934 133.952L57.3054 129.536" stroke="#043F5F" stroke-width="2"/>
<path d="M57.3054 129.536C55.9614 127.526 55.0841 124.8 54.6734 121.36C53.9481 115.328 54.2015 109.643 55.4335 104.304" stroke="#398081" stroke-width="2"/>
<path d="M55.4334 104.304C56.2387 104.08 56.9747 104.024 57.6414 104.136C57.7287 104.152 57.8187 104.14 57.8984 104.101C57.9781 104.062 58.0433 103.998 58.0844 103.92C58.1255 103.841 58.1404 103.751 58.1269 103.664C58.1134 103.576 58.0722 103.495 58.0094 103.432C57.3374 102.76 56.404 102.283 55.2094 102" stroke="#1F6674" stroke-width="2"/>
<path d="M55.2094 102C55.876 98.5497 57.132 95.0057 58.9774 91.3684" stroke="#398081" stroke-width="2"/>
<path d="M90.1615 87.2243C90.1348 87.3203 90.1215 87.419 90.1215 87.5203C90.1194 87.5627 90.1285 87.6048 90.148 87.6425C90.1675 87.6801 90.1966 87.712 90.2324 87.7347C90.2681 87.7575 90.3093 87.7704 90.3516 87.772C90.394 87.7737 90.436 87.7642 90.4735 87.7443C100.266 82.8003 113.01 78.1043 120.33 75.0163C128.81 71.4403 138.073 68.6563 146.001 64.0243C146.056 63.9941 146.1 63.9486 146.129 63.8935C146.158 63.8384 146.171 63.776 146.165 63.714C146.159 63.652 146.135 63.5931 146.096 63.5445C146.057 63.4959 146.005 63.4597 145.946 63.4403C131.362 58.2403 119.178 61.4243 105.17 67.5683C92.4735 73.1443 82.8255 81.2403 74.5775 92.2323C73.8735 93.1683 67.8015 101.184 68.2655 101.48C68.3407 101.531 68.4299 101.555 68.5186 101.549C68.6073 101.544 68.6901 101.508 68.7535 101.448C75.0628 95.731 81.9268 90.779 89.3455 86.5923C89.4415 86.5383 89.5513 86.5137 89.6612 86.5217C89.7711 86.5298 89.8761 86.57 89.9633 86.6375C90.0504 86.705 90.1156 86.7966 90.1509 86.901C90.1862 87.0054 90.1898 87.1179 90.1615 87.2243Z" stroke="#066077" stroke-width="2"/>
<path d="M67.1695 89.0966C68.4975 88.9446 73.4255 84.1526 74.9055 83.1046C81.3481 78.5392 87.8068 73.9899 94.2815 69.4566C94.9455 68.9926 95.8335 68.9046 96.2175 67.8246C96.2615 67.7021 96.271 67.5699 96.2452 67.4423C96.2193 67.3148 96.159 67.1968 96.0707 67.1011C95.9825 67.0055 95.8697 66.9358 95.7447 66.8998C95.6196 66.8637 95.4871 66.8626 95.3615 66.8966C89.3135 68.5366 83.3695 70.5926 78.4255 74.5606C73.7695 78.2939 69.6921 82.5872 66.1935 87.4406C66.0735 87.6058 66.0044 87.8024 65.9946 88.0064C65.9849 88.2103 66.0349 88.4127 66.1386 88.5886C66.2422 88.7644 66.395 88.9062 66.5781 88.9965C66.7613 89.0867 66.9668 89.1215 67.1695 89.0966Z" stroke="#066077" stroke-width="2"/>
<path d="M189.945 66.1363C190.543 66.9097 191.199 67.5523 191.913 68.0643C207.425 79.1203 206.553 118.72 197.353 133.216" stroke="#306972" stroke-width="2"/>
<path d="M197.354 133.217L192.554 135.401C192.319 135.507 192.154 135.68 192.058 135.92C190.068 140.918 191.055 145.065 195.018 148.361" stroke="#7A5D58" stroke-width="2"/>
<path d="M195.018 148.36C192.863 149.502 190.436 149.083 187.738 147.104" stroke="#695053" stroke-width="2"/>
<path d="M187.738 147.104L186.505 143.704" stroke="#7A5D58" stroke-width="2"/>
<path d="M186.505 143.704C185.345 135.824 186.377 127.808 186.289 120.16C186.273 118.752 185.252 116.307 183.225 112.824" stroke="#7F695E" stroke-width="2"/>
<path d="M183.225 112.825C177.679 103.47 174.385 93.4219 173.345 82.6806C173.341 82.6339 173.323 82.5895 173.293 82.5534C173.264 82.5172 173.224 82.4908 173.179 82.4778C173.134 82.4648 173.086 82.4658 173.041 82.4806C172.997 82.4953 172.958 82.5232 172.929 82.5606C153.225 107.897 117.593 116.513 87.0974 113.473C87.0481 113.467 87.0012 113.449 86.9614 113.419C86.9216 113.39 86.8903 113.35 86.8708 113.305C86.8513 113.259 86.8442 113.209 86.8502 113.16C86.8563 113.111 86.8754 113.064 86.9054 113.025C90.4254 108.422 95.0601 105.534 100.809 104.361C100.879 104.35 100.911 104.31 100.905 104.241C100.905 104.171 100.9 104.102 100.889 104.033C100.879 103.974 100.847 103.945 100.793 103.945C93.2494 104.049 77.4494 106.433 72.5694 111.961C68.0894 117.033 69.5614 124.881 69.4974 131.009C69.4174 138.249 67.4094 147.849 58.3054 148.521" stroke="#775956" stroke-width="2"/>
<path d="M58.3054 148.52C64.2414 145.504 66.3374 136.04 58.9294 133.2" stroke="#7A5D58" stroke-width="2"/>
<path d="M58.9294 133.2C58.2628 132.491 57.7214 131.27 57.3054 129.536" stroke="#386F74" stroke-width="2"/>
<path d="M57.7215 82.8645L51.1215 97.9444" stroke="#4A7876" stroke-width="2"/>
<path d="M51.1216 97.9445C50.4869 98.3392 50.0496 98.9499 49.8096 99.7765C49.7296 100.049 49.5509 100.174 49.2736 100.153C47.6469 100.03 46.5216 100.203 45.8976 100.673C42.8629 102.955 39.4576 104.313 35.6816 104.745C35.4363 104.777 35.2416 104.891 35.0976 105.089L33.4016 107.409" stroke="#7FB998" stroke-width="2"/>
<path d="M33.4016 107.408C32.959 107.339 32.719 107.241 32.6816 107.113" stroke="#9BC79F" stroke-width="2"/>
<path d="M32.6814 107.112C33.1214 106.672 32.9294 106.2 32.4494 105.904C30.0547 104.438 27.492 103.254 24.7614 102.352" stroke="#7FB998" stroke-width="2"/>
<path d="M50.2812 75.6406L50.3532 74.5446C50.3565 74.4994 50.3508 74.454 50.3365 74.411C50.3221 74.368 50.2995 74.3283 50.2697 74.2941C50.24 74.2599 50.2038 74.2319 50.1632 74.2118C50.1226 74.1916 50.0785 74.1797 50.0332 74.1766L49.5052 74.1446C48.9989 74.1114 48.5083 74.1567 48.1399 74.2705C47.7714 74.3843 47.5549 74.5575 47.5372 74.7526L47.5132 75.0566C47.5061 75.1541 47.5488 75.2541 47.6391 75.3507C47.7293 75.4474 47.8652 75.5388 48.0391 75.6198C48.2129 75.7008 48.4214 75.7697 48.6523 75.8227C48.8833 75.8757 49.1324 75.9117 49.3852 75.9286L49.9132 75.9686C49.9591 75.9719 50.0051 75.9659 50.0486 75.9511C50.0921 75.9362 50.1321 75.9128 50.1664 75.8823C50.2007 75.8517 50.2286 75.8146 50.2483 75.7731C50.268 75.7316 50.2792 75.6865 50.2812 75.6406Z" stroke="#9BC79F" stroke-width="2"/>
<path d="M209.682 83.4086C212.444 88.7953 214.748 94.8326 216.594 101.521C216.674 101.814 216.866 101.934 217.17 101.881C217.906 101.742 218.439 101.883 218.77 102.305" stroke="#6EAF95" stroke-width="2"/>
<path d="M218.769 102.304L218.257 104.976C218.204 105.259 218.041 105.443 217.769 105.528L214.521 106.536C214.416 106.57 214.325 106.637 214.263 106.728C214.2 106.819 214.169 106.928 214.176 107.038C214.182 107.148 214.225 107.253 214.298 107.336C214.371 107.419 214.469 107.476 214.577 107.496L217.905 108.12C218.022 108.143 218.131 108.192 218.224 108.265C218.317 108.337 218.392 108.43 218.441 108.536C219.225 110.19 219.684 112.115 219.817 114.312" stroke="#93B997" stroke-width="2"/>
<path d="M219.818 114.312L219.978 117.753C219.988 118.003 220.114 118.166 220.354 118.241C221.306 118.537 221.61 124.113 221.794 125.305C221.836 125.577 221.802 125.838 221.69 126.089C221.071 127.486 221.042 128.883 221.602 130.281C221.703 130.537 221.698 130.79 221.586 131.041C221.143 132.027 220.948 132.955 221.002 133.824" stroke="#6EAF95" stroke-width="2"/>
<path d="M221.002 133.824C220.516 134.992 219.762 135.774 218.738 136.168C218.487 136.264 218.487 136.368 218.738 136.48L219.938 137.008" stroke="#93B997" stroke-width="2"/>
<path d="M219.938 137.008C220.066 142.608 219.372 148.358 217.858 154.256C215.954 161.656 214.866 168.632 210.21 175.432C209.447 176.547 208.983 177.464 208.818 178.184C208.556 179.331 208.62 180.393 209.01 181.369" stroke="#65AA94" stroke-width="2"/>
<path d="M209.009 181.368L208.897 185.632C208.887 185.963 208.716 186.134 208.385 186.144C204.268 186.283 203.393 186.654 205.761 187.256" stroke="#93B997" stroke-width="2"/>
<path d="M205.761 187.256C200.791 193.747 196.121 200.411 191.753 207.248C189.161 211.296 184.489 213.656 180.145 215.296C174.7 217.344 169.209 219.264 163.673 221.056C162.943 221.291 162.153 221.979 161.305 223.12" stroke="#65AA94" stroke-width="2"/>
<path d="M161.305 223.121C158.025 212.481 154.385 204.68 144.249 198.776C144.009 198.638 143.916 198.432 143.969 198.16C144.167 197.115 143.945 196.68 143.305 196.856" stroke="#539B8F" stroke-width="2"/>
<path d="M143.305 196.856C162.329 192.176 179.953 182.153 186.641 162.441C186.737 162.147 186.932 162.051 187.225 162.153C195.305 165.017 203.697 162.36 208.265 155.256C212.121 149.248 211.305 142.497 206.017 137.793C203.753 135.785 200.217 134.873 197.353 133.217" stroke="#A79878" stroke-width="2"/>
<path d="M184.473 194.097L182.065 194.545C182.008 194.556 181.955 194.585 181.916 194.629C181.876 194.673 181.852 194.728 181.846 194.787C181.841 194.845 181.855 194.904 181.886 194.954C181.916 195.004 181.963 195.043 182.017 195.065C182.673 195.321 183.353 195.39 184.057 195.273C184.201 195.25 184.348 195.274 184.476 195.342C184.604 195.41 184.707 195.517 184.769 195.649C185.159 196.475 185.337 197.369 185.305 198.329C185.304 198.385 185.32 198.441 185.353 198.488C185.385 198.534 185.432 198.569 185.486 198.587C185.54 198.605 185.598 198.605 185.652 198.588C185.706 198.57 185.753 198.535 185.785 198.489C186.223 197.875 186.279 197.235 185.953 196.569C185.692 196.035 185.855 195.809 186.441 195.889C186.98 195.969 187.465 195.857 187.897 195.553C187.952 195.515 187.996 195.463 188.024 195.403C188.052 195.342 188.064 195.275 188.058 195.209C188.053 195.142 188.03 195.077 187.992 195.021C187.954 194.965 187.902 194.919 187.841 194.889L186.961 194.457C186.732 194.35 186.583 194.174 186.513 193.929L185.649 190.793C185.631 190.704 185.58 190.626 185.506 190.574C185.433 190.521 185.343 190.498 185.253 190.509C185.164 190.521 185.081 190.565 185.023 190.634C184.965 190.702 184.934 190.79 184.937 190.881L184.881 193.617C184.876 193.889 184.74 194.049 184.473 194.097Z" stroke="#93B997" stroke-width="2"/>
<path d="M231.849 106.736C235.081 126.416 234.529 145.848 228.545 164.904" stroke="#598F80" stroke-width="2"/>
<path d="M228.546 164.904C225.842 172.574 222.239 179.766 217.738 186.48" stroke="#568679" stroke-width="2"/>
<path d="M217.737 186.481C213.297 188.889 220.153 174.441 220.361 174.049C225.681 164.281 225.505 150.649 224.801 139.657C224.721 138.446 224.228 137.337 223.321 136.329" stroke="#76B597" stroke-width="2"/>
<path d="M223.322 136.328L221.002 133.824" stroke="#A3C49A" stroke-width="2"/>
<path d="M219.818 114.312C220.484 112.883 220.826 111.392 220.842 109.84C220.842 109.693 220.87 109.548 220.927 109.412C220.983 109.276 221.066 109.152 221.17 109.048C222.343 107.832 223.778 107.102 225.474 106.856C227.015 106.632 227.034 106.27 225.53 105.768C224.042 105.28 221.322 106.664 220.962 103.872C220.754 102.272 220.479 100.686 220.138 99.1124C220.119 99.0368 220.076 98.969 220.014 98.9205C219.952 98.872 219.877 98.8455 219.799 98.8455C219.722 98.8455 219.647 98.872 219.588 98.9205C219.529 98.969 219.488 99.0368 219.474 99.1124L218.77 102.304" stroke="#A3C49A" stroke-width="2"/>
<path d="M183.226 112.824L181.842 113.008C181.602 113.04 181.41 112.96 181.266 112.768C177.202 107.168 174.22 101.027 172.322 94.3445C172.231 94.0245 172.066 93.9765 171.826 94.2005C150.242 114.256 124.21 119.728 95.4495 118.096C91.5215 117.872 88.4735 116.584 85.0975 114.864C84.1055 114.363 83.1162 114.136 82.1295 114.184C78.0415 114.376 73.9695 113.792 73.5455 119.296C73.0255 125.872 71.3455 132.496 71.0575 138.704C70.6895 146.392 70.2255 152.408 71.7615 158.104" stroke="#F29362" stroke-width="2"/>
<path d="M71.7613 158.105C65.356 160.393 60.7587 158.713 57.9693 153.065C57.164 151.422 57.276 149.907 58.3053 148.521" stroke="#EE875C" stroke-width="2"/>
<path d="M54.2575 94.7844L51.1215 97.9444" stroke="#386F74" stroke-width="2"/>
<path d="M55.2094 102L55.4334 104.304" stroke="#539689" stroke-width="2"/>
<path d="M58.9295 133.2C58.3588 133.584 57.7455 133.758 57.0895 133.72" stroke="#AF9D7A" stroke-width="2"/>
<path d="M57.0896 133.721C45.0176 135.577 44.2736 149.897 51.6976 157.161" stroke="#9BBE99" stroke-width="2"/>
<path d="M51.6976 157.16L55.4816 160.064" stroke="#AF9D7A" stroke-width="2"/>
<path d="M55.4814 160.064C57.0228 161.712 56.3774 162.102 53.5454 161.232C53.3321 161.168 53.1401 161.206 52.9694 161.344C52.1214 162.022 51.2601 162.688 50.3854 163.344C48.9534 164.424 46.8974 164.624 45.5694 166.208C44.3694 167.656 44.9694 169.456 42.8974 170.88C42.6734 171.03 42.5161 171.235 42.4254 171.496C41.6414 173.696 40.8014 176.064 38.0894 175.512C37.9391 175.481 37.7823 175.508 37.6513 175.588C37.5203 175.668 37.4251 175.796 37.3854 175.944C37.2041 176.632 36.7268 176.95 35.9534 176.896C35.6441 176.88 35.4441 177.019 35.3534 177.312L35.2014 177.776C35.1054 178.075 34.9374 178.126 34.6974 177.928L34.2014 177.52C34.1562 177.481 34.1002 177.457 34.0409 177.451C33.9816 177.445 33.9217 177.458 33.869 177.487C33.8163 177.517 33.7733 177.562 33.7455 177.616C33.7178 177.67 33.7066 177.732 33.7134 177.792L33.8414 178.84C33.8788 179.128 33.7668 179.208 33.5054 179.08L32.4814 178.592C32.4667 178.584 32.4544 178.572 32.4464 178.557C32.4383 178.542 32.4349 178.525 32.4367 178.509C32.4385 178.493 32.4454 178.478 32.4563 178.467C32.4672 178.456 32.4816 178.45 32.4974 178.448L32.7774 178.4C32.9694 178.368 32.9961 178.286 32.8574 178.152L32.5934 177.88C32.4974 177.784 32.3881 177.771 32.2654 177.84C32.1694 177.899 32.0228 177.955 31.8254 178.008" stroke="#60A894" stroke-width="2"/>
<path d="M31.8255 178.008C27.3082 169.272 24.3561 160.035 22.9695 150.296" stroke="#4B7C75" stroke-width="2"/>
<path d="M32.6816 107.112C31.9296 107.032 31.4789 107.344 31.3296 108.048C31.3074 108.151 31.3078 108.257 31.3308 108.359C31.3538 108.462 31.3989 108.558 31.4629 108.641C31.5269 108.724 31.6083 108.792 31.7013 108.84C31.7944 108.888 31.8969 108.916 32.0016 108.92C32.6416 108.947 33.1589 108.699 33.5536 108.176C33.6709 108.016 33.6763 107.851 33.5696 107.68L33.4016 107.408" stroke="#89BD9E" stroke-width="2"/>
<path d="M29.6814 147.752C29.4627 148.355 29.6761 148.771 30.3214 149C30.426 149.037 30.5373 149.05 30.6474 149.038C30.7576 149.027 30.8639 148.991 30.9586 148.934C31.0534 148.877 31.1344 148.799 31.1957 148.707C31.257 148.615 31.2972 148.51 31.3134 148.4C31.4787 147.312 31.0307 146.992 29.9694 147.44C29.8364 147.502 29.7329 147.614 29.6814 147.752Z" stroke="#89BD9E" stroke-width="2"/>
<path d="M186.506 143.704L186.53 144.088C186.551 144.371 186.418 144.512 186.13 144.512H185.738C185.492 144.512 185.364 144.39 185.354 144.144C185.348 143.952 185.335 143.75 185.314 143.536C185.26 143.024 185.21 143.024 185.162 143.536C182.578 170.44 168.274 183.256 144.298 192.208C141.434 193.275 138.567 194.446 135.698 195.72" stroke="#F69764" stroke-width="2"/>
<path d="M135.698 195.721L121.13 196.793" stroke="#E58B5F" stroke-width="2"/>
<path d="M121.129 196.792L116.977 197.24" stroke="#A19B7B" stroke-width="2"/>
<path d="M116.978 197.24C95.2176 193.8 78.5296 182.728 72.2656 160.624" stroke="#A6A27E" stroke-width="2"/>
<path d="M72.2654 160.624L71.7614 158.104" stroke="#F69764" stroke-width="2"/>
<path d="M152.274 124.464C151.138 126.224 151.231 127.696 152.554 128.88C154.594 130.696 156.994 129.76 159.53 129.312C164.09 128.512 169.818 133.104 172.962 136.272C173.858 137.179 174.644 137.144 175.322 136.168C175.451 135.983 175.531 135.767 175.553 135.541C175.576 135.316 175.54 135.088 175.45 134.88C172.607 128.171 167.722 123.926 160.794 122.144C157.642 121.336 154.066 121.68 152.274 124.464Z" stroke="#8E543A" stroke-width="2"/>
<path d="M96.9216 122.88C90.4816 122.808 82.0976 127.072 80.6896 133.896C80.4816 134.91 80.8149 135.627 81.6896 136.048C81.9296 136.166 82.1643 136.152 82.3936 136.008C87.5616 132.688 91.1456 128.368 97.9616 131.528C107.018 135.736 107.514 123 96.9216 122.88Z" stroke="#8E543A" stroke-width="2"/>
<path d="M82.7614 151.472C83.2467 153.76 84.2467 154.896 85.7614 154.88" stroke="#E7A269" stroke-width="2"/>
<path d="M85.7614 154.88C89.9934 156.744 96.6174 158.672 101.233 157.064C101.328 157.03 101.408 156.966 101.463 156.88C101.518 156.795 101.544 156.694 101.537 156.592C101.516 156.24 101.356 156.072 101.057 156.088" stroke="#F9CCAF" stroke-width="2"/>
<path d="M101.058 156.089C106.874 152.065 106.09 144.729 100.602 141.081C94.2256 136.841 86.3856 139.545 82.2176 145.441C80.6283 147.686 80.8096 149.697 82.7616 151.473" stroke="#94563A" stroke-width="2"/>
<path d="M101.057 156.088C96.6814 158.064 91.7134 156.088 90.4574 151.52C89.6734 148.68 91.5534 143.832 95.0494 143.648C95.2038 143.641 95.3564 143.684 95.4832 143.773C95.61 143.861 95.7037 143.989 95.7495 144.137C95.7954 144.285 95.7908 144.443 95.7364 144.588C95.6821 144.733 95.5811 144.855 95.4494 144.936C94.6387 145.438 94.284 146.144 94.3854 147.056C94.4138 147.308 94.5025 147.548 94.6439 147.758C94.7854 147.967 94.9754 148.139 95.1978 148.26C95.4201 148.38 95.6683 148.445 95.921 148.448C96.1738 148.452 96.4237 148.394 96.6494 148.28C99.2574 146.976 99.2174 144.448 96.5934 143.296C90.6094 140.656 84.0974 145.24 83.0254 151.264" stroke="#937F7E" stroke-width="2"/>
<path d="M83.0254 151.264C82.9454 151.435 82.8574 151.504 82.7614 151.472" stroke="#805539" stroke-width="2"/>
<path d="M85.7614 154.88C84.2254 154.08 83.3134 152.875 83.0254 151.264" stroke="#E6CBAE" stroke-width="2"/>
<path d="M152.458 150.84C151.898 153.747 153.447 155.854 157.106 157.16C160.658 158.424 174.146 158.744 173.506 152.208" stroke="#F9CCAF" stroke-width="2"/>
<path d="M173.505 152.208C175.169 150.112 175.689 148.032 174.041 145.656C167.785 136.624 151.601 137.497 152.457 150.841" stroke="#8E543A" stroke-width="2"/>
<path d="M173.505 152.208C172.345 139.816 155.657 140.544 158.681 147.208C158.778 147.421 158.92 147.61 159.098 147.762C159.275 147.913 159.484 148.024 159.71 148.086C159.935 148.147 160.171 148.159 160.401 148.119C160.631 148.08 160.85 147.99 161.041 147.856L162.297 146.976" stroke="#8D7D7E" stroke-width="2"/>
<path d="M162.298 146.976L163.53 145.504" stroke="#370F0E" stroke-width="2"/>
<path d="M163.53 145.504L165.114 147.152" stroke="#4B1F1A" stroke-width="2"/>
<path d="M165.113 147.152C164.079 151.243 161.569 152.768 157.585 151.728C157.379 151.673 157.161 151.69 156.965 151.777C156.77 151.863 156.61 152.013 156.512 152.203C156.414 152.392 156.384 152.609 156.426 152.819C156.469 153.028 156.581 153.216 156.745 153.352L157.913 154.336C158.175 154.555 158.22 154.811 158.049 155.104L157.353 156.344" stroke="#370F0E" stroke-width="2"/>
<path d="M157.353 156.344C155.156 155.678 153.524 153.843 152.457 150.84" stroke="#8D7D7E" stroke-width="2"/>
<path d="M157.354 156.344C164.33 158.92 168.882 151.032 165.946 145.72C164.826 143.712 162.362 142.632 160.506 144.408" stroke="#A28783" stroke-width="2"/>
<path d="M160.506 144.408C159.554 144.952 159.066 146.817 160.458 146.905C160.514 146.91 160.571 146.899 160.621 146.873C160.672 146.848 160.714 146.809 160.745 146.761C160.775 146.712 160.792 146.656 160.794 146.598C160.795 146.541 160.781 146.483 160.754 146.432C160.204 145.446 160.25 144.851 160.89 144.648" stroke="#97B2B1" stroke-width="2"/>
<path d="M160.889 144.648C161.577 145.032 162.047 145.808 162.297 146.976" stroke="#A28783" stroke-width="2"/>
<path d="M165.114 147.152C165.626 146.064 165.098 145.515 163.53 145.504" stroke="#60281F" stroke-width="2"/>
<path d="M160.89 144.648C160.916 144.595 160.788 144.515 160.505 144.408" stroke="#414341" stroke-width="2"/>
<path d="M173.025 159.008L171.785 160.024C171.726 160.073 171.677 160.133 171.64 160.201C171.604 160.269 171.582 160.343 171.574 160.42C171.567 160.496 171.575 160.574 171.597 160.647C171.62 160.721 171.656 160.789 171.705 160.848L172.001 161.2C172.392 161.676 172.869 162.047 173.328 162.233C173.787 162.419 174.19 162.404 174.449 162.192L174.633 162.04C174.763 161.935 174.852 161.785 174.897 161.597C174.942 161.409 174.941 161.188 174.895 160.947C174.849 160.705 174.759 160.448 174.629 160.189C174.498 159.931 174.332 159.676 174.137 159.44L173.849 159.088C173.801 159.029 173.741 158.98 173.673 158.943C173.605 158.907 173.531 158.885 173.454 158.877C173.378 158.87 173.3 158.878 173.227 158.9C173.153 158.923 173.085 158.959 173.025 159.008Z" stroke="#FBB27F" stroke-width="2"/>
<path d="M113.49 178.825C117.463 181.315 121.73 183.182 126.29 184.425" stroke="#94563A" stroke-width="2"/>
<path d="M126.289 184.424C131.687 185.55 136.828 184.731 141.713 181.968" stroke="#C76341" stroke-width="2"/>
<path d="M141.714 181.969C145.1 180.39 148.14 178.369 150.834 175.905C151.154 175.611 151.103 175.507 150.682 175.593C138.426 178.062 126.322 178.856 114.37 177.976" stroke="#94563A" stroke-width="2"/>
<path d="M114.37 177.976C108.055 176.926 102.247 175.283 96.9457 173.048C96.5564 172.883 96.3244 173.006 96.2497 173.416L96.0977 174.168C96.0444 174.462 96.1617 174.643 96.4497 174.712L113.49 178.824" stroke="#E58B5F" stroke-width="2"/>
<path d="M114.37 177.976C113.666 178.142 113.372 178.424 113.49 178.824" stroke="#7E3E2E" stroke-width="2"/>
<path d="M141.713 181.968C140.865 181.446 139.964 181.158 139.009 181.104C138.743 181.088 138.508 180.992 138.305 180.816C137.217 179.84 135.993 179.43 134.633 179.584C130.745 180.032 127.689 179.824 126.289 184.424" stroke="#601611" stroke-width="2"/>
<path d="M143.305 196.857C141.396 197.166 139.465 197.08 137.513 196.6" stroke="#9D8F75" stroke-width="2"/>
<path d="M137.514 196.601L135.698 195.721" stroke="#E07F59" stroke-width="2"/>
<path d="M187.737 147.105L187.145 159.449C187.141 159.57 187.171 159.69 187.234 159.795C187.296 159.9 187.388 159.985 187.497 160.041C191.681 162.121 197.673 157.569 199.801 154.409C203.049 149.577 197.561 144.969 194.081 142.681C193.868 142.542 193.721 142.347 193.641 142.097L192.537 138.521C192.5 138.398 192.468 138.401 192.441 138.529C191.601 142.817 192.161 144.433 195.505 147.145C195.597 147.219 195.658 147.326 195.676 147.444C195.693 147.562 195.667 147.683 195.601 147.785C195.42 148.046 195.225 148.238 195.017 148.361" stroke="#E07F59" stroke-width="2"/>
<path d="M72.2657 160.624C68.175 162.848 63.9617 163.331 59.6257 162.072C58.2577 161.672 56.9697 160.56 55.4817 160.064" stroke="#A29678" stroke-width="2"/>
<path d="M51.6974 157.161C48.9401 153.374 47.804 149.342 48.2894 145.065C48.5534 142.737 50.4974 138.217 52.1614 136.721C53.4574 135.569 55.1 134.569 57.0894 133.721" stroke="#DDAC7D" stroke-width="2"/>
<path d="M223.321 136.329C221.577 137.843 220.449 138.07 219.938 137.009" stroke="#9BBE99" stroke-width="2"/>
<path d="M134.209 235.168L145.513 233.576" stroke="#407975" stroke-width="2"/>
<path d="M145.513 233.576L149.241 232.88C149.529 232.827 149.679 232.651 149.689 232.352C149.791 227.488 149.495 222.646 148.801 217.824C148.794 217.752 148.814 217.679 148.856 217.62C148.898 217.56 148.96 217.518 149.031 217.5C149.102 217.483 149.177 217.491 149.242 217.525C149.307 217.558 149.358 217.613 149.385 217.68C151.001 222.214 152.079 226.87 152.617 231.648C152.625 231.709 152.645 231.768 152.676 231.82C152.708 231.872 152.75 231.917 152.799 231.951C152.848 231.986 152.904 232.008 152.963 232.018C153.021 232.028 153.081 232.025 153.137 232.008L162.913 229.328" stroke="#3B7273" stroke-width="2"/>
<path d="M162.913 229.328C186.3 221.515 204.575 207.232 217.737 186.48" stroke="#4D8178" stroke-width="2"/>
<path d="M162.913 229.328L161.305 223.121" stroke="#5BA191" stroke-width="2"/>
<path d="M205.761 187.256C206.801 187.384 207.663 187.736 208.345 188.312C208.548 188.483 208.663 188.699 208.689 188.96L209.233 193.56C209.292 194.03 209.428 194.054 209.641 193.632C210.633 191.656 210.465 189.92 211.209 188.336C211.337 188.07 211.548 187.931 211.841 187.92C212.812 187.883 213.596 187.52 214.193 186.832C214.244 186.774 214.278 186.704 214.293 186.628C214.308 186.552 214.302 186.474 214.277 186.401C214.252 186.328 214.208 186.263 214.15 186.212C214.092 186.162 214.021 186.127 213.945 186.112L211.841 185.704C211.686 185.672 211.539 185.606 211.41 185.51C211.282 185.415 211.175 185.293 211.097 185.152L209.009 181.368" stroke="#9BBE99" stroke-width="2"/>
<path d="M92.6199 147.06C92.6711 147.097 92.7344 147.116 92.8061 147.116C92.8778 147.116 92.9565 147.097 93.0378 147.06C93.1191 147.024 93.2013 146.97 93.2798 146.902C93.3583 146.834 93.4315 146.753 93.4953 146.665C93.559 146.576 93.6121 146.481 93.6514 146.385C93.6907 146.289 93.7155 146.194 93.7244 146.105C93.7333 146.016 93.7261 145.935 93.7032 145.867C93.6803 145.799 93.6422 145.746 93.591 145.709C93.5398 145.672 93.4765 145.653 93.4048 145.653C93.3331 145.653 93.2544 145.672 93.1731 145.709C93.0918 145.745 93.0096 145.799 92.9311 145.867C92.8526 145.935 92.7794 146.016 92.7156 146.104C92.6518 146.193 92.5988 146.288 92.5595 146.384C92.5202 146.48 92.4954 146.575 92.4865 146.664C92.4776 146.753 92.4848 146.834 92.5077 146.902C92.5306 146.969 92.5687 147.023 92.6199 147.06Z" stroke="#684633" stroke-width="2"/>
<path d="M31.8254 178.008C46.5374 206.2 72.7454 226.44 104.137 232.488" stroke="#3D7472" stroke-width="2"/>
<path d="M104.137 232.488L107.065 233.112" stroke="#316267" stroke-width="2"/>
<path d="M107.066 233.112C115.802 234.968 124.85 235.654 134.21 235.168" stroke="#3D7472" stroke-width="2"/>
<path d="M116.978 197.24C117.154 199.043 116.69 199.824 115.586 199.584" stroke="#4D998F" stroke-width="2"/>
<path d="M115.585 199.584C108.359 202.774 102.985 208.198 99.4654 215.856C97.4067 220.331 95.9934 224.675 95.2254 228.888C95.2212 228.923 95.2284 228.958 95.2459 228.987C95.2634 229.016 95.2901 229.038 95.3214 229.048C95.3907 229.07 95.4601 229.091 95.5294 229.112C95.7374 229.176 95.8601 229.102 95.8974 228.888C97.7054 218.792 102.825 208.472 111.329 202.416" stroke="#80B798" stroke-width="2"/>
<path d="M111.33 202.416C112.044 202.79 112.727 202.699 113.378 202.145C113.602 201.953 113.834 201.939 114.074 202.104C114.431 202.355 114.759 202.504 115.058 202.552" stroke="#4D998F" stroke-width="2"/>
<path d="M115.057 202.552L115.233 206.728C115.238 206.865 115.285 206.996 115.368 207.106C115.451 207.216 115.566 207.299 115.697 207.344C116.801 207.718 117.663 207.416 118.281 206.44C118.37 206.298 118.505 206.182 118.664 206.111C118.823 206.039 118.996 206.017 119.155 206.048C119.315 206.079 119.45 206.16 119.54 206.28C119.63 206.399 119.668 206.549 119.649 206.704C119.447 208.496 120.135 209.64 121.713 210.136C121.996 210.227 122.204 210.139 122.337 209.872L123.721 207.12C123.751 207.06 123.795 207.009 123.85 206.97C123.904 206.931 123.967 206.906 124.034 206.897C124.1 206.889 124.168 206.896 124.231 206.92C124.293 206.943 124.349 206.982 124.393 207.032L127.225 210.304C127.412 210.518 127.659 210.67 127.933 210.741C128.207 210.813 128.497 210.801 128.764 210.706C129.031 210.611 129.264 210.438 129.431 210.21C129.599 209.981 129.695 209.708 129.705 209.424C129.737 208.502 130.033 207.542 130.593 206.544" stroke="#A2C4A5" stroke-width="2"/>
<path d="M130.593 206.544L130.681 206.344C130.788 206.104 130.887 206.107 130.977 206.352C131.532 207.878 132.449 209.142 133.729 210.144C133.852 210.241 134.003 210.296 134.16 210.3C134.317 210.305 134.472 210.258 134.601 210.168C136.025 209.187 136.775 207.814 136.849 206.048C136.855 205.904 136.912 205.766 137.01 205.66C137.108 205.554 137.24 205.486 137.384 205.468C137.528 205.451 137.673 205.485 137.793 205.565C137.913 205.645 138.002 205.765 138.041 205.904C138.319 206.854 139.087 207.512 140.345 207.88" stroke="#8DB797" stroke-width="2"/>
<path d="M140.345 207.88C141.071 208.584 141.855 209.051 142.697 209.28C142.812 209.311 142.919 209.367 143.011 209.444C143.102 209.522 143.175 209.619 143.225 209.728C143.711 210.806 144.007 211.8 144.113 212.712C144.812 218.824 145.279 225.779 145.513 233.576" stroke="#4D998F" stroke-width="2"/>
<path d="M107.065 233.113C107.039 228.211 107.644 223.411 108.881 218.713C109.031 218.153 108.972 218.131 108.705 218.649C106.449 223.017 104.927 227.63 104.137 232.489" stroke="#468E86" stroke-width="2"/>
<path d="M137.514 196.6C135.727 201.08 131.98 202.934 126.274 202.161C123.164 201.739 121.45 199.95 121.13 196.793" stroke="#8C8270" stroke-width="2"/>
<path d="M140.346 207.88C142.77 207.88 142.698 203.488 142.786 201.72C142.788 201.646 142.769 201.573 142.729 201.51C142.69 201.446 142.633 201.396 142.566 201.365C142.498 201.335 142.423 201.325 142.35 201.337C142.276 201.348 142.208 201.382 142.154 201.432C138.938 204.451 134.986 205.918 130.298 205.832" stroke="#88B094" stroke-width="2"/>
<path d="M130.297 205.832C125.577 206.208 119.113 205.832 116.305 201.52C116.14 201.264 115.921 201.206 115.649 201.344C115.313 201.515 115.116 201.918 115.057 202.552" stroke="#9DBDA3" stroke-width="2"/>
<path d="M111.33 202.416C113.303 201.627 114.722 200.683 115.586 199.584" stroke="#7BB095" stroke-width="2"/>
<path d="M130.298 205.832L130.594 206.544" stroke="#DDDBAB" stroke-width="2"/>
<path d="M164.186 27.3765C163.986 27.9525 163.81 28.3285 163.122 28.1445C159.97 27.3071 156.823 26.4298 153.682 25.5125C152.354 25.1285 151.316 24.9445 150.57 24.9605C147.874 25.0405 144.346 27.0965 146.562 30.2245C146.7 30.4271 146.756 30.6485 146.73 30.8885C146.41 33.6885 144.218 34.0965 142.362 35.3765C142.17 35.5098 141.959 35.5605 141.73 35.5285C140.748 35.4058 139.807 35.5285 138.906 35.8965C138.859 35.912 138.822 35.9439 138.799 35.9861C138.777 36.0284 138.772 36.0778 138.785 36.1248C138.798 36.1718 138.828 36.2129 138.87 36.2402C138.911 36.2676 138.961 36.279 139.01 36.2725C143.01 35.8031 145.506 36.8591 146.498 39.4405L137.746 37.7685C137.378 37.6991 137.375 37.6191 137.738 37.5285C138.244 37.4058 138.503 37.0751 138.514 36.5365C138.524 36.2538 138.388 36.1071 138.106 36.0965C123.791 35.4725 110.012 37.7578 96.7696 42.9525C95.2069 43.5658 93.5482 44.4111 91.7936 45.4885C87.7616 47.9685 83.6896 50.2645 79.8976 52.9605C73.3216 57.6405 67.5215 61.0085 62.9615 68.3765L60.7136 71.1925C60.5376 71.4165 60.3695 71.4138 60.2095 71.1845C57.3695 67.2245 54.1696 67.5365 50.1936 66.6645C48.1562 66.2165 46.0816 66.1391 43.9696 66.4325C43.8443 66.4493 43.7168 66.4314 43.6011 66.3806C43.4854 66.3298 43.3859 66.2481 43.3135 66.1445C42.9775 65.6538 42.5482 65.4831 42.0256 65.6325C41.8656 65.6751 41.7669 65.6165 41.7296 65.4565L41.6016 64.8725C48.0496 55.7365 55.6896 47.8085 64.5216 41.0885C80.0736 29.7711 97.4922 23.1205 116.778 21.1365C133.092 19.9205 148.895 22.0005 164.186 27.3765Z" fill="#A5CBA5"/>
<path d="M164.185 27.3765C189.057 36.7045 210.753 54.8005 222.609 78.8405C222.284 78.9152 222.161 79.1739 222.241 79.6165C222.273 79.8085 222.212 79.8485 222.057 79.7365L221.865 79.5925C221.625 79.4165 221.38 79.4112 221.129 79.5765C219.908 80.4032 218.604 80.7899 217.217 80.7365C215.804 80.6779 214.828 80.7419 214.289 80.9285C212.721 81.4672 211.185 82.2939 209.681 83.4085C206.284 76.6352 201.945 71.8539 196.665 69.0645C193.793 63.1765 186.697 57.4725 179.921 60.0245C179.649 60.1312 179.433 60.0619 179.273 59.8165C173.449 50.9765 160.681 44.9845 150.993 41.8085C150.508 40.6885 149.009 39.8992 146.497 39.4405C145.505 36.8592 143.009 35.8032 139.009 36.2725C138.961 36.2791 138.911 36.2676 138.869 36.2403C138.828 36.213 138.797 36.1718 138.784 36.1248C138.771 36.0779 138.777 36.0284 138.799 35.9862C138.821 35.944 138.859 35.912 138.905 35.8965C139.807 35.5285 140.748 35.4059 141.729 35.5285C141.959 35.5605 142.169 35.5099 142.361 35.3765C144.217 34.0965 146.409 33.6885 146.729 30.8885C146.756 30.6485 146.7 30.4272 146.561 30.2245C144.345 27.0965 147.873 25.0405 150.569 24.9605C151.316 24.9445 152.353 25.1285 153.681 25.5125C156.823 26.4299 159.969 27.3072 163.121 28.1445C163.809 28.3285 163.985 27.9525 164.185 27.3765ZM190.073 56.6645C187.423 56.7019 184.839 57.1445 182.321 57.9925C181.676 58.2112 181.692 58.3445 182.369 58.3925C185.649 58.6219 188.676 59.6485 191.449 61.4725C191.796 61.7019 191.916 61.6139 191.809 61.2085L190.673 57.1205C190.639 56.9881 190.561 56.8711 190.452 56.7884C190.344 56.7056 190.21 56.662 190.073 56.6645Z" fill="#91C299"/>
<path d="M146.497 39.4405C149.009 39.8991 150.508 40.6885 150.993 41.8085C144.108 39.7711 137.135 38.7285 130.073 38.6805C104.105 39.6298 82.708 49.9098 65.8813 69.5205L62.9613 68.3765C67.5213 61.0085 73.3213 57.6405 79.8973 52.9605C83.6893 50.2645 87.7613 47.9685 91.7933 45.4885C93.548 44.4111 95.2066 43.5658 96.7693 42.9525C110.012 37.7578 123.791 35.4725 138.105 36.0965C138.388 36.1071 138.524 36.2538 138.513 36.5365C138.503 37.0751 138.244 37.4058 137.737 37.5285C137.375 37.6191 137.377 37.6991 137.745 37.7685L146.497 39.4405Z" fill="#C8CD9C"/>
<path d="M130.073 38.6805C131.231 39.2618 132.423 39.5525 133.649 39.5525C133.745 39.5546 133.838 39.5807 133.92 39.6282C134.003 39.6757 134.072 39.7432 134.121 39.8245C134.649 40.7258 134.495 41.1898 133.657 41.2165C126.564 41.4778 121.284 44.3791 117.817 49.9205C117.401 50.5871 117.497 50.6725 118.105 50.1765C124.401 45.0965 131.321 41.9445 139.369 42.5845C144.783 43.0111 149.028 43.7338 152.105 44.7525C161.561 47.8805 164.625 56.9845 159.233 65.2725C159.189 65.3409 159.131 65.3996 159.064 65.445C158.996 65.4904 158.92 65.5215 158.84 65.5365C158.76 65.5514 158.677 65.5499 158.598 65.5321C158.518 65.5142 158.443 65.4803 158.377 65.4325C153.3 61.8431 147.697 59.8458 141.569 59.4405C140.409 59.3685 139.313 58.9205 138.377 58.8725C131.513 58.4938 124.652 58.4325 117.793 58.6885C104.849 59.1685 89.8734 63.1205 79.4094 70.8405C71.9134 76.3765 66.6174 81.2245 61.2654 89.2645C61.0254 89.6218 60.2628 90.3231 58.9774 91.3685L54.2574 94.7845C54.8334 91.1151 56.0761 87.7685 57.9854 84.7445C58.0557 84.6314 58.1007 84.5048 58.1173 84.3736C58.1339 84.2423 58.1216 84.1096 58.0814 83.9845L57.7214 82.8645C60.0414 78.2245 62.7614 73.7765 65.8814 69.5205C82.7081 49.9098 104.105 39.6298 130.073 38.6805ZM77.9934 61.7765C76.8894 62.7125 73.0894 66.1205 73.6414 67.6085C73.6942 67.7541 73.779 67.8862 73.8894 67.9949C73.9997 68.1036 74.133 68.1863 74.2795 68.2369C74.4259 68.2875 74.5819 68.3048 74.7358 68.2874C74.8898 68.27 75.0379 68.2185 75.1694 68.1365C85.8841 61.4858 96.8174 55.2138 107.969 49.3205C109.457 48.5365 110.841 47.3365 112.129 46.3045C112.318 46.1523 112.455 45.9461 112.522 45.7136C112.589 45.4812 112.584 45.2337 112.506 45.0045C112.429 44.7753 112.283 44.5753 112.088 44.4316C111.893 44.2878 111.659 44.2072 111.417 44.2005C109.972 44.1578 108.479 44.4138 106.937 44.9685C96.2814 48.8298 86.6334 54.4325 77.9934 61.7765Z" fill="#076F81"/>
<path d="M130.073 38.6805C137.135 38.7285 144.108 39.7711 150.993 41.8085C160.681 44.9845 173.449 50.9765 179.273 59.8165C179.433 60.0618 179.649 60.1311 179.921 60.0245C186.697 57.4725 193.793 63.1765 196.665 69.0645C194.591 68.8351 192.351 67.8591 189.945 66.1365C189.177 66.2911 188.492 66.1711 187.889 65.7765C184.905 63.8245 181.329 62.7605 178.033 61.4085C177.063 61.0138 176.052 60.6911 175.001 60.4405C174.66 60.3605 174.359 60.4351 174.097 60.6645L162.273 70.9925C162.215 71.043 162.147 71.0809 162.074 71.104C162 71.127 161.923 71.1346 161.846 71.1264C161.77 71.1181 161.696 71.0942 161.629 71.056C161.562 71.0178 161.503 70.9662 161.457 70.9045C159.329 68.0725 156.521 66.2111 153.033 65.3205C152.959 65.2984 152.879 65.3036 152.807 65.3353C152.736 65.3669 152.678 65.4229 152.645 65.4932C152.611 65.5635 152.603 65.6435 152.623 65.7189C152.643 65.7942 152.689 65.86 152.753 65.9045L159.657 70.8325C159.805 70.9383 159.924 71.0786 160.005 71.2412C160.086 71.4038 160.126 71.5837 160.121 71.7652C160.116 71.9467 160.067 72.1243 159.978 72.2824C159.889 72.4406 159.762 72.5745 159.609 72.6725C148.255 79.9205 135.82 84.9818 122.305 87.8565C103.657 91.8245 83.9934 96.1205 69.3374 109.336C64.4334 113.76 64.7854 119.84 65.6494 126.048C66.0414 128.888 65.4014 131.048 64.3294 133.48C64.236 133.694 64.0925 133.881 63.9111 134.027C63.7297 134.173 63.5156 134.274 63.2868 134.32C63.058 134.366 62.8212 134.357 62.5961 134.293C62.3711 134.229 62.1644 134.112 61.9934 133.952L57.3055 129.536C55.9615 127.526 55.0841 124.8 54.6734 121.36C53.9481 115.328 54.2015 109.643 55.4335 104.304C56.2388 104.08 56.9748 104.024 57.6414 104.136C57.7287 104.152 57.8188 104.14 57.8985 104.101C57.9782 104.062 58.0434 103.999 58.0845 103.92C58.1256 103.841 58.1405 103.752 58.127 103.664C58.1135 103.576 58.0723 103.495 58.0094 103.432C57.3374 102.76 56.4041 102.283 55.2094 102C55.8761 98.5498 57.1321 95.0058 58.9774 91.3685C60.2628 90.3231 61.0254 89.6218 61.2654 89.2645C66.6174 81.2245 71.9134 76.3765 79.4094 70.8405C89.8734 63.1205 104.849 59.1685 117.793 58.6885C124.652 58.4325 131.513 58.4938 138.377 58.8725C139.313 58.9205 140.409 59.3685 141.569 59.4405C147.697 59.8458 153.3 61.8431 158.377 65.4325C158.443 65.4803 158.518 65.5142 158.598 65.5321C158.677 65.5499 158.76 65.5514 158.84 65.5365C158.92 65.5215 158.996 65.4904 159.064 65.445C159.131 65.3996 159.189 65.3409 159.233 65.2725C164.625 56.9845 161.561 47.8805 152.105 44.7525C149.028 43.7338 144.783 43.0111 139.369 42.5845C131.321 41.9445 124.401 45.0965 118.105 50.1765C117.497 50.6725 117.401 50.5871 117.817 49.9205C121.284 44.3791 126.564 41.4778 133.657 41.2165C134.495 41.1898 134.649 40.7258 134.121 39.8245C134.072 39.7432 134.003 39.6757 133.92 39.6282C133.838 39.5807 133.745 39.5546 133.649 39.5525C132.423 39.5525 131.231 39.2618 130.073 38.6805ZM90.1614 87.2245C90.1348 87.3205 90.1214 87.4191 90.1214 87.5205C90.1193 87.5628 90.1285 87.6049 90.148 87.6426C90.1674 87.6802 90.1965 87.7121 90.2323 87.7348C90.2681 87.7576 90.3092 87.7705 90.3516 87.7722C90.3939 87.7739 90.436 87.7643 90.4734 87.7445C100.265 82.8005 113.009 78.1045 120.329 75.0165C128.809 71.4405 138.073 68.6565 146.001 64.0245C146.056 63.9942 146.1 63.9488 146.129 63.8936C146.158 63.8385 146.171 63.7761 146.165 63.7141C146.159 63.6521 146.135 63.5932 146.096 63.5446C146.057 63.496 146.005 63.4598 145.945 63.4405C131.361 58.2405 119.177 61.4245 105.169 67.5685C92.4734 73.1445 82.8254 81.2405 74.5774 92.2325C73.8734 93.1685 67.8014 101.184 68.2654 101.48C68.3406 101.531 68.4299 101.555 68.5185 101.55C68.6072 101.544 68.69 101.508 68.7534 101.448C75.0628 95.7311 81.9268 90.7791 89.3454 86.5925C89.4414 86.5384 89.5513 86.5138 89.6611 86.5219C89.771 86.5299 89.8761 86.5702 89.9632 86.6376C90.0503 86.7051 90.1156 86.7968 90.1508 86.9012C90.1861 87.0055 90.1898 87.118 90.1614 87.2245ZM67.1694 89.0965C68.4974 88.9445 73.4255 84.1525 74.9055 83.1045C81.3481 78.5391 87.8068 73.9898 94.2815 69.4565C94.9455 68.9925 95.8334 68.9045 96.2174 67.8245C96.2614 67.702 96.271 67.5698 96.2451 67.4422C96.2193 67.3147 96.1589 67.1967 96.0707 67.101C95.9825 67.0054 95.8697 66.9357 95.7447 66.8996C95.6196 66.8636 95.4871 66.8625 95.3614 66.8965C89.3134 68.5365 83.3694 70.5925 78.4254 74.5605C73.7694 78.2938 69.6921 82.5871 66.1934 87.4405C66.0735 87.6057 66.0043 87.8023 65.9946 88.0063C65.9848 88.2102 66.0349 88.4125 66.1385 88.5884C66.2422 88.7643 66.395 88.9061 66.5781 88.9964C66.7613 89.0866 66.9668 89.1214 67.1694 89.0965Z" fill="#04506C"/>
<path d="M73.6416 67.6085C73.0896 66.1205 76.8896 62.7125 77.9936 61.7765C86.6336 54.4325 96.2816 48.8298 106.938 44.9685C108.479 44.4138 109.972 44.1578 111.418 44.2005C111.66 44.2072 111.894 44.2878 112.088 44.4316C112.283 44.5753 112.429 44.7753 112.506 45.0045C112.584 45.2337 112.589 45.4812 112.522 45.7136C112.455 45.946 112.318 46.1522 112.13 46.3045C110.842 47.3365 109.458 48.5365 107.97 49.3205C96.8176 55.2138 85.8843 61.4858 75.1696 68.1365C75.0381 68.2184 74.89 68.27 74.736 68.2874C74.5821 68.3048 74.4261 68.2875 74.2797 68.2369C74.1332 68.1863 73.9999 68.1036 73.8895 67.9949C73.7792 67.8862 73.6944 67.7541 73.6416 67.6085Z" fill="#FCE4AD"/>
<path d="M190.674 57.1206L191.81 61.2086C191.916 61.6139 191.796 61.7019 191.45 61.4726C188.676 59.6486 185.65 58.6219 182.37 58.3926C181.692 58.3446 181.676 58.2112 182.322 57.9926C184.839 57.1446 187.423 56.7019 190.074 56.6646C190.21 56.662 190.344 56.7057 190.453 56.7884C190.562 56.8711 190.639 56.9882 190.674 57.1206Z" fill="#7EBA98"/>
<path d="M189.945 66.1364C190.543 66.9097 191.199 67.5524 191.913 68.0644C207.425 79.1204 206.553 118.72 197.353 133.216L192.553 135.4C192.319 135.507 192.153 135.68 192.057 135.92C190.068 140.918 191.055 145.064 195.017 148.36C192.863 149.502 190.436 149.083 187.737 147.104L186.505 143.704C185.345 135.824 186.377 127.808 186.289 120.16C186.273 118.752 185.252 116.307 183.225 112.824C177.679 103.47 174.385 93.4217 173.345 82.6804C173.341 82.6337 173.323 82.5894 173.293 82.5532C173.264 82.517 173.224 82.4906 173.179 82.4777C173.134 82.4647 173.086 82.4656 173.041 82.4804C172.997 82.4952 172.958 82.5231 172.929 82.5604C153.225 107.896 117.593 116.512 87.0974 113.472C87.0481 113.467 87.0012 113.449 86.9614 113.419C86.9216 113.39 86.8903 113.35 86.8708 113.304C86.8513 113.259 86.8442 113.209 86.8502 113.16C86.8563 113.111 86.8754 113.064 86.9054 113.024C90.4254 108.422 95.0601 105.534 100.809 104.36C100.879 104.35 100.911 104.31 100.905 104.24C100.905 104.171 100.9 104.102 100.889 104.032C100.879 103.974 100.847 103.944 100.793 103.944C93.2494 104.048 77.4494 106.432 72.5694 111.96C68.0894 117.032 69.5614 124.88 69.4974 131.008C69.4174 138.248 67.4094 147.848 58.3054 148.52C64.2414 145.504 66.3374 136.04 58.9294 133.2C58.2628 132.491 57.7214 131.27 57.3054 129.536L61.9934 133.952C62.1644 134.112 62.371 134.229 62.5961 134.293C62.8211 134.357 63.058 134.366 63.2868 134.32C63.5156 134.274 63.7297 134.173 63.9111 134.027C64.0925 133.881 64.236 133.694 64.3294 133.48C65.4014 131.048 66.0414 128.888 65.6494 126.048C64.7854 119.84 64.4334 113.76 69.3374 109.336C83.9934 96.1204 103.657 91.8244 122.305 87.8564C135.82 84.9817 148.255 79.9204 159.609 72.6724C159.762 72.5744 159.889 72.4405 159.978 72.2824C160.067 72.1242 160.116 71.9466 160.121 71.7651C160.126 71.5836 160.086 71.4037 160.005 71.2411C159.924 71.0785 159.805 70.9382 159.657 70.8324L152.753 65.9044C152.689 65.86 152.643 65.7942 152.623 65.7188C152.603 65.6434 152.611 65.5634 152.645 65.4932C152.678 65.4229 152.736 65.3669 152.807 65.3352C152.878 65.3036 152.959 65.2983 153.033 65.3204C156.521 66.2111 159.329 68.0724 161.457 70.9044C161.503 70.9662 161.562 71.0177 161.629 71.0559C161.696 71.0941 161.77 71.1181 161.846 71.1263C161.923 71.1346 162 71.127 162.074 71.1039C162.147 71.0809 162.215 71.0429 162.273 70.9924L174.097 60.6644C174.359 60.4351 174.66 60.3604 175.001 60.4404C176.052 60.6911 177.063 61.0137 178.033 61.4084C181.329 62.7604 184.905 63.8244 187.889 65.7764C188.492 66.1711 189.177 66.2911 189.945 66.1364Z" fill="#032E52"/>
<path d="M90.1615 87.2245C90.1898 87.1181 90.1862 87.0056 90.1509 86.9012C90.1156 86.7968 90.0504 86.7052 89.9633 86.6377C89.8761 86.5702 89.7711 86.53 89.6612 86.5219C89.5513 86.5139 89.4415 86.5385 89.3455 86.5925C81.9268 90.7792 75.0628 95.7312 68.7535 101.449C68.6901 101.508 68.6073 101.544 68.5186 101.55C68.4299 101.555 68.3407 101.531 68.2655 101.481C67.8015 101.185 73.8735 93.1685 74.5775 92.2325C82.8255 81.2405 92.4735 73.1445 105.17 67.5685C119.178 61.4245 131.362 58.2405 145.946 63.4405C146.005 63.4599 146.057 63.4961 146.096 63.5447C146.135 63.5933 146.159 63.6522 146.165 63.7142C146.171 63.7762 146.158 63.8386 146.129 63.8937C146.1 63.9488 146.056 63.9943 146.001 64.0245C138.073 68.6565 128.81 71.4405 120.33 75.0165C113.01 78.1045 100.266 82.8005 90.4735 87.7445C90.436 87.7644 90.394 87.7739 90.3516 87.7722C90.3093 87.7706 90.2681 87.7577 90.2324 87.7349C90.1966 87.7122 90.1675 87.6803 90.148 87.6427C90.1285 87.605 90.1194 87.5629 90.1215 87.5205C90.1215 87.4192 90.1348 87.3205 90.1615 87.2245Z" fill="#076F81"/>
<path d="M41.6014 64.8725L41.7294 65.4565C41.7667 65.6165 41.8654 65.6751 42.0254 65.6325C42.548 65.4831 42.9774 65.6538 43.3134 66.1445C43.3857 66.2481 43.4852 66.3298 43.6009 66.3806C43.7166 66.4314 43.8441 66.4493 43.9694 66.4325C46.0814 66.1391 48.156 66.2165 50.1934 66.6645C54.1694 67.5365 57.3693 67.2245 60.2093 71.1845C60.3693 71.4138 60.5374 71.4165 60.7134 71.1925L62.9614 68.3765L65.8814 69.5205C62.7614 73.7765 60.0414 78.2245 57.7214 82.8645L51.1214 97.9445C50.4867 98.3391 50.0493 98.9498 49.8093 99.7765C49.7293 100.048 49.5507 100.174 49.2734 100.152C47.6467 100.03 46.5214 100.203 45.8974 100.672C42.8627 102.955 39.4574 104.312 35.6814 104.744C35.436 104.776 35.2414 104.891 35.0974 105.088L33.4014 107.408C32.9587 107.339 32.7187 107.24 32.6814 107.112C33.1214 106.672 32.9294 106.2 32.4494 105.904C30.0547 104.438 27.492 103.254 24.7614 102.352C28.1374 88.5445 33.7507 76.0511 41.6014 64.8725ZM50.2814 75.6405L50.3534 74.5445C50.3566 74.4993 50.3509 74.4539 50.3366 74.4109C50.3223 74.3679 50.2996 74.3282 50.2698 74.294C50.2401 74.2598 50.2039 74.2318 50.1633 74.2116C50.1227 74.1915 50.0786 74.1795 50.0334 74.1765L49.5054 74.1445C48.999 74.1113 48.5084 74.1565 48.14 74.2703C47.7716 74.3842 47.555 74.5574 47.5374 74.7525L47.5134 75.0565C47.5062 75.154 47.549 75.2539 47.6392 75.3506C47.7294 75.4472 47.8653 75.5386 48.0392 75.6196C48.2131 75.7006 48.4215 75.7696 48.6525 75.8226C48.8834 75.8756 49.1325 75.9116 49.3854 75.9285L49.9134 75.9685C49.9592 75.9717 50.0052 75.9658 50.0487 75.9509C50.0922 75.9361 50.1323 75.9127 50.1666 75.8821C50.2009 75.8516 50.2287 75.8144 50.2484 75.7729C50.2681 75.7314 50.2793 75.6864 50.2814 75.6405Z" fill="#91C299"/>
<path d="M189.945 66.1365C192.351 67.8592 194.591 68.8352 196.665 69.0645C201.945 71.8539 206.284 76.6352 209.681 83.4085C212.444 88.7952 214.748 94.8325 216.593 101.521C216.673 101.814 216.865 101.934 217.169 101.881C217.905 101.742 218.439 101.883 218.769 102.305L218.257 104.977C218.204 105.259 218.041 105.443 217.769 105.529L214.521 106.537C214.416 106.57 214.325 106.637 214.262 106.728C214.2 106.819 214.169 106.928 214.176 107.038C214.182 107.148 214.225 107.253 214.298 107.336C214.371 107.419 214.469 107.476 214.577 107.497L217.905 108.121C218.022 108.143 218.131 108.192 218.224 108.265C218.317 108.337 218.392 108.43 218.441 108.537C219.225 110.19 219.684 112.115 219.817 114.313L219.977 117.753C219.988 118.003 220.113 118.166 220.353 118.241C221.305 118.537 221.609 124.113 221.793 125.305C221.836 125.577 221.801 125.838 221.689 126.089C221.071 127.486 221.041 128.883 221.601 130.281C221.703 130.537 221.697 130.79 221.585 131.041C221.143 132.027 220.948 132.955 221.001 133.825C220.516 134.993 219.761 135.774 218.737 136.169C218.487 136.265 218.487 136.369 218.737 136.481L219.937 137.009C220.065 142.609 219.372 148.358 217.857 154.257C215.953 161.657 214.865 168.633 210.209 175.433C209.447 176.547 208.983 177.465 208.817 178.185C208.556 179.331 208.62 180.393 209.009 181.369L208.897 185.633C208.887 185.963 208.716 186.134 208.385 186.145C204.268 186.283 203.393 186.654 205.761 187.257C200.791 193.747 196.121 200.411 191.753 207.249C189.161 211.297 184.489 213.657 180.145 215.297C174.7 217.345 169.209 219.265 163.673 221.057C162.943 221.291 162.153 221.979 161.305 223.121C158.025 212.481 154.385 204.681 144.249 198.777C144.009 198.638 143.916 198.433 143.969 198.161C144.167 197.115 143.945 196.681 143.305 196.857C162.329 192.177 179.953 182.153 186.641 162.441C186.737 162.147 186.932 162.051 187.225 162.153C195.305 165.017 203.697 162.361 208.265 155.257C212.121 149.249 211.305 142.497 206.017 137.793C203.753 135.785 200.217 134.873 197.353 133.217C206.553 118.721 207.425 79.1205 191.913 68.0645C191.199 67.5525 190.543 66.9099 189.945 66.1365ZM184.473 194.097L182.065 194.545C182.008 194.556 181.955 194.585 181.916 194.629C181.876 194.673 181.852 194.728 181.846 194.787C181.841 194.845 181.855 194.904 181.886 194.954C181.916 195.004 181.963 195.043 182.017 195.065C182.673 195.321 183.353 195.39 184.057 195.273C184.201 195.25 184.348 195.274 184.476 195.342C184.604 195.41 184.707 195.517 184.769 195.649C185.159 196.475 185.337 197.369 185.305 198.329C185.304 198.385 185.32 198.441 185.353 198.488C185.385 198.535 185.432 198.569 185.486 198.587C185.54 198.605 185.598 198.605 185.652 198.588C185.706 198.57 185.753 198.535 185.785 198.489C186.223 197.875 186.279 197.235 185.953 196.569C185.692 196.035 185.855 195.809 186.441 195.889C186.98 195.969 187.465 195.857 187.897 195.553C187.952 195.515 187.996 195.463 188.024 195.403C188.052 195.342 188.064 195.275 188.058 195.209C188.053 195.142 188.03 195.077 187.992 195.021C187.954 194.965 187.902 194.919 187.841 194.889L186.961 194.457C186.732 194.35 186.583 194.174 186.513 193.929L185.649 190.793C185.631 190.704 185.58 190.626 185.506 190.574C185.433 190.521 185.343 190.498 185.253 190.509C185.164 190.521 185.081 190.565 185.023 190.634C184.965 190.702 184.934 190.79 184.937 190.881L184.881 193.617C184.876 193.889 184.74 194.049 184.473 194.097Z" fill="#5DA491"/>
<path d="M74.9055 83.1046C73.4255 84.1526 68.4975 88.9446 67.1695 89.0966C66.9668 89.1215 66.7613 89.0867 66.5781 88.9965C66.395 88.9062 66.2422 88.7644 66.1386 88.5886C66.0349 88.4127 65.9849 88.2103 65.9946 88.0064C66.0044 87.8024 66.0735 87.6058 66.1935 87.4406C69.6921 82.5872 73.7695 78.2939 78.4255 74.5606C83.3695 70.5926 89.3135 68.5366 95.3615 66.8966C95.4871 66.8626 95.6196 66.8637 95.7447 66.8998C95.8697 66.9358 95.9825 67.0055 96.0707 67.1011C96.159 67.1968 96.2193 67.3148 96.2452 67.4423C96.271 67.5699 96.2615 67.7021 96.2175 67.8246C95.8335 68.9046 94.9455 68.9926 94.2815 69.4566C87.8068 73.9899 81.3481 78.5392 74.9055 83.1046Z" fill="#076F81"/>
<path d="M50.2812 75.6406C50.2792 75.6865 50.268 75.7316 50.2483 75.7731C50.2286 75.8146 50.2007 75.8517 50.1664 75.8823C50.1321 75.9128 50.0921 75.9362 50.0486 75.9511C50.0051 75.9659 49.9591 75.9719 49.9132 75.9686L49.3852 75.9286C49.1324 75.9117 48.8833 75.8757 48.6523 75.8227C48.4214 75.7697 48.2129 75.7008 48.0391 75.6198C47.8652 75.5388 47.7293 75.4474 47.6391 75.3507C47.5488 75.2541 47.5061 75.1541 47.5132 75.0566L47.5372 74.7526C47.5549 74.5575 47.7714 74.3843 48.1399 74.2705C48.5083 74.1567 48.9989 74.1114 49.5052 74.1446L50.0332 74.1766C50.0785 74.1797 50.1226 74.1916 50.1632 74.2118C50.2038 74.2319 50.24 74.2599 50.2697 74.2941C50.2995 74.3283 50.3221 74.368 50.3365 74.411C50.3508 74.454 50.3565 74.4994 50.3532 74.5446L50.2812 75.6406Z" fill="#A5CBA5"/>
<path d="M222.61 78.8406C226.919 87.7046 229.999 97.0033 231.85 106.737C235.082 126.417 234.53 145.849 228.546 164.905C225.842 172.574 222.239 179.766 217.738 186.481C213.298 188.889 220.154 174.441 220.362 174.049C225.682 164.281 225.506 150.649 224.802 139.657C224.722 138.446 224.228 137.337 223.322 136.329L221.002 133.825C220.948 132.955 221.143 132.027 221.586 131.041C221.698 130.79 221.703 130.537 221.602 130.281C221.042 128.883 221.071 127.486 221.69 126.089C221.802 125.838 221.836 125.577 221.794 125.305C221.61 124.113 221.306 118.537 220.354 118.241C220.114 118.166 219.988 118.003 219.978 117.753L219.818 114.313C220.484 112.883 220.826 111.393 220.842 109.841C220.842 109.694 220.871 109.548 220.927 109.412C220.983 109.276 221.066 109.153 221.17 109.049C222.343 107.833 223.778 107.102 225.474 106.857C227.015 106.633 227.034 106.27 225.53 105.769C224.042 105.281 221.322 106.665 220.962 103.873C220.754 102.273 220.479 100.686 220.138 99.1126C220.119 99.0369 220.076 98.9692 220.014 98.9207C219.953 98.8721 219.877 98.8457 219.799 98.8457C219.722 98.8457 219.647 98.8721 219.588 98.9207C219.529 98.9692 219.489 99.0369 219.474 99.1126L218.77 102.305C218.439 101.883 217.906 101.742 217.17 101.881C216.866 101.934 216.674 101.814 216.594 101.521C214.748 94.8326 212.444 88.7953 209.682 83.4086C211.186 82.2939 212.722 81.4673 214.29 80.9286C214.828 80.742 215.804 80.678 217.218 80.7366C218.604 80.79 219.908 80.4033 221.13 79.5766C221.38 79.4113 221.626 79.4166 221.866 79.5926L222.058 79.7366C222.212 79.8486 222.274 79.8086 222.242 79.6166C222.162 79.174 222.284 78.9153 222.61 78.8406Z" fill="#7EBA98"/>
<path d="M183.225 112.825L181.841 113.009C181.601 113.041 181.409 112.961 181.265 112.769C177.201 107.169 174.22 101.027 172.321 94.3446C172.231 94.0246 172.065 93.9766 171.825 94.2006C150.241 114.257 124.209 119.729 95.4493 118.097C91.5213 117.873 88.4733 116.585 85.0973 114.865C84.1053 114.363 83.116 114.137 82.1293 114.185C78.0413 114.377 73.9693 113.793 73.5453 119.297C73.0253 125.873 71.3454 132.497 71.0574 138.705C70.6894 146.393 70.2253 152.409 71.7613 158.105C65.356 160.393 60.7587 158.713 57.9693 153.065C57.164 151.422 57.276 149.907 58.3053 148.521C67.4093 147.849 69.4173 138.249 69.4973 131.009C69.5613 124.881 68.0893 117.033 72.5693 111.961C77.4493 106.433 93.2493 104.049 100.793 103.945C100.847 103.945 100.879 103.974 100.889 104.033C100.9 104.102 100.905 104.171 100.905 104.241C100.911 104.31 100.879 104.35 100.809 104.361C95.06 105.534 90.4254 108.422 86.9054 113.025C86.8753 113.064 86.8563 113.111 86.8502 113.16C86.8441 113.209 86.8512 113.259 86.8707 113.305C86.8902 113.35 86.9215 113.39 86.9613 113.419C87.0011 113.449 87.0481 113.467 87.0973 113.473C117.593 116.513 153.225 107.897 172.929 82.5606C172.958 82.5232 172.997 82.4953 173.041 82.4806C173.086 82.4658 173.133 82.4648 173.179 82.4778C173.224 82.4908 173.264 82.5172 173.293 82.5534C173.323 82.5895 173.341 82.6339 173.345 82.6806C174.385 93.4219 177.679 103.47 183.225 112.825Z" fill="#EA8359"/>
<path d="M57.7215 82.8645L58.0815 83.9845C58.1217 84.1095 58.1339 84.2423 58.1173 84.3736C58.1007 84.5048 58.0557 84.6313 57.9854 84.7444C56.0761 87.7684 54.8335 91.1151 54.2575 94.7845L51.1215 97.9444L57.7215 82.8645Z" fill="#032E52"/>
<path d="M58.9775 91.3686C57.1321 95.0059 55.8761 98.5499 55.2094 102.001L55.4335 104.305C54.2015 109.643 53.9481 115.329 54.6735 121.361C55.0841 124.801 55.9615 127.526 57.3055 129.537C57.7215 131.27 58.2628 132.491 58.9295 133.201C58.3588 133.585 57.7455 133.758 57.0895 133.721C45.0175 135.577 44.2735 149.897 51.6975 157.161L55.4815 160.065C57.0228 161.713 56.3775 162.102 53.5455 161.233C53.3321 161.169 53.1401 161.206 52.9695 161.345C52.1215 162.022 51.2601 162.689 50.3854 163.345C48.9534 164.425 46.8975 164.625 45.5695 166.209C44.3695 167.657 44.9695 169.457 42.8975 170.881C42.6735 171.03 42.5161 171.235 42.4255 171.497C41.6415 173.697 40.8015 176.065 38.0895 175.513C37.9391 175.481 37.7823 175.508 37.6513 175.588C37.5203 175.669 37.4251 175.796 37.3854 175.945C37.2041 176.633 36.7268 176.95 35.9535 176.897C35.6441 176.881 35.4441 177.019 35.3535 177.313L35.2015 177.777C35.1055 178.075 34.9375 178.126 34.6975 177.929L34.2015 177.521C34.1562 177.481 34.1003 177.457 34.041 177.451C33.9817 177.446 33.9217 177.458 33.869 177.487C33.8163 177.517 33.7733 177.562 33.7455 177.616C33.7178 177.671 33.7066 177.732 33.7135 177.793L33.8415 178.841C33.8788 179.129 33.7668 179.209 33.5055 179.081L32.4815 178.593C32.4667 178.584 32.4544 178.572 32.4464 178.557C32.4383 178.542 32.435 178.525 32.4367 178.509C32.4385 178.493 32.4454 178.478 32.4563 178.467C32.4672 178.457 32.4817 178.45 32.4975 178.449L32.7775 178.401C32.9695 178.369 32.9961 178.286 32.8575 178.153L32.5935 177.881C32.4975 177.785 32.3881 177.771 32.2655 177.841C32.1695 177.899 32.0228 177.955 31.8255 178.009C27.3081 169.273 24.3561 160.035 22.9695 150.297C20.9855 135.217 20.8174 117.169 24.7614 102.353C27.4921 103.254 30.0548 104.438 32.4495 105.905C32.9295 106.201 33.1215 106.673 32.6815 107.113C31.9295 107.033 31.4788 107.345 31.3295 108.049C31.3072 108.151 31.3076 108.257 31.3307 108.359C31.3537 108.462 31.3988 108.558 31.4628 108.641C31.5268 108.724 31.6082 108.792 31.7012 108.84C31.7942 108.889 31.8967 108.916 32.0015 108.921C32.6415 108.947 33.1588 108.699 33.5535 108.177C33.6708 108.017 33.6761 107.851 33.5695 107.681L33.4015 107.409L35.0975 105.089C35.2415 104.891 35.4361 104.777 35.6815 104.745C39.4575 104.313 42.8628 102.955 45.8975 100.673C46.5215 100.203 47.6468 100.03 49.2735 100.153C49.5508 100.174 49.7294 100.049 49.8094 99.7766C50.0494 98.9499 50.4868 98.3392 51.1215 97.9445L54.2575 94.7846L58.9775 91.3686ZM29.6815 147.753C29.4628 148.355 29.6761 148.771 30.3215 149.001C30.426 149.037 30.5373 149.05 30.6475 149.039C30.7577 149.027 30.8639 148.991 30.9587 148.934C31.0535 148.877 31.1344 148.799 31.1958 148.707C31.2571 148.615 31.2973 148.51 31.3135 148.401C31.4788 147.313 31.0308 146.993 29.9695 147.441C29.8365 147.502 29.733 147.614 29.6815 147.753Z" fill="#6DAF96"/>
<path d="M183.226 112.824C185.252 116.307 186.274 118.752 186.29 120.16C186.378 127.808 185.346 135.824 186.506 143.704L186.53 144.088C186.551 144.371 186.418 144.512 186.13 144.512H185.738C185.492 144.512 185.364 144.39 185.354 144.144C185.348 143.952 185.335 143.75 185.314 143.536C185.26 143.024 185.21 143.024 185.162 143.536C182.578 170.44 168.274 183.256 144.298 192.208C141.434 193.275 138.567 194.446 135.698 195.72L121.13 196.792L116.978 197.24C95.2175 193.8 78.5295 182.728 72.2655 160.624L71.7615 158.104C70.2255 152.408 70.6895 146.392 71.0575 138.704C71.3455 132.496 73.0255 125.872 73.5455 119.296C73.9695 113.792 78.0415 114.376 82.1295 114.184C83.1162 114.136 84.1055 114.363 85.0975 114.864C88.4735 116.584 91.5215 117.872 95.4495 118.096C124.21 119.728 150.242 114.256 171.826 94.2005C172.066 93.9765 172.231 94.0245 172.322 94.3445C174.22 101.027 177.202 107.168 181.266 112.768C181.41 112.96 181.602 113.04 181.842 113.008L183.226 112.824ZM152.274 124.464C151.138 126.224 151.231 127.696 152.554 128.88C154.594 130.696 156.994 129.76 159.53 129.312C164.09 128.512 169.818 133.104 172.962 136.272C173.858 137.179 174.644 137.144 175.322 136.168C175.451 135.983 175.531 135.767 175.553 135.541C175.575 135.316 175.54 135.088 175.45 134.88C172.607 128.171 167.722 123.926 160.794 122.144C157.642 121.336 154.066 121.68 152.274 124.464ZM96.9215 122.88C90.4815 122.808 82.0975 127.072 80.6895 133.896C80.4815 134.91 80.8149 135.627 81.6895 136.048C81.9295 136.166 82.1642 136.152 82.3935 136.008C87.5615 132.688 91.1455 128.368 97.9615 131.528C107.018 135.736 107.514 123 96.9215 122.88ZM82.7615 151.472C83.2469 153.76 84.2469 154.896 85.7615 154.88C89.9935 156.744 96.6175 158.672 101.234 157.064C101.328 157.03 101.408 156.966 101.463 156.88C101.518 156.795 101.544 156.694 101.538 156.592C101.516 156.24 101.356 156.072 101.058 156.088C106.874 152.064 106.09 144.728 100.602 141.08C94.2255 136.84 86.3855 139.544 82.2175 145.44C80.6282 147.686 80.8095 149.696 82.7615 151.472ZM152.458 150.84C151.898 153.747 153.447 155.854 157.106 157.16C160.658 158.424 174.146 158.744 173.506 152.208C175.17 150.112 175.69 148.032 174.042 145.656C167.786 136.624 151.602 137.496 152.458 150.84ZM173.026 159.008L171.786 160.024C171.726 160.073 171.677 160.133 171.64 160.201C171.604 160.269 171.582 160.343 171.574 160.42C171.567 160.496 171.575 160.574 171.597 160.647C171.62 160.721 171.656 160.789 171.706 160.848L172.002 161.2C172.392 161.676 172.869 162.047 173.328 162.233C173.787 162.419 174.19 162.404 174.45 162.192L174.634 162.04C174.763 161.935 174.852 161.785 174.897 161.597C174.942 161.409 174.941 161.188 174.895 160.947C174.849 160.705 174.759 160.448 174.629 160.189C174.499 159.931 174.332 159.676 174.138 159.44L173.85 159.088C173.801 159.029 173.741 158.98 173.673 158.943C173.605 158.907 173.531 158.885 173.454 158.877C173.378 158.87 173.3 158.878 173.227 158.9C173.153 158.923 173.085 158.959 173.026 159.008ZM113.49 178.824C117.463 181.315 121.73 183.182 126.29 184.424C131.687 185.55 136.828 184.731 141.714 181.968C145.1 180.39 148.14 178.368 150.834 175.904C151.154 175.611 151.103 175.507 150.682 175.592C138.426 178.062 126.322 178.856 114.37 177.976C108.055 176.926 108.023 177.547 102.722 175.312C102.332 175.147 102.1 175.27 102.026 175.681L101.874 176.433C101.82 176.726 101.938 176.907 102.226 176.976L113.49 178.824Z" fill="#FAA36A"/>
<path d="M219.817 114.313C219.684 112.115 219.225 110.19 218.441 108.537C218.392 108.43 218.317 108.337 218.224 108.265C218.131 108.193 218.022 108.143 217.905 108.121L214.577 107.497C214.469 107.476 214.371 107.419 214.298 107.336C214.225 107.253 214.182 107.149 214.176 107.038C214.169 106.928 214.2 106.819 214.263 106.728C214.325 106.637 214.416 106.57 214.521 106.537L217.769 105.529C218.041 105.443 218.204 105.259 218.257 104.977L218.769 102.305L219.473 99.1126C219.488 99.037 219.529 98.9692 219.588 98.9207C219.647 98.8722 219.722 98.8457 219.799 98.8457C219.877 98.8457 219.952 98.8722 220.014 98.9207C220.075 98.9692 220.119 99.037 220.137 99.1126C220.479 100.686 220.753 102.273 220.961 103.873C221.321 106.665 224.041 105.281 225.529 105.769C227.033 106.27 227.015 106.633 225.473 106.857C223.777 107.102 222.343 107.833 221.169 109.049C221.065 109.153 220.983 109.276 220.927 109.412C220.87 109.548 220.841 109.694 220.841 109.841C220.825 111.393 220.484 112.883 219.817 114.313Z" fill="#C8CD9C"/>
<path d="M55.2094 102C56.404 102.283 57.3374 102.76 58.0094 103.432C58.0722 103.495 58.1134 103.576 58.1269 103.664C58.1404 103.751 58.1255 103.841 58.0844 103.92C58.0433 103.998 57.9781 104.062 57.8984 104.101C57.8187 104.14 57.7287 104.152 57.6414 104.136C56.9747 104.024 56.2387 104.08 55.4334 104.304L55.2094 102Z" fill="#397C7B"/>
<path d="M32.6816 107.113C32.7189 107.241 32.9589 107.339 33.4016 107.409L33.5696 107.681C33.6763 107.851 33.6709 108.017 33.5536 108.177C33.1589 108.699 32.6416 108.947 32.0016 108.921C31.8969 108.916 31.7944 108.889 31.7013 108.84C31.6083 108.792 31.5269 108.724 31.4629 108.641C31.3989 108.558 31.3538 108.462 31.3308 108.359C31.3078 108.257 31.3074 108.151 31.3296 108.049C31.4789 107.345 31.9296 107.033 32.6816 107.113Z" fill="#A5CBA5"/>
<path d="M152.274 124.464C154.066 121.68 157.642 121.336 160.794 122.144C167.722 123.926 172.607 128.171 175.45 134.88C175.54 135.088 175.576 135.316 175.553 135.541C175.531 135.767 175.451 135.983 175.322 136.168C174.644 137.144 173.858 137.179 172.962 136.272C169.818 133.104 164.09 128.512 159.53 129.312C156.994 129.76 154.594 130.696 152.554 128.88C151.231 127.696 151.138 126.224 152.274 124.464Z" fill="#220509"/>
<path d="M80.6896 133.896C82.0976 127.072 90.4816 122.808 96.9216 122.88C107.514 123 107.018 135.736 97.9616 131.528C91.1456 128.368 87.5616 132.688 82.3936 136.008C82.1643 136.152 81.9296 136.166 81.6896 136.048C80.8149 135.627 80.4816 134.91 80.6896 133.896Z" fill="#220509"/>
<path d="M197.354 133.217C200.218 134.873 203.754 135.785 206.018 137.793C211.306 142.497 212.122 149.248 208.266 155.256C203.698 162.36 195.306 165.017 187.226 162.153C186.932 162.051 186.738 162.147 186.642 162.441C179.954 182.153 162.33 192.176 143.306 196.856C141.396 197.166 139.466 197.08 137.514 196.6L135.698 195.721C138.567 194.446 141.434 193.275 144.298 192.209C168.274 183.257 182.578 170.441 185.162 143.537C185.21 143.025 185.26 143.025 185.314 143.537C185.335 143.75 185.348 143.952 185.354 144.144C185.364 144.39 185.492 144.513 185.738 144.513H186.13C186.418 144.513 186.551 144.371 186.53 144.089L186.506 143.705L187.738 147.105L187.146 159.449C187.141 159.57 187.171 159.69 187.234 159.795C187.296 159.9 187.388 159.985 187.498 160.041C191.682 162.121 197.674 157.568 199.802 154.408C203.05 149.576 197.562 144.969 194.082 142.681C193.868 142.542 193.722 142.347 193.642 142.096L192.538 138.52C192.5 138.398 192.468 138.401 192.442 138.529C191.602 142.817 192.162 144.432 195.506 147.144C195.598 147.219 195.658 147.326 195.676 147.444C195.694 147.562 195.667 147.683 195.602 147.785C195.42 148.046 195.226 148.238 195.018 148.361C191.055 145.065 190.068 140.918 192.058 135.92C192.154 135.68 192.319 135.507 192.554 135.401L197.354 133.217Z" fill="#F18B5E"/>
<path d="M58.9294 133.2C66.3374 136.04 64.2414 145.504 58.3054 148.52C57.2761 149.907 57.1641 151.422 57.9694 153.064C60.7587 158.712 65.356 160.392 71.7614 158.104L72.2654 160.624C68.1747 162.848 63.9614 163.331 59.6254 162.072C58.2574 161.672 56.9694 160.56 55.4814 160.064L51.6974 157.16C48.9401 153.374 47.804 149.342 48.2894 145.064C48.5534 142.736 50.4974 138.216 52.1614 136.72C53.4574 135.568 55.1 134.568 57.0894 133.72C57.7454 133.758 58.3587 133.584 58.9294 133.2Z" fill="#F18B5E"/>
<path d="M57.0896 133.721C55.1003 134.569 53.4576 135.569 52.1616 136.721C50.4976 138.217 48.5536 142.737 48.2896 145.065C47.8043 149.342 48.9403 153.374 51.6976 157.161C44.2736 149.897 45.0176 135.577 57.0896 133.721Z" fill="#C8CD9C"/>
<path d="M221.002 133.825L223.322 136.329C221.578 137.843 220.45 138.07 219.938 137.009L218.738 136.481C218.487 136.369 218.487 136.265 218.738 136.169C219.762 135.774 220.516 134.993 221.002 133.825Z" fill="#C8CD9C"/>
<path d="M223.321 136.329C224.228 137.337 224.721 138.446 224.801 139.657C225.505 150.649 225.681 164.281 220.361 174.049C220.153 174.441 213.297 188.889 217.737 186.481C204.575 207.233 186.3 221.515 162.913 229.329L161.305 223.121C162.153 221.979 162.943 221.291 163.673 221.057C169.209 219.265 174.7 217.345 180.145 215.297C184.489 213.657 189.161 211.297 191.753 207.249C196.121 200.411 200.791 193.747 205.761 187.257C206.801 187.385 207.663 187.737 208.345 188.313C208.548 188.483 208.663 188.699 208.689 188.961L209.233 193.561C209.292 194.03 209.428 194.054 209.641 193.633C210.633 191.657 210.465 189.921 211.209 188.337C211.337 188.07 211.548 187.931 211.841 187.921C212.812 187.883 213.596 187.521 214.193 186.833C214.244 186.774 214.278 186.704 214.293 186.628C214.308 186.552 214.302 186.474 214.277 186.401C214.252 186.328 214.208 186.263 214.15 186.212C214.092 186.162 214.021 186.127 213.945 186.113L211.841 185.705C211.686 185.672 211.539 185.606 211.41 185.511C211.282 185.415 211.175 185.293 211.097 185.153L209.009 181.369C208.62 180.393 208.556 179.331 208.817 178.185C208.983 177.465 209.447 176.547 210.209 175.433C214.865 168.633 215.953 161.657 217.857 154.257C219.372 148.358 220.065 142.609 219.937 137.009C220.449 138.07 221.577 137.843 223.321 136.329Z" fill="#6DAF96"/>
<path d="M187.737 147.105C190.436 149.083 192.863 149.502 195.017 148.361C195.225 148.238 195.42 148.046 195.601 147.785C195.667 147.683 195.693 147.562 195.676 147.444C195.658 147.326 195.597 147.219 195.505 147.145C192.161 144.433 191.601 142.817 192.441 138.529C192.468 138.401 192.5 138.398 192.537 138.521L193.641 142.097C193.721 142.347 193.868 142.542 194.081 142.681C197.561 144.969 203.049 149.577 199.801 154.409C197.673 157.569 191.681 162.121 187.497 160.041C187.388 159.985 187.296 159.9 187.234 159.795C187.171 159.69 187.141 159.57 187.145 159.449L187.737 147.105Z" fill="#CF7253"/>
<path d="M101.058 156.089C96.6816 158.065 91.7137 156.089 90.4577 151.521C89.6737 148.681 91.5536 143.833 95.0496 143.649C95.204 143.641 95.3567 143.684 95.4835 143.773C95.6102 143.861 95.7039 143.99 95.7498 144.137C95.7956 144.285 95.791 144.444 95.7367 144.588C95.6823 144.733 95.5813 144.856 95.4496 144.937C94.639 145.438 94.2843 146.144 94.3856 147.056C94.414 147.308 94.5027 147.548 94.6442 147.758C94.7856 147.967 94.9756 148.14 95.198 148.26C95.4204 148.38 95.6685 148.445 95.9213 148.448C96.174 148.452 96.4239 148.394 96.6496 148.281C99.2576 146.977 99.2176 144.449 96.5936 143.297C90.6096 140.657 84.0976 145.241 83.0256 151.265C82.9456 151.435 82.8576 151.505 82.7616 151.473C80.8096 149.697 80.6283 147.686 82.2176 145.441C86.3856 139.545 94.2256 136.841 100.602 141.081C106.09 144.729 106.874 152.065 101.058 156.089ZM92.6201 147.06C92.6713 147.097 92.7346 147.116 92.8063 147.116C92.878 147.116 92.9567 147.097 93.038 147.06C93.1193 147.024 93.2015 146.97 93.28 146.902C93.3585 146.834 93.4317 146.753 93.4955 146.665C93.5592 146.576 93.6123 146.481 93.6516 146.385C93.6909 146.289 93.7157 146.194 93.7246 146.105C93.7335 146.016 93.7263 145.935 93.7034 145.867C93.6805 145.8 93.6424 145.746 93.5912 145.709C93.54 145.672 93.4767 145.653 93.405 145.653C93.3333 145.653 93.2546 145.672 93.1733 145.709C93.092 145.745 93.0098 145.799 92.9313 145.867C92.8528 145.935 92.7796 146.016 92.7158 146.104C92.652 146.193 92.599 146.288 92.5597 146.384C92.5204 146.48 92.4956 146.575 92.4867 146.664C92.4778 146.753 92.485 146.834 92.5079 146.902C92.5308 146.97 92.5689 147.023 92.6201 147.06Z" fill="#2D0909"/>
<path d="M173.505 152.208C172.345 139.816 155.657 140.544 158.681 147.208C158.778 147.421 158.92 147.61 159.098 147.762C159.275 147.913 159.484 148.024 159.709 148.086C159.935 148.147 160.171 148.159 160.401 148.119C160.631 148.08 160.85 147.99 161.041 147.856L162.297 146.977L163.529 145.505L165.113 147.153C164.079 151.243 161.569 152.769 157.585 151.729C157.379 151.673 157.16 151.69 156.965 151.777C156.77 151.863 156.61 152.013 156.512 152.203C156.414 152.392 156.384 152.61 156.426 152.819C156.469 153.028 156.581 153.216 156.745 153.353L157.913 154.336C158.175 154.555 158.22 154.811 158.049 155.105L157.353 156.344C155.156 155.678 153.524 153.843 152.457 150.841C151.601 137.497 167.785 136.624 174.041 145.656C175.689 148.032 175.169 150.112 173.505 152.208Z" fill="#220509"/>
<path d="M173.506 152.208C174.146 158.744 160.658 158.424 157.106 157.16C153.447 155.854 151.898 153.747 152.458 150.84C153.524 153.843 155.156 155.678 157.354 156.344C164.33 158.92 168.882 151.032 165.946 145.72C164.826 143.712 162.362 142.632 160.506 144.408C159.554 144.952 159.066 146.816 160.458 146.904C160.514 146.91 160.57 146.899 160.621 146.873C160.672 146.848 160.714 146.809 160.745 146.761C160.775 146.712 160.792 146.656 160.794 146.598C160.795 146.541 160.781 146.483 160.754 146.432C160.204 145.446 160.25 144.851 160.89 144.648C161.578 145.032 162.047 145.808 162.298 146.976L161.042 147.856C160.85 147.99 160.631 148.08 160.401 148.119C160.171 148.159 159.935 148.147 159.71 148.086C159.485 148.024 159.276 147.913 159.098 147.762C158.92 147.61 158.778 147.421 158.682 147.208C155.658 140.544 172.346 139.816 173.506 152.208Z" fill="#F8F5F3"/>
<path d="M101.057 156.089C101.356 156.073 101.516 156.241 101.537 156.593C101.544 156.694 101.518 156.795 101.463 156.881C101.408 156.966 101.328 157.03 101.233 157.065C96.6174 158.673 89.9934 156.745 85.7614 154.881C84.2254 154.081 83.3134 152.875 83.0254 151.265C84.0974 145.241 90.6094 140.657 96.5934 143.297C99.2174 144.449 99.2574 146.977 96.6494 148.281C96.4237 148.394 96.1738 148.452 95.921 148.448C95.6683 148.445 95.4201 148.38 95.1978 148.26C94.9754 148.14 94.7854 147.967 94.6439 147.758C94.5025 147.548 94.4138 147.308 94.3854 147.057C94.284 146.145 94.6387 145.438 95.4494 144.937C95.5811 144.856 95.6821 144.733 95.7364 144.588C95.7908 144.444 95.7954 144.285 95.7495 144.137C95.7037 143.99 95.61 143.861 95.4832 143.773C95.3564 143.684 95.2038 143.641 95.0494 143.649C91.5534 143.833 89.6734 148.681 90.4574 151.521C91.7134 156.089 96.6814 158.065 101.057 156.089Z" fill="#F8F5F3"/>
<path d="M157.353 156.344L158.049 155.104C158.22 154.811 158.175 154.555 157.913 154.336L156.745 153.352C156.581 153.216 156.469 153.028 156.426 152.819C156.384 152.61 156.414 152.392 156.512 152.203C156.61 152.013 156.77 151.863 156.965 151.777C157.161 151.69 157.379 151.673 157.585 151.728C161.569 152.768 164.079 151.243 165.113 147.152C165.625 146.064 165.097 145.515 163.529 145.504L162.297 146.976C162.047 145.808 161.577 145.032 160.889 144.648C160.916 144.595 160.788 144.515 160.505 144.408C162.361 142.632 164.825 143.712 165.945 145.72C168.881 151.032 164.329 158.92 157.353 156.344Z" fill="#4C1813"/>
<path d="M160.506 144.408C160.788 144.515 160.916 144.595 160.89 144.648C160.25 144.851 160.204 145.446 160.754 146.432C160.781 146.483 160.795 146.541 160.794 146.598C160.792 146.656 160.775 146.712 160.745 146.761C160.714 146.809 160.672 146.848 160.621 146.873C160.571 146.899 160.514 146.91 160.458 146.905C159.066 146.817 159.554 144.952 160.506 144.408Z" fill="#356E6E"/>
<path d="M165.114 147.152L163.53 145.504C165.098 145.515 165.626 146.064 165.114 147.152Z" fill="#73382A"/>
<path d="M92.7157 146.104C92.4476 146.478 92.4047 146.905 92.62 147.06C92.8353 147.215 93.2272 147.038 93.4953 146.665C93.7635 146.291 93.8063 145.864 93.591 145.709C93.3758 145.554 92.9839 145.731 92.7157 146.104Z" fill="#A2825D"/>
<path d="M29.6814 147.753C29.7329 147.614 29.8364 147.502 29.9694 147.441C31.0307 146.993 31.4787 147.313 31.3134 148.401C31.2972 148.51 31.257 148.615 31.1957 148.707C31.1344 148.799 31.0534 148.877 30.9586 148.934C30.8639 148.991 30.7576 149.027 30.6474 149.039C30.5373 149.05 30.426 149.037 30.3214 149.001C29.6761 148.771 29.4627 148.355 29.6814 147.753Z" fill="#A5CBA5"/>
<path d="M83.0254 151.264C83.3134 152.875 84.2254 154.08 85.7614 154.88C84.2467 154.896 83.2467 153.76 82.7614 151.472C82.8574 151.504 82.9454 151.435 83.0254 151.264Z" fill="#D3A168"/>
<path d="M173.025 159.008C173.085 158.959 173.153 158.923 173.227 158.9C173.3 158.878 173.378 158.87 173.454 158.877C173.531 158.885 173.605 158.907 173.673 158.943C173.741 158.98 173.801 159.029 173.849 159.088L174.137 159.44C174.332 159.676 174.498 159.931 174.629 160.189C174.759 160.448 174.849 160.705 174.895 160.947C174.941 161.188 174.942 161.409 174.897 161.597C174.852 161.785 174.763 161.935 174.633 162.04L174.449 162.192C174.19 162.404 173.787 162.419 173.328 162.233C172.869 162.047 172.392 161.676 172.001 161.2L171.705 160.848C171.656 160.789 171.62 160.721 171.597 160.647C171.575 160.574 171.567 160.496 171.574 160.42C171.582 160.343 171.604 160.269 171.64 160.201C171.677 160.133 171.726 160.073 171.785 160.024L173.025 159.008Z" fill="#FCC093"/>
<path d="M55.4814 160.064C56.9694 160.56 58.2574 161.672 59.6254 162.072C63.9614 163.331 68.1748 162.848 72.2654 160.624C78.5294 182.728 95.2174 193.8 116.977 197.24C117.153 199.043 116.689 199.824 115.585 199.584C108.359 202.774 102.985 208.198 99.4654 215.856C97.4068 220.331 95.9934 224.675 95.2254 228.888C95.2212 228.923 95.2284 228.958 95.2459 228.987C95.2634 229.016 95.2901 229.038 95.3214 229.048C95.3908 229.07 95.4601 229.091 95.5294 229.112C95.7374 229.176 95.8601 229.102 95.8974 228.888C97.7054 218.792 102.825 208.472 111.329 202.416C112.044 202.79 112.727 202.699 113.377 202.144C113.601 201.952 113.833 201.939 114.073 202.104C114.431 202.355 114.759 202.504 115.057 202.552L115.233 206.728C115.238 206.865 115.285 206.996 115.368 207.106C115.451 207.216 115.566 207.299 115.697 207.344C116.801 207.718 117.663 207.416 118.281 206.44C118.37 206.298 118.505 206.182 118.664 206.111C118.823 206.039 118.996 206.017 119.155 206.048C119.315 206.079 119.45 206.16 119.54 206.28C119.63 206.399 119.668 206.549 119.649 206.704C119.447 208.496 120.135 209.64 121.713 210.136C121.996 210.227 122.204 210.139 122.337 209.872L123.721 207.12C123.751 207.06 123.795 207.009 123.85 206.97C123.904 206.931 123.968 206.906 124.034 206.897C124.1 206.889 124.168 206.896 124.231 206.92C124.293 206.943 124.349 206.982 124.393 207.032L127.225 210.304C127.412 210.518 127.659 210.67 127.933 210.741C128.207 210.813 128.497 210.801 128.764 210.706C129.031 210.611 129.264 210.438 129.431 210.21C129.599 209.981 129.695 209.708 129.705 209.424C129.737 208.502 130.033 207.542 130.593 206.544L130.681 206.344C130.788 206.104 130.887 206.107 130.977 206.352C131.532 207.878 132.449 209.142 133.729 210.144C133.852 210.241 134.003 210.296 134.16 210.3C134.317 210.305 134.472 210.259 134.601 210.168C136.025 209.187 136.775 207.814 136.849 206.048C136.855 205.904 136.912 205.766 137.01 205.66C137.108 205.554 137.241 205.486 137.384 205.468C137.528 205.451 137.673 205.485 137.793 205.565C137.914 205.645 138.002 205.765 138.041 205.904C138.319 206.854 139.087 207.512 140.345 207.88C141.071 208.584 141.855 209.051 142.697 209.28C142.812 209.311 142.919 209.367 143.011 209.444C143.102 209.522 143.175 209.619 143.225 209.728C143.711 210.806 144.007 211.8 144.113 212.712C144.812 218.824 145.279 225.779 145.513 233.576L134.209 235.168C124.849 235.654 115.801 234.968 107.065 233.112C107.039 228.211 107.644 223.411 108.881 218.712C109.031 218.152 108.972 218.131 108.705 218.648C106.449 223.016 104.927 227.63 104.137 232.488C72.7454 226.44 46.5374 206.2 31.8254 178.008C32.0228 177.955 32.1694 177.899 32.2654 177.84C32.3881 177.771 32.4974 177.784 32.5934 177.88L32.8574 178.152C32.9961 178.286 32.9694 178.368 32.7774 178.4L32.4974 178.448C32.4816 178.45 32.4672 178.456 32.4563 178.467C32.4454 178.478 32.4385 178.493 32.4367 178.509C32.4349 178.525 32.4383 178.542 32.4464 178.557C32.4544 178.572 32.4667 178.584 32.4814 178.592L33.5054 179.08C33.7668 179.208 33.8788 179.128 33.8414 178.84L33.7134 177.792C33.7066 177.732 33.7178 177.67 33.7455 177.616C33.7733 177.562 33.8163 177.517 33.869 177.487C33.9217 177.458 33.9816 177.445 34.0409 177.451C34.1002 177.457 34.1562 177.481 34.2014 177.52L34.6974 177.928C34.9374 178.126 35.1054 178.075 35.2014 177.776L35.3534 177.312C35.4441 177.019 35.6441 176.88 35.9534 176.896C36.7268 176.95 37.2041 176.632 37.3854 175.944C37.4251 175.796 37.5203 175.668 37.6513 175.588C37.7823 175.508 37.9391 175.481 38.0894 175.512C40.8014 176.064 41.6414 173.696 42.4254 171.496C42.5161 171.235 42.6734 171.03 42.8974 170.88C44.9694 169.456 44.3694 167.656 45.5694 166.208C46.8974 164.624 48.9534 164.424 50.3854 163.344C51.2601 162.688 52.1214 162.022 52.9694 161.344C53.1401 161.206 53.3321 161.168 53.5454 161.232C56.3774 162.102 57.0228 161.712 55.4814 160.064Z" fill="#52A091"/>
<path d="M119.806 180.312C119.102 180.477 118.809 180.76 118.926 181.16L101.886 177.048C101.598 176.978 101.481 176.797 101.534 176.504L101.686 175.752C101.761 175.341 101.993 175.218 102.382 175.384C107.683 177.618 113.491 179.261 119.806 180.312Z" fill="#CF7253"/>
<path d="M141.713 181.969C140.865 181.446 139.964 181.158 139.009 181.104C138.743 181.088 138.508 180.993 138.305 180.817C137.217 179.841 135.993 179.43 134.633 179.584C130.745 180.032 127.689 179.825 126.289 184.425C120.721 183.713 112.721 183.568 103.921 176.512C103.804 176.112 108.321 176.912 114.369 177.976C126.321 178.856 138.425 178.062 150.681 175.593C151.103 175.507 151.153 175.611 150.833 175.905C148.14 178.369 145.1 180.39 141.713 181.969Z" fill="#2D0909"/>
<path d="M141.713 181.968C136.828 184.731 131.687 185.55 126.289 184.424C127.689 179.824 130.745 180.032 134.633 179.584C135.993 179.43 137.217 179.84 138.305 180.816C138.508 180.992 138.743 181.088 139.009 181.104C139.964 181.158 140.865 181.446 141.713 181.968Z" fill="#932318"/>
<path d="M205.761 187.257C203.393 186.654 204.268 186.283 208.385 186.145C208.716 186.134 208.887 185.963 208.897 185.633L209.009 181.369L211.097 185.153C211.175 185.293 211.282 185.415 211.41 185.511C211.539 185.606 211.686 185.672 211.841 185.705L213.945 186.113C214.021 186.127 214.092 186.162 214.15 186.212C214.208 186.263 214.252 186.328 214.277 186.401C214.302 186.474 214.308 186.552 214.293 186.628C214.278 186.704 214.244 186.774 214.193 186.833C213.596 187.521 212.812 187.883 211.841 187.921C211.548 187.931 211.337 188.07 211.209 188.337C210.465 189.921 210.633 191.657 209.641 193.633C209.428 194.054 209.292 194.03 209.233 193.561L208.689 188.961C208.663 188.699 208.548 188.483 208.345 188.313C207.663 187.737 206.801 187.385 205.761 187.257Z" fill="#C8CD9C"/>
<path d="M184.881 193.617L184.937 190.881C184.934 190.79 184.965 190.702 185.023 190.634C185.081 190.565 185.164 190.521 185.253 190.509C185.343 190.498 185.433 190.521 185.506 190.574C185.58 190.626 185.631 190.704 185.649 190.793L186.513 193.929C186.583 194.174 186.732 194.35 186.961 194.457L187.841 194.889C187.902 194.919 187.954 194.965 187.992 195.021C188.03 195.077 188.053 195.142 188.058 195.209C188.064 195.275 188.052 195.342 188.024 195.403C187.996 195.463 187.952 195.515 187.897 195.553C187.465 195.857 186.98 195.969 186.441 195.889C185.855 195.809 185.692 196.035 185.953 196.569C186.279 197.235 186.223 197.875 185.785 198.489C185.753 198.535 185.706 198.57 185.652 198.588C185.598 198.605 185.54 198.605 185.486 198.587C185.432 198.569 185.385 198.534 185.353 198.488C185.32 198.441 185.304 198.385 185.305 198.329C185.337 197.369 185.159 196.475 184.769 195.649C184.707 195.517 184.604 195.41 184.476 195.342C184.348 195.274 184.201 195.25 184.057 195.273C183.353 195.39 182.673 195.321 182.017 195.065C181.963 195.043 181.916 195.004 181.886 194.954C181.855 194.904 181.841 194.845 181.846 194.787C181.852 194.728 181.876 194.673 181.916 194.629C181.955 194.585 182.008 194.556 182.065 194.545L184.473 194.097C184.74 194.049 184.876 193.889 184.881 193.617Z" fill="#C8CD9C"/>
<path d="M135.698 195.721L137.514 196.601C135.727 201.081 131.98 202.934 126.274 202.161C123.164 201.739 121.45 199.95 121.13 196.793L135.698 195.721Z" fill="#CF7253"/>
<path d="M137.514 196.6C139.466 197.08 141.396 197.166 143.306 196.857C143.946 196.681 144.167 197.115 143.97 198.161C143.916 198.433 144.01 198.638 144.25 198.776C154.386 204.68 158.026 212.481 161.306 223.121L162.914 229.328L153.138 232.009C153.081 232.025 153.021 232.028 152.963 232.018C152.905 232.009 152.849 231.986 152.799 231.952C152.75 231.917 152.708 231.873 152.677 231.82C152.645 231.768 152.625 231.709 152.618 231.649C152.079 226.87 151.002 222.214 149.386 217.68C149.358 217.613 149.307 217.558 149.242 217.525C149.177 217.492 149.102 217.483 149.032 217.5C148.961 217.518 148.899 217.56 148.856 217.62C148.814 217.679 148.795 217.752 148.802 217.825C149.495 222.646 149.791 227.488 149.69 232.352C149.679 232.651 149.53 232.827 149.242 232.88L145.514 233.576C145.279 225.779 144.812 218.825 144.114 212.713C144.007 211.801 143.711 210.806 143.226 209.728C143.176 209.619 143.102 209.522 143.011 209.444C142.92 209.367 142.813 209.311 142.698 209.28C141.855 209.051 141.071 208.584 140.346 207.88C142.77 207.88 142.698 203.489 142.786 201.721C142.788 201.646 142.769 201.573 142.73 201.51C142.69 201.447 142.633 201.396 142.566 201.366C142.498 201.335 142.423 201.325 142.35 201.337C142.276 201.348 142.208 201.382 142.154 201.433C138.938 204.451 134.986 205.918 130.298 205.833C125.578 206.209 119.114 205.833 116.306 201.521C116.14 201.265 115.922 201.206 115.65 201.345C115.314 201.515 115.116 201.918 115.058 202.552C114.759 202.504 114.431 202.355 114.074 202.104C113.834 201.939 113.602 201.953 113.378 202.145C112.727 202.699 112.044 202.79 111.33 202.417C113.303 201.627 114.722 200.683 115.586 199.585C116.69 199.825 117.154 199.043 116.978 197.241L121.13 196.793C121.45 199.95 123.164 201.739 126.274 202.161C131.98 202.934 135.727 201.08 137.514 196.6Z" fill="#48928C"/>
<path d="M115.585 199.584C114.721 200.683 113.303 201.627 111.329 202.416C102.825 208.472 97.7054 218.792 95.8974 228.888C95.8601 229.102 95.7374 229.176 95.5294 229.112C95.4601 229.091 95.3907 229.07 95.3214 229.048C95.2901 229.038 95.2634 229.016 95.2459 228.987C95.2284 228.958 95.2212 228.923 95.2254 228.888C95.9934 224.675 97.4067 220.331 99.4654 215.856C102.985 208.198 108.359 202.774 115.585 199.584Z" fill="#AECD9E"/>
<path d="M130.297 205.833L130.593 206.545C130.033 207.542 129.737 208.502 129.705 209.425C129.695 209.708 129.599 209.981 129.431 210.21C129.264 210.438 129.031 210.611 128.764 210.706C128.497 210.801 128.207 210.813 127.933 210.742C127.659 210.67 127.412 210.518 127.225 210.305L124.393 207.033C124.349 206.982 124.293 206.944 124.231 206.92C124.168 206.896 124.1 206.889 124.034 206.897C123.967 206.906 123.904 206.931 123.85 206.97C123.795 207.009 123.751 207.061 123.721 207.121L122.337 209.873C122.204 210.139 121.996 210.227 121.713 210.137C120.135 209.641 119.447 208.497 119.649 206.705C119.668 206.549 119.63 206.399 119.54 206.28C119.45 206.16 119.315 206.079 119.155 206.048C118.996 206.017 118.823 206.039 118.664 206.111C118.505 206.182 118.37 206.298 118.281 206.441C117.663 207.417 116.801 207.718 115.697 207.345C115.566 207.299 115.451 207.216 115.368 207.106C115.285 206.996 115.238 206.865 115.233 206.729L115.057 202.553C115.116 201.918 115.313 201.515 115.649 201.345C115.921 201.206 116.14 201.265 116.305 201.521C119.113 205.833 125.577 206.209 130.297 205.833Z" fill="#F1E8B9"/>
<path d="M140.346 207.88C139.087 207.512 138.319 206.854 138.042 205.904C138.002 205.765 137.914 205.645 137.793 205.565C137.673 205.485 137.528 205.451 137.384 205.468C137.241 205.486 137.108 205.554 137.01 205.66C136.912 205.766 136.855 205.904 136.85 206.048C136.775 207.814 136.026 209.187 134.602 210.168C134.472 210.259 134.317 210.305 134.16 210.3C134.003 210.296 133.852 210.241 133.73 210.144C132.45 209.142 131.532 207.878 130.978 206.352C130.887 206.107 130.788 206.104 130.682 206.344L130.594 206.544L130.298 205.832C134.986 205.918 138.938 204.451 142.154 201.432C142.208 201.382 142.276 201.348 142.35 201.337C142.423 201.325 142.498 201.335 142.566 201.365C142.633 201.396 142.69 201.446 142.729 201.51C142.769 201.573 142.788 201.646 142.786 201.72C142.698 203.488 142.77 207.88 140.346 207.88Z" fill="#C8CD9C"/>
<path d="M107.065 233.113L104.137 232.489C104.927 227.63 106.449 223.017 108.705 218.649C108.972 218.131 109.031 218.153 108.881 218.713C107.644 223.411 107.039 228.211 107.065 233.113Z" fill="#397C7B"/>
</svg>
