<svg width="256" height="256" viewBox="0 0 256 256" fill="none" xmlns="http://www.w3.org/2000/svg">
<path d="M61.9675 42.0117C51.4342 50.2891 42.9622 60.1984 36.5515 71.7397" stroke="#739484" stroke-width="2"/>
<path d="M36.5516 71.7398C30.3169 82.7692 26.0609 94.5105 23.7836 106.964" stroke="#638979" stroke-width="2"/>
<path d="M23.7836 106.964C20.4076 124.553 20.9462 141.897 25.3996 158.996" stroke="#497C68" stroke-width="2"/>
<path d="M25.3997 158.996C28.5143 170.041 33.1917 180.316 39.4317 189.82" stroke="#406F5B" stroke-width="2"/>
<path d="M39.4316 189.82C52.541 209.27 70.1223 223.009 92.1756 231.036" stroke="#3B695A" stroke-width="2"/>
<path d="M92.1755 231.036L94.3515 231.476" stroke="#94936F" stroke-width="2"/>
<path d="M94.3516 231.476L100.528 233.076" stroke="#717D43" stroke-width="2"/>
<path d="M100.528 233.076C100.853 233.481 101.525 233.532 102.544 233.228" stroke="#71723D" stroke-width="2"/>
<path d="M102.544 233.228C103.112 234.996 121.832 236.396 123.072 236.46" stroke="#78864E" stroke-width="2"/>
<path d="M123.072 236.46C132.181 236.716 141.245 235.985 150.264 234.268" stroke="#717D43" stroke-width="2"/>
<path d="M150.264 234.268C150.626 234.284 150.909 234.007 151.112 233.436" stroke="#71723D" stroke-width="2"/>
<path d="M151.112 233.436L153.848 233.316" stroke="#452B32" stroke-width="2"/>
<path d="M153.848 233.316L163.944 230.58" stroke="#71723D" stroke-width="2"/>
<path d="M163.944 230.58C164.035 230.233 164.152 230.201 164.296 230.484" stroke="#94936F" stroke-width="2"/>
<path d="M164.296 230.484C184.992 224.084 204.064 207.716 216.184 190.164" stroke="#396451" stroke-width="2"/>
<path d="M216.184 190.164C225.069 176.782 230.632 162.062 232.872 146.004" stroke="#3A6954" stroke-width="2"/>
<path d="M232.872 146.004C236.691 118.745 231.715 93.3932 217.944 69.9478" stroke="#41755E" stroke-width="2"/>
<path d="M217.943 69.9478C205.359 49.8278 186.807 33.8438 164.503 25.6998" stroke="#4A816B" stroke-width="2"/>
<path d="M164.504 25.6998C148.29 19.8812 131.605 17.9692 114.448 19.9638" stroke="#588877" stroke-width="2"/>
<path d="M114.448 19.9639C108.16 20.7532 102.042 22.1399 96.0957 24.1239" stroke="#648E7C" stroke-width="2"/>
<path d="M96.0955 24.1238C83.5249 28.1078 72.1489 34.0705 61.9675 42.0118" stroke="#749987" stroke-width="2"/>
<path d="M164.504 25.6998C163.808 29.5798 160.392 32.3558 159.056 35.6198C158.956 35.8716 158.793 36.0946 158.584 36.2678C156.253 38.1825 155.538 40.1345 156.44 42.1238" stroke="#75B185" stroke-width="2"/>
<path d="M156.439 42.1238C141.911 36.5078 126.847 31.9078 111.471 29.3318" stroke="#506354" stroke-width="2"/>
<path d="M111.472 29.3318C111.344 29.1505 111.269 29.1131 111.248 29.2198" stroke="#6B7B64" stroke-width="2"/>
<path d="M111.248 29.2199C108.352 24.1319 115.344 24.3799 114.448 19.9639" stroke="#90BE95" stroke-width="2"/>
<path d="M111.248 29.2199L101.144 28.5879" stroke="#778169" stroke-width="2"/>
<path d="M101.144 28.5878L101.384 28.4518C101.494 28.3876 101.581 28.2914 101.635 28.1761C101.688 28.0607 101.705 27.9317 101.684 27.8064C101.662 27.6811 101.602 27.5654 101.513 27.4749C101.424 27.3843 101.309 27.3233 101.184 27.2998L97.2397 26.5718C96.9677 26.5238 96.7917 26.3692 96.7117 26.1078L96.0957 24.1238" stroke="#ACCFA5" stroke-width="2"/>
<path d="M101.144 28.5879C86.9596 30.2039 79.4636 40.2279 76.9596 53.7639" stroke="#878C74" stroke-width="2"/>
<path d="M76.9597 53.7639L76.0317 59.4679C75.989 59.7399 75.837 59.8359 75.5757 59.7559L75.0797 59.5959" stroke="#656F5E" stroke-width="2"/>
<path d="M75.0797 59.5958C64.8157 57.3878 52.5117 57.5718 45.8157 66.7878" stroke="#818470" stroke-width="2"/>
<path d="M45.8154 66.7879C44.5674 68.9479 43.9168 70.9532 43.8634 72.8039C43.6821 79.1079 43.8448 86.3586 44.3514 94.5559" stroke="#656F5E" stroke-width="2"/>
<path d="M44.3516 94.5558C43.4503 94.5078 43.0956 93.4625 43.2876 91.4198C43.3196 91.0892 43.173 90.9612 42.8477 91.0358C40.4477 91.5905 38.1196 91.4865 35.8636 90.7238" stroke="#9FC9A0" stroke-width="2"/>
<path d="M35.8635 90.7238L34.8715 90.3798C34.6048 90.2838 34.5168 90.1024 34.6075 89.8358C36.0555 85.5078 37.6235 81.6998 42.0315 80.0198C42.3142 79.9078 42.4475 79.7024 42.4315 79.4038C42.2982 77.0038 42.4102 74.6251 42.7675 72.2678C42.8795 71.5424 42.5782 71.2678 41.8635 71.4438C41.3408 71.5664 40.6822 71.3984 39.8875 70.9398C39.7914 70.8843 39.6844 70.8493 39.5729 70.8369C39.4615 70.8245 39.348 70.835 39.2395 70.8678L36.5515 71.7398" stroke="#ACCFA5" stroke-width="2"/>
<path d="M217.944 69.9478L215.296 72.5078C215.104 72.6945 214.874 72.7692 214.608 72.7318L212.384 72.4598C212.293 72.4492 212.256 72.3985 212.272 72.3078L212.296 72.0998C212.344 71.7638 212.248 71.7158 212.008 71.9558L211.352 72.6278" stroke="#5F9E6C" stroke-width="2"/>
<path d="M211.352 72.6279C210.749 69.3852 209.237 66.9932 206.816 65.4519C196.352 58.8119 184.488 52.9959 171.224 48.0039" stroke="#3B5742" stroke-width="2"/>
<path d="M171.223 48.0038L156.439 42.1238" stroke="#425C49" stroke-width="2"/>
<path d="M111.472 29.3318C111.376 29.3905 111.309 29.4732 111.272 29.5798C111.186 29.8465 111.277 30.0198 111.544 30.0998C113.336 30.6225 115.152 31.0038 116.992 31.2438C117.344 31.2865 117.509 31.4838 117.488 31.8358C117.477 32.0598 117.373 32.2438 117.176 32.3878C117.016 32.5105 116.834 32.5558 116.632 32.5238C112.546 31.7878 108.426 31.5745 104.272 31.8838C104.015 31.9048 103.758 31.8579 103.528 31.7478C102.669 31.3478 101.781 31.2678 100.864 31.5078C100.796 31.5259 100.737 31.5654 100.694 31.6205C100.651 31.6755 100.627 31.7431 100.626 31.8128C100.625 31.8825 100.647 31.9507 100.689 32.0068C100.73 32.063 100.789 32.1041 100.856 32.1238C107.16 33.8838 113.864 33.7878 119.648 35.1238C122.842 35.8652 125.901 36.7158 128.824 37.6758C128.974 37.713 129.104 37.8084 129.184 37.9412C129.264 38.074 129.289 38.2332 129.252 38.3838C129.214 38.5345 129.119 38.6642 128.986 38.7445C128.853 38.8247 128.694 38.849 128.544 38.8118C109.64 35.5558 90.5516 40.8598 77.9596 55.4198" stroke="#372628" stroke-width="2"/>
<path d="M77.9596 55.4198C77.5063 54.2731 77.1729 53.7211 76.9596 53.7638" stroke="#302122" stroke-width="2"/>
<path d="M171.224 48.0038C170.792 47.8971 170.506 48.0011 170.368 48.3158C170.256 48.5771 170.333 48.7531 170.6 48.8438L171.136 49.0278C171.285 49.0811 171.336 49.1851 171.288 49.3398C171.037 50.1238 170.648 50.8065 170.12 51.3878C169.842 51.6918 169.693 51.6411 169.672 51.2358C169.666 51.1291 169.669 51.0225 169.68 50.9158C169.685 50.8687 169.676 50.8211 169.656 50.7783C169.636 50.7356 169.604 50.6993 169.564 50.6736C169.524 50.6479 169.478 50.6337 169.431 50.6327C169.383 50.6317 169.336 50.6438 169.296 50.6678C167.914 51.4198 166.52 52.1398 165.112 52.8278C163.616 53.5558 161.528 53.7558 159.896 55.0358C159.712 55.183 159.492 55.2845 159.256 55.3318C157.68 55.6198 156.44 56.7958 155.288 57.2438C153.458 57.9531 151.658 58.7238 149.888 59.5558C148.216 60.3398 145.832 61.0278 143.976 62.2118C142.104 63.4038 140.232 63.8278 138.384 64.9958C138.361 65.0103 138.339 65.0247 138.323 65.0365C138.307 65.0482 138.297 65.0565 138.296 65.0598L138.4 65.2438C138.437 65.3185 138.418 65.3745 138.344 65.4118L132.992 67.8358C132.741 67.9478 132.48 67.9985 132.208 67.9878L130.688 67.9238C130.405 67.9078 130.186 68.0198 130.032 68.2598C129.322 69.3531 128.328 70.1931 127.048 70.7798C126.829 70.8811 126.6 70.9345 126.36 70.9398C124.925 70.9718 123.821 71.6091 123.048 72.8518C122.98 72.9587 122.89 73.0488 122.783 73.1153C122.676 73.1819 122.556 73.2231 122.432 73.2358C121.504 73.3105 120.525 73.7051 119.496 74.4198C118.136 75.3531 116.029 76.0891 113.176 76.6278C112.909 76.6811 112.682 76.8065 112.496 77.0038C111.594 77.9425 110.389 78.2651 108.88 77.9718C104.138 77.0385 99.8316 75.5798 95.9596 73.5958C88.0636 69.5478 79.6956 65.1398 77.9596 55.4198" stroke="#150912" stroke-width="2"/>
<path d="M211.352 72.6277C211.149 74.4997 211.192 75.7451 211.48 76.3637" stroke="#324B35" stroke-width="2"/>
<path d="M211.479 76.3637C210.098 97.0943 208.826 113.974 207.663 127.004C207.567 128.065 207.237 129.35 206.671 130.86" stroke="#2B3F2B" stroke-width="2"/>
<path d="M206.672 130.86C201.178 127.628 196.133 128.468 191.536 133.38" stroke="#855F35" stroke-width="2"/>
<path d="M191.535 133.38C189.247 136.174 187.301 139.337 185.696 142.868C185.685 142.893 185.665 142.913 185.639 142.924C185.614 142.934 185.585 142.934 185.559 142.924C185.534 142.913 185.514 142.893 185.503 142.867C185.493 142.842 185.493 142.813 185.503 142.788C186.511 139.948 187.784 137.612 187.448 134.556C186.16 122.964 182.4 110.78 179.096 99.5317C179.021 99.2757 178.85 99.137 178.583 99.1157C161.021 97.6437 143.602 95.177 126.328 91.7157C113.4 89.129 101.077 84.8224 89.3595 78.7957C89.1035 78.6624 88.9142 78.7263 88.7915 78.9877L85.3435 86.5557" stroke="#85512E" stroke-width="2"/>
<path d="M85.3435 86.5559C80.1221 98.3532 75.3274 110.313 70.9594 122.436C69.5034 126.479 68.7008 129.839 68.5514 132.516C68.3168 136.713 68.8074 141.023 70.0234 145.444" stroke="#866042" stroke-width="2"/>
<path d="M70.0237 145.444C68.1091 138.697 65.0771 133.782 60.9277 130.7" stroke="#855C3A" stroke-width="2"/>
<path d="M60.9277 130.7C55.8131 128.006 51.3411 128.689 47.5117 132.748" stroke="#866F49" stroke-width="2"/>
<path d="M47.5116 132.748L45.3916 109.476" stroke="#3B5742" stroke-width="2"/>
<path d="M45.3916 109.476L44.3516 94.5559" stroke="#495E4E" stroke-width="2"/>
<path d="M45.8155 66.7879L44.9675 70.7319" stroke="#2B191E" stroke-width="2"/>
<path d="M44.9675 70.7317L44.9515 77.0117C44.9515 77.4011 45.1115 77.4837 45.4315 77.2597C54.1942 71.0677 63.9595 67.5744 74.7275 66.7797C75.0849 66.7531 75.1729 66.5851 74.9915 66.2757C73.0075 62.8597 69.4315 62.2917 65.7995 62.1717C65.6741 62.1695 65.5522 62.1265 65.4516 62.0489C65.3509 61.9712 65.2767 61.863 65.2395 61.7397C65.1275 61.3877 65.2102 60.9504 65.4875 60.4277" stroke="#1E0F16" stroke-width="2"/>
<path d="M65.4875 60.4277C69.1622 61.4464 72.3596 61.169 75.0796 59.5957" stroke="#2B191E" stroke-width="2"/>
<path d="M65.4875 60.4279C60.9995 59.8039 55.5995 61.3959 52.0475 64.2519C50.9595 65.1266 49.8902 66.0119 48.8395 66.9079C48.6551 67.0661 48.5078 67.2598 48.4075 67.4759L45.6795 73.1799C45.6505 73.238 45.6032 73.2849 45.5448 73.3134C45.4865 73.3419 45.4204 73.3505 45.3568 73.3377C45.2931 73.325 45.2354 73.2917 45.1925 73.2429C45.1497 73.1942 45.124 73.1327 45.1195 73.0679L44.9675 70.7319" stroke="#3A2328" stroke-width="2"/>
<path d="M35.8637 90.7238L34.8797 92.0678C34.693 92.3185 34.709 92.5558 34.9277 92.7798C37.8077 95.6332 39.1383 98.2678 38.9197 100.684" stroke="#90BE95" stroke-width="2"/>
<path d="M38.9196 100.684C35.7036 103.66 32.5782 106.012 29.5436 107.74C29.3302 107.862 29.1196 107.86 28.9116 107.732C27.4982 106.878 26.2502 106.958 25.1676 107.972C25.0777 108.057 24.9673 108.117 24.847 108.147C24.7266 108.177 24.6005 108.174 24.4806 108.141C24.3608 108.107 24.2514 108.043 24.1629 107.954C24.0744 107.866 24.0099 107.756 23.9756 107.636L23.7836 106.964" stroke="#82B78A" stroke-width="2"/>
<path d="M232.872 146.004C232.701 145.972 232.546 146.044 232.408 146.22C232.274 146.396 232.112 146.425 231.92 146.308C229.68 144.9 229.4 129.796 229.12 127.692C227.576 115.964 225.168 104.068 220.608 93.2517C218.304 87.785 215.261 82.1557 211.48 76.3637" stroke="#4F8655" stroke-width="2"/>
<path d="M164.296 230.484C164.29 230.334 164.333 230.209 164.424 230.108C164.552 229.964 164.6 229.796 164.568 229.604C162.272 216.292 158.8 200.428 143.048 197.604" stroke="#A3AA69" stroke-width="2"/>
<path d="M143.048 197.604C140.536 196.495 137.648 195.913 134.384 195.86" stroke="#808837" stroke-width="2"/>
<path d="M134.384 195.86C133.541 195.71 133.245 194.652 133.496 192.684" stroke="#A2823E" stroke-width="2"/>
<path d="M133.496 192.684V186.564" stroke="#9B7140" stroke-width="2"/>
<path d="M133.496 186.564C155.088 185.02 171.288 179.116 181.808 158.972C181.936 158.726 182.125 158.66 182.376 158.772L186.144 160.388" stroke="#A28C4E" stroke-width="2"/>
<path d="M186.144 160.388C201.936 166.292 219.672 142.404 206.672 130.86" stroke="#A29A55" stroke-width="2"/>
<path d="M191.536 133.38C192.005 133.785 192.512 133.921 193.056 133.788C193.322 133.718 193.541 133.577 193.712 133.364C195.317 131.305 197.432 130.388 200.056 130.612C200.312 130.633 200.482 130.766 200.568 131.012C201.232 132.98 202.384 136.524 204.304 138.156C204.495 138.316 204.625 138.539 204.672 138.788C206.536 148.26 201.392 153.612 194.104 158.436C191.52 160.14 189.144 160.02 186.144 160.388" stroke="#FCAC57" stroke-width="2"/>
<path d="M133.496 186.564L130.088 186.116" stroke="#F48343" stroke-width="2"/>
<path d="M130.088 186.116C132.312 185.236 135.77 184.399 140.464 183.604C144.373 182.948 149.304 181.204 155.256 178.372C162.621 174.868 168.661 169.756 173.376 163.036" stroke="#FCA95C" stroke-width="2"/>
<path d="M173.375 163.036C175.423 161.692 176.541 159.905 176.727 157.676" stroke="#FA9355" stroke-width="2"/>
<path d="M176.728 157.676C178.589 152.934 180.272 147.881 181.776 142.516C182.4 140.292 182.44 137.364 182.208 135.46C181.36 128.476 177.8 117.692 175.376 107.012C175.348 106.898 175.285 106.797 175.196 106.722C175.107 106.647 174.996 106.603 174.88 106.596L161.32 105.708" stroke="#FCA95C" stroke-width="2"/>
<path d="M161.32 105.708C156.648 105.116 150.701 103.862 143.48 101.948C127.32 97.665 112.528 92.321 99.1037 85.9157C96.1037 84.4917 92.9597 83.2757 90.1037 81.1237C89.8957 80.969 89.7197 80.9983 89.5757 81.2117C89.2504 81.697 89.0957 82.3077 89.1117 83.0437" stroke="#FCAD65" stroke-width="2"/>
<path d="M89.1117 83.0437L87.8317 86.3717" stroke="#FDBC6C" stroke-width="2"/>
<path d="M87.8315 86.3719L87.1195 87.1879C86.9702 87.3585 86.7835 87.4252 86.5595 87.3879C86.1115 87.3025 85.7062 87.0252 85.3435 86.5559" stroke="#FCAD65" stroke-width="2"/>
<path d="M199.432 137.772C193.552 132.332 188.312 148.228 187.104 150.996C186.96 151.321 187.064 151.46 187.416 151.412C191.224 150.852 197.392 149.124 199.592 145.828C201 143.724 201.568 139.74 199.432 137.772Z" stroke="#EE7E3C" stroke-width="2"/>
<path d="M161.319 105.708C159.023 107.66 157.271 111.988 161.503 113.228" stroke="#FDB871" stroke-width="2"/>
<path d="M161.504 113.228C157.6 112.988 148.44 113.204 147.024 117.044C146.945 117.258 146.934 117.489 146.992 117.708C147.546 119.75 148.84 120.524 150.872 120.028C155.208 118.977 159.16 118.417 162.728 118.348C166.2 118.276 169.832 119.396 173.456 120.212" stroke="#826141" stroke-width="2"/>
<path d="M173.455 120.212C173.018 121.502 172.063 122.734 170.591 123.908C170.378 124.073 170.29 124.292 170.327 124.564C170.647 126.868 170.399 129.524 171.735 131.588C173.071 133.644 174.167 135.164 173.303 137.172" stroke="#FDB871" stroke-width="2"/>
<path d="M173.304 137.172C170.576 127.388 160.36 122.724 151.408 127.924C151.187 128.054 151.02 128.258 150.935 128.499C150.85 128.741 150.853 129.004 150.944 129.244C150.976 129.334 151.149 129.297 151.464 129.132" stroke="#826141" stroke-width="2"/>
<path d="M151.463 129.132C151.378 129.655 151.525 130.148 151.903 130.612" stroke="#F4CFAA" stroke-width="2"/>
<path d="M151.904 130.612C146.016 135.228 147.496 145.148 155.272 146.356" stroke="#826141" stroke-width="2"/>
<path d="M155.272 146.356C154.37 146.692 154.698 146.983 156.256 147.228" stroke="#F4CFAA" stroke-width="2"/>
<path d="M156.256 147.228L157.088 147.892C157.376 148.121 157.338 148.22 156.976 148.188C155.744 148.081 154.917 148.652 154.496 149.9C154.442 150.054 154.477 150.185 154.6 150.292C154.845 150.5 154.938 150.756 154.88 151.06C154.828 151.321 154.855 151.591 154.96 151.836C155.381 152.796 156.04 153.641 156.936 154.372" stroke="#FDB871" stroke-width="2"/>
<path d="M156.936 154.372C154.114 155.753 152.816 157.652 153.04 160.068" stroke="#FBA269" stroke-width="2"/>
<path d="M153.04 160.068L148.936 160.292C148.642 160.308 148.4 160.425 148.208 160.644C146.858 162.175 145.192 163.143 143.208 163.548" stroke="#FDB871" stroke-width="2"/>
<path d="M143.208 163.548C144.264 160.46 144.842 157.425 144.944 154.444C144.954 154.172 144.861 154.132 144.664 154.324C137.456 161.516 126.04 164.884 115.672 163.54C115.442 163.508 115.354 163.607 115.408 163.836C116.16 166.839 117.837 169.343 120.44 171.348" stroke="#AF6243" stroke-width="2"/>
<path d="M120.439 171.348C122.578 172.665 125.119 173.351 128.063 173.404" stroke="#E67A4E" stroke-width="2"/>
<path d="M128.064 173.404C128.026 173.553 127.826 173.636 127.464 173.652C127.149 173.668 127.085 173.801 127.272 174.052L127.464 174.308C127.597 174.489 127.552 174.58 127.328 174.58L118.576 174.692C118.551 174.692 118.526 174.7 118.507 174.716C118.488 174.733 118.476 174.755 118.472 174.78C118.456 174.849 118.453 174.921 118.464 174.996C118.469 175.03 118.466 175.065 118.456 175.098C118.446 175.131 118.428 175.161 118.405 175.186C118.382 175.211 118.353 175.23 118.322 175.241C118.29 175.252 118.257 175.256 118.224 175.252C115.432 174.988 112.592 175.412 110.736 172.94C110.57 172.721 110.354 172.583 110.088 172.524C107.224 171.873 104.512 170.839 101.952 169.42C98.5997 167.556 96.3677 169.308 93.4477 168.916C91.581 168.665 89.8744 167.94 88.3277 166.74C88.285 166.703 88.2637 166.657 88.2637 166.604C88.2637 166.529 88.2637 166.452 88.2637 166.372C88.2583 166.191 88.165 166.087 87.9837 166.06C83.9677 165.428 78.9597 160.316 77.4477 156.076C77.3767 155.874 77.2416 155.701 77.0629 155.583C76.8841 155.465 76.6715 155.409 76.4572 155.424C76.2428 155.438 76.0385 155.522 75.8751 155.663C75.7117 155.804 75.5982 155.994 75.5517 156.204L74.2477 162.26" stroke="#FDB871" stroke-width="2"/>
<path d="M74.2475 162.26L72.3676 158.692" stroke="#A39B62" stroke-width="2"/>
<path d="M72.3677 158.692C72.2557 156.82 71.8397 155.428 72.0557 153.516C72.4184 150.295 71.741 147.604 70.0237 145.444" stroke="#FDB871" stroke-width="2"/>
<path d="M87.8316 86.3717C86.4076 92.6117 83.8556 98.6037 81.7756 104.644C81.2076 106.276 79.8396 107.788 79.6076 109.964C79.5756 110.23 79.4822 110.47 79.3276 110.684C77.9569 112.54 77.2129 113.916 77.0956 114.812C76.8236 116.876 76.0636 119.657 74.8156 123.156C72.4102 129.865 71.5996 137.137 72.3836 144.972C72.4476 145.668 72.9276 146.268 73.6316 146.212C73.9356 146.185 74.0742 146.02 74.0476 145.716C73.3702 136.804 74.6556 128.246 77.9036 120.044C81.1196 111.94 84.1196 103.676 86.7436 95.4517C87.1436 94.1983 87.8769 93.9584 88.9436 94.7317C91.8556 96.8384 94.6209 99.1317 97.2396 101.612C97.3631 101.728 97.5246 101.796 97.6942 101.803C97.8638 101.81 98.0302 101.755 98.1626 101.649C98.2951 101.542 98.3847 101.392 98.415 101.225C98.4453 101.058 98.4143 100.886 98.3276 100.74C95.4956 95.9797 91.7756 90.7637 91.5596 85.1077C91.5116 83.8757 90.4956 81.9957 89.1116 83.0437" stroke="#FECB80" stroke-width="2"/>
<path d="M107.671 114.276C101.327 109.972 89.0954 112.1 82.8794 115.34C81.7701 115.921 81.6234 116.684 82.4394 117.628C83.3274 118.652 84.1114 118.772 85.4634 118.396C91.0154 116.865 96.5381 116.844 102.031 118.332C105.039 119.148 108.327 118.964 108.087 114.996C108.078 114.852 108.035 114.711 107.963 114.587C107.891 114.462 107.791 114.355 107.671 114.276Z" stroke="#826141" stroke-width="2"/>
<path d="M86.1595 142.22C88.0742 144.678 90.9062 146.148 94.6556 146.628C98.9276 147.172 103.44 149.212 107.232 146.348C113.76 141.404 112.064 134.9 106.832 129.908" stroke="#F8CDA1" stroke-width="2"/>
<path d="M106.832 129.908C106.32 124.764 95.7437 125.836 92.8717 127.044C88.4477 128.916 80.7917 137.708 86.1597 142.22" stroke="#8A6447" stroke-width="2"/>
<path d="M106.832 129.908C95.6209 126.932 88.7302 131.036 86.1595 142.22" stroke="#85756F" stroke-width="2"/>
<path d="M124.072 144.012C123.528 143.847 123.122 143.828 122.856 143.956C122.545 144.105 122.28 144.35 122.099 144.653C121.918 144.956 121.833 145.301 121.856 145.634C121.878 145.967 122.008 146.271 122.225 146.498C122.441 146.725 122.733 146.863 123.056 146.892L124.592 147.044C124.842 147.07 125.095 147.014 125.31 146.882C125.525 146.75 125.69 146.551 125.781 146.316C125.871 146.081 125.881 145.822 125.809 145.581C125.737 145.339 125.588 145.128 125.384 144.98L124.072 144.012Z" stroke="#FDD28E" stroke-width="2"/>
<path d="M124.072 144.012C125.298 144.166 126.258 144.796 126.952 145.9C127.133 146.182 127.074 146.401 126.776 146.556C125.816 147.062 124.781 147.361 123.672 147.452C123.373 147.473 123.128 147.598 122.936 147.828C122.301 148.612 122.213 149.545 122.672 150.628C122.789 150.9 122.997 151.06 123.296 151.108C127.568 151.74 132.272 146.268 127.224 143.212C126.672 142.876 123.136 142.1 124.072 144.012Z" stroke="#FCAD65" stroke-width="2"/>
<path d="M103.943 158.828C103.882 157.287 102.753 155.852 100.807 154.839C98.8612 153.825 96.2565 153.316 93.5662 153.425C90.8759 153.533 88.3203 154.248 86.4618 155.415C84.6032 156.581 83.5939 158.102 83.6558 159.643C83.7177 161.185 84.8458 162.62 86.7919 163.633C88.738 164.647 91.3427 165.155 94.033 165.047C96.7233 164.939 99.2789 164.223 101.137 163.057C102.996 161.891 104.005 160.37 103.943 158.828Z" stroke="#FBA269" stroke-width="2"/>
<path d="M45.3916 109.476C43.8556 107.604 43.4582 104.892 44.1996 101.34C44.2636 101.041 44.2182 100.758 44.0636 100.492C43.4716 99.4624 43.2849 98.3584 43.5036 97.1797C43.5207 97.1156 43.513 97.0474 43.4821 96.9887C43.4512 96.93 43.3993 96.885 43.3368 96.8629C43.2742 96.8407 43.2056 96.8428 43.1446 96.8689C43.0836 96.895 43.0347 96.9432 43.0076 97.0037C42.5382 97.8784 41.8289 98.377 40.8796 98.4997C40.6342 98.5317 40.4636 98.6597 40.3676 98.8837C39.8662 100.046 39.3836 100.646 38.9196 100.684" stroke="#75B185" stroke-width="2"/>
<path d="M47.5116 132.748C44.6796 136.929 44.1223 141.604 45.8396 146.772" stroke="#B3C280" stroke-width="2"/>
<path d="M45.8397 146.772C45.2583 146.654 44.9463 146.945 44.9037 147.644C44.893 147.846 44.7997 147.897 44.6237 147.796L44.3677 147.636C44.181 147.524 43.989 147.518 43.7917 147.62C37.3197 150.852 30.5837 154.012 27.5357 159.62C27.4534 159.774 27.3252 159.898 27.1689 159.976C27.0126 160.054 26.8359 160.081 26.6634 160.054C26.4909 160.027 26.3312 159.946 26.2065 159.824C26.0818 159.702 25.9983 159.544 25.9677 159.372C25.9037 159.036 25.7143 158.91 25.3997 158.996" stroke="#5F9E6C" stroke-width="2"/>
<path d="M176.728 157.676C171.405 152.806 164.808 151.705 156.936 154.372" stroke="#FB9E61" stroke-width="2"/>
<path d="M156.255 147.228C162.623 146.092 166.927 145.9 171.695 140.988" stroke="#F4CBA1" stroke-width="2"/>
<path d="M171.696 140.988C172.965 141.014 173.501 139.742 173.304 137.172" stroke="#825D38" stroke-width="2"/>
<path d="M173.455 120.212C174.031 120.036 174.517 119.518 174.911 118.66C175.109 118.244 175.021 117.897 174.647 117.62C170.717 114.681 166.335 113.217 161.503 113.228" stroke="#825D38" stroke-width="2"/>
<path d="M171.696 140.988C169.125 130.161 162.381 126.209 151.464 129.132" stroke="#797471" stroke-width="2"/>
<path d="M155.272 146.356C158.848 146.66 161.584 143.196 162.592 140.188C164.776 133.676 158.456 126.7 151.904 130.612" stroke="#797471" stroke-width="2"/>
<path d="M100.529 146.681C101.415 146.958 102.357 147.029 103.3 146.888C104.243 146.747 105.17 146.398 106.027 145.86C106.884 145.322 107.654 144.605 108.294 143.752C108.934 142.899 109.43 141.925 109.756 140.887C110.413 138.789 110.333 136.555 109.532 134.675C108.731 132.795 107.276 131.424 105.486 130.863C104.6 130.585 103.658 130.515 102.715 130.656C101.771 130.797 100.845 131.146 99.9882 131.684C99.1314 132.222 98.3611 132.938 97.7212 133.791C97.0814 134.645 96.5846 135.618 96.2591 136.657C95.6018 138.755 95.6824 140.989 96.4831 142.869C97.2839 144.749 98.7392 146.12 100.529 146.681Z" stroke="#7D7269" stroke-width="2"/>
<path d="M60.9278 130.7C52.3091 133.174 49.3518 138.545 52.0558 146.812C52.8558 149.26 54.7865 151.67 57.8478 154.044C57.9549 154.127 58.0334 154.241 58.0721 154.37C58.1109 154.5 58.108 154.637 58.0638 154.764C57.7331 155.724 57.7384 156.67 58.0798 157.604C58.1758 157.865 58.1971 158.129 58.1438 158.396L57.7518 160.356" stroke="#FDC778" stroke-width="2"/>
<path d="M57.7515 160.356C51.9701 157.593 47.9995 153.065 45.8395 146.772" stroke="#AAB573" stroke-width="2"/>
<path d="M155.761 138.874C155.982 138.852 156.197 138.778 156.391 138.656C156.586 138.534 156.757 138.367 156.895 138.165C157.033 137.962 157.135 137.728 157.196 137.475C157.256 137.222 157.274 136.956 157.247 136.691C157.194 136.157 156.965 135.663 156.611 135.317C156.257 134.97 155.806 134.801 155.359 134.846C155.137 134.868 154.923 134.942 154.728 135.064C154.533 135.185 154.362 135.352 154.224 135.555C154.086 135.757 153.984 135.992 153.924 136.245C153.863 136.498 153.846 136.764 153.872 137.028C153.925 137.562 154.154 138.057 154.508 138.403C154.863 138.749 155.313 138.918 155.761 138.874Z" stroke="#797471" stroke-width="2"/>
<path d="M99.7996 138.564L101.896 138.548C102.092 138.546 102.279 138.466 102.417 138.327C102.554 138.188 102.632 138 102.632 137.804V137.132C102.629 136.667 102.583 136.208 102.496 135.779C102.408 135.351 102.281 134.962 102.122 134.635C101.963 134.308 101.775 134.049 101.569 133.874C101.362 133.698 101.142 133.609 100.92 133.612H100.712C100.265 133.617 99.839 133.992 99.5271 134.655C99.2152 135.318 99.0428 136.214 99.0476 137.148V137.82C99.0476 137.918 99.0671 138.016 99.105 138.106C99.1429 138.197 99.1984 138.28 99.2683 138.349C99.3383 138.418 99.4212 138.473 99.5124 138.509C99.6036 138.546 99.7012 138.565 99.7996 138.564Z" stroke="#797471" stroke-width="2"/>
<path d="M72.3675 158.692C68.1808 161.193 63.3381 161.721 57.8395 160.276" stroke="#A2975A" stroke-width="2"/>
<path d="M57.8396 160.276C58.2076 160.436 58.1783 160.462 57.7516 160.356" stroke="#A9A364" stroke-width="2"/>
<path d="M64.4076 143.06C60.4716 132.596 50.7756 141.492 58.1836 148.692C60.7649 151.204 63.8236 152.326 67.3596 152.06C67.4472 152.052 67.5318 152.023 67.6062 151.976C67.6807 151.929 67.7428 151.866 67.7874 151.791C67.8321 151.715 67.8579 151.631 67.8628 151.544C67.8677 151.457 67.8515 151.371 67.8156 151.292C66.6049 148.614 65.4689 145.87 64.4076 143.06Z" stroke="#F58E4F" stroke-width="2"/>
<path d="M101.199 137.156L101.343 135.748C101.357 135.644 101.332 135.54 101.276 135.452C101.219 135.365 101.133 135.301 101.033 135.271C100.933 135.241 100.826 135.248 100.73 135.29C100.635 135.332 100.557 135.406 100.511 135.5C100.181 136.124 100.207 136.727 100.591 137.308C100.933 137.825 101.135 137.775 101.199 137.156Z" stroke="#A89E95" stroke-width="2"/>
<path d="M156.032 137.732C156.144 137.193 156.018 136.7 155.656 136.252C155.341 135.862 155.096 135.902 154.92 136.372C154.68 137.017 154.818 137.553 155.335 137.98C155.703 138.284 155.936 138.201 156.032 137.732Z" stroke="#9F8F89" stroke-width="2"/>
<path d="M57.8395 160.276C59.0315 163.564 61.1675 165.892 63.1355 168.66" stroke="#4F8655" stroke-width="2"/>
<path d="M63.1356 168.66C62.2076 171.055 61.1516 173.417 59.9676 175.748C58.9276 177.788 56.9356 179.108 55.7836 181.372C55.661 181.612 55.4903 181.807 55.2716 181.956C53.101 183.428 51.581 185.399 50.7116 187.868C50.6263 188.108 50.5996 188.356 50.6316 188.612C51.0956 192.212 45.8156 188.924 44.9276 188.164C44.6663 187.945 44.4316 187.972 44.2236 188.244C43.2796 189.513 41.973 189.887 40.3036 189.364C40.181 189.327 40.1116 189.372 40.0956 189.5L40.0556 189.788C40.0343 189.937 39.965 189.969 39.8476 189.884C39.7356 189.799 39.597 189.777 39.4316 189.82" stroke="#518B5E" stroke-width="2"/>
<path d="M173.376 163.036C167.224 164.364 157.536 165.244 153.04 160.068" stroke="#FB9E61" stroke-width="2"/>
<path d="M143.208 163.548L141.064 167.596" stroke="#AE5E3A" stroke-width="2"/>
<path d="M141.063 167.596C133.981 164.833 127.394 165.3 121.304 168.996C120.434 169.524 120.146 170.308 120.44 171.348" stroke="#982017" stroke-width="2"/>
<path d="M128.064 173.404C133.408 173.569 137.741 171.633 141.064 167.596" stroke="#E67645" stroke-width="2"/>
<path d="M130.088 186.116L121.536 186.212" stroke="#F58E4F" stroke-width="2"/>
<path d="M121.536 186.212C102.328 185.796 83.9357 179.812 74.2477 162.26" stroke="#A2975A" stroke-width="2"/>
<path d="M121.536 186.212L121.72 192.588" stroke="#9B7140" stroke-width="2"/>
<path d="M121.72 192.588C121.885 194.369 121.562 195.513 120.752 196.02" stroke="#A2823E" stroke-width="2"/>
<path d="M120.752 196.02C106.976 197.324 99.0235 204.052 95.3435 217.404" stroke="#A3AA69" stroke-width="2"/>
<path d="M95.3435 217.404C94.3888 214.993 93.2902 212.919 92.0475 211.18C82.0795 197.26 72.8955 182.676 63.1355 168.66" stroke="#4A8054" stroke-width="2"/>
<path d="M95.3435 217.404C94.0315 221.329 92.9755 225.873 92.1755 231.036" stroke="#A5AF72" stroke-width="2"/>
<path d="M133.495 192.684L121.719 192.588" stroke="#F47933" stroke-width="2"/>
<path d="M134.384 195.86C134.68 201.692 131.84 204.604 127.064 207.3C126.844 207.426 126.586 207.47 126.336 207.424C126.086 207.379 125.86 207.247 125.696 207.052C123.253 204.124 121.466 200.777 120.336 197.012" stroke="#D9902A" stroke-width="2"/>
<path d="M120.336 197.012C119.973 196.847 120.112 196.516 120.752 196.02" stroke="#FDB25C" stroke-width="2"/>
<path d="M143.048 197.604C149.032 199.497 153.349 202.585 156 206.868C159.984 213.292 162.12 222.556 163.208 229.516C163.312 230.22 163.376 230.188 163.944 230.58" stroke="#DBB855" stroke-width="2"/>
<path d="M153.848 233.316C153.997 227.214 153.365 221.236 151.952 215.38C151.845 214.948 151.784 214.956 151.768 215.404L151.112 233.436" stroke="#8C4F18" stroke-width="2"/>
<path d="M150.264 234.268C149.848 234.278 149.453 234.185 149.08 233.988C148.824 233.855 148.738 233.649 148.824 233.372C149.8 230.196 150.2 226.42 148.112 223.532C144.04 217.908 135.88 215.26 130.728 212.596C130.514 212.484 130.392 212.548 130.36 212.788L129.672 218.412C129.669 218.448 129.653 218.482 129.626 218.506C129.599 218.53 129.564 218.542 129.528 218.54C129.492 218.538 129.458 218.521 129.434 218.494C129.41 218.467 129.397 218.432 129.4 218.396C129.33 216.172 129.426 213.95 129.688 211.732C129.693 211.678 129.688 211.623 129.671 211.571C129.655 211.519 129.628 211.472 129.593 211.431C129.558 211.39 129.514 211.358 129.466 211.335C129.418 211.313 129.365 211.301 129.312 211.3L125.744 211.236C125.349 211.225 125.125 211.025 125.072 210.636L124.696 207.972C124.669 207.79 124.602 207.628 124.496 207.484C122.186 204.252 120.285 200.865 118.792 197.324" stroke="#B7A129" stroke-width="2"/>
<path d="M118.792 197.324C118.888 196.998 119.402 196.894 120.336 197.012" stroke="#DBB855" stroke-width="2"/>
<path d="M118.791 197.324C115.287 197.484 112.375 198.284 110.055 199.724" stroke="#DBC35B" stroke-width="2"/>
<path d="M110.056 199.724C108.045 200.721 106.794 201.564 106.304 202.252C102.552 207.5 97.1837 216.244 96.7677 222.748C96.7517 223.014 96.645 223.236 96.4477 223.412C95.0024 224.724 94.2184 226.329 94.0957 228.228" stroke="#E2CC66" stroke-width="2"/>
<path d="M94.0957 228.228C93.2583 229.263 93.3437 230.345 94.3517 231.476" stroke="#DBC35B" stroke-width="2"/>
<path d="M123.071 236.46V213.548C123.071 213.387 123.021 213.229 122.928 213.098C122.835 212.966 122.703 212.866 122.551 212.812C116.063 210.428 113.567 205.132 110.055 199.724" stroke="#BEB639" stroke-width="2"/>
<path d="M102.544 233.228L103.48 215.868C103.49 215.59 103.552 215.326 103.664 215.076C103.952 214.425 103.85 213.833 103.36 213.3C103.269 213.204 103.156 213.131 103.03 213.09C102.905 213.049 102.771 213.04 102.642 213.064C102.513 213.088 102.392 213.144 102.291 213.227C102.19 213.31 102.112 213.418 102.064 213.54C100.202 218.276 99.5757 223.185 100.184 228.268C100.192 228.35 100.176 228.433 100.136 228.505C100.096 228.578 100.036 228.636 99.962 228.674C99.8883 228.711 99.8051 228.725 99.7232 228.714C99.6414 228.703 99.5649 228.667 99.5037 228.612L96.2477 225.508C96.1993 225.461 96.1384 225.43 96.0724 225.419C96.0065 225.407 95.9383 225.416 95.8763 225.443C95.8144 225.47 95.7612 225.515 95.7235 225.572C95.6857 225.629 95.6649 225.696 95.6637 225.764C95.6637 226.27 96.0664 226.977 96.8717 227.884" stroke="#BEAB34" stroke-width="2"/>
<path d="M96.8717 227.884C95.2877 227.671 94.3624 227.785 94.0957 228.228" stroke="#BEB639" stroke-width="2"/>
<path d="M106.848 207.3C107.594 205.919 108.514 204.687 109.608 203.604C109.885 203.332 109.861 203.087 109.536 202.868L109.216 202.652C109.092 202.571 108.942 202.538 108.795 202.561C108.648 202.583 108.513 202.658 108.416 202.772L104.024 207.916C103.784 208.199 103.81 208.455 104.104 208.684L105.504 209.788C105.733 209.964 105.76 210.167 105.584 210.396C103.952 212.524 105.384 215.46 106.544 217.884C109.064 223.124 113.912 216.188 114.4 213.508C114.448 213.257 114.344 213.116 114.088 213.084C112.274 212.855 110.562 212.292 108.952 211.396C108.722 211.268 108.477 211.204 108.216 211.204H107.296C107.159 211.205 107.026 211.162 106.916 211.081C106.806 211 106.725 210.885 106.684 210.754C106.644 210.622 106.647 210.481 106.692 210.35C106.737 210.22 106.823 210.107 106.936 210.028C108.157 209.18 109.178 208.119 110 206.844C110.037 206.786 110.054 206.718 110.049 206.649C110.044 206.58 110.017 206.515 109.972 206.463C109.927 206.411 109.867 206.375 109.8 206.36C109.733 206.345 109.662 206.352 109.6 206.38C108.986 206.663 108.41 207.017 107.872 207.444C107.69 207.588 107.485 207.644 107.256 207.612L106.984 207.572C106.808 207.551 106.762 207.46 106.848 207.3Z" stroke="#BCB557" stroke-width="2"/>
<path d="M100.527 233.076C99.7755 230.847 98.5568 229.116 96.8715 227.884" stroke="#B7A129" stroke-width="2"/>
<path d="M164.504 25.6998C163.808 29.5798 160.392 32.3558 159.056 35.6198C158.956 35.8717 158.793 36.0946 158.584 36.2678C156.253 38.1825 155.538 40.1345 156.44 42.1238C141.912 36.5078 126.848 31.9078 111.472 29.3318C111.344 29.1505 111.269 29.1132 111.248 29.2198C108.352 24.1318 115.344 24.3798 114.448 19.9638C131.605 17.9692 148.29 19.8812 164.504 25.6998Z" fill="#83B890"/>
<path d="M114.448 19.9637C115.344 24.3797 108.352 24.1317 111.248 29.2197L101.144 28.5877L101.384 28.4517C101.494 28.3875 101.581 28.2912 101.635 28.1759C101.688 28.0605 101.705 27.9316 101.684 27.8063C101.662 27.6809 101.602 27.5653 101.513 27.4747C101.424 27.3842 101.309 27.3231 101.184 27.2997L97.2397 26.5717C96.9677 26.5237 96.7917 26.369 96.7117 26.1077L96.0957 24.1237C102.042 22.1397 108.16 20.753 114.448 19.9637Z" fill="#9CC49A"/>
<path d="M96.0955 24.1238L96.7115 26.1078C96.7915 26.3692 96.9675 26.5238 97.2395 26.5718L101.184 27.2998C101.309 27.3233 101.423 27.3843 101.513 27.4749C101.602 27.5654 101.662 27.6811 101.683 27.8064C101.705 27.9317 101.688 28.0607 101.634 28.1761C101.581 28.2914 101.493 28.3876 101.384 28.4518L101.144 28.5878C86.9595 30.2038 79.4635 40.2278 76.9595 53.7638L76.0315 59.4678C75.9888 59.7398 75.8368 59.8358 75.5755 59.7558L75.0795 59.5958C64.8155 57.3878 52.5115 57.5718 45.8155 66.7878C44.5675 68.9478 43.9168 70.9532 43.8635 72.8038C43.6822 79.1078 43.8448 86.3585 44.3515 94.5558C43.4502 94.5078 43.0955 93.4625 43.2875 91.4198C43.3195 91.0892 43.1728 90.9612 42.8475 91.0358C40.4475 91.5905 38.1195 91.4865 35.8635 90.7238L34.8715 90.3798C34.6048 90.2838 34.5168 90.1025 34.6075 89.8358C36.0555 85.5078 37.6235 81.6998 42.0315 80.0198C42.3142 79.9078 42.4475 79.7025 42.4315 79.4038C42.2982 77.0038 42.4102 74.6252 42.7675 72.2678C42.8795 71.5425 42.5782 71.2678 41.8635 71.4438C41.3408 71.5665 40.6822 71.3985 39.8875 70.9398C39.7914 70.8843 39.6844 70.8493 39.5729 70.8369C39.4615 70.8245 39.348 70.835 39.2395 70.8678L36.5515 71.7398C42.9622 60.1985 51.4342 50.2892 61.9675 42.0118C72.1488 34.0705 83.5248 28.1078 96.0955 24.1238Z" fill="#BBDAB0"/>
<path d="M164.504 25.6998C186.808 33.8438 205.36 49.8278 217.944 69.9478L215.296 72.5078C215.104 72.6945 214.874 72.7691 214.608 72.7318L212.384 72.4598C212.293 72.4491 212.256 72.3985 212.272 72.3078L212.296 72.0998C212.344 71.7638 212.248 71.7158 212.008 71.9558L211.352 72.6278C210.749 69.3851 209.237 66.9931 206.816 65.4518C196.352 58.8118 184.488 52.9958 171.224 48.0038L156.44 42.1238C155.538 40.1345 156.253 38.1825 158.584 36.2678C158.793 36.0946 158.956 35.8716 159.056 35.6198C160.392 32.3558 163.808 29.5798 164.504 25.6998Z" fill="#67AA79"/>
<path d="M101.144 28.5879L111.248 29.2199C111.269 29.1132 111.344 29.1506 111.472 29.3319C111.376 29.3906 111.309 29.4732 111.272 29.5799C111.186 29.8466 111.277 30.0199 111.544 30.0999C113.336 30.6226 115.152 31.0039 116.992 31.2439C117.344 31.2866 117.509 31.4839 117.488 31.8359C117.477 32.0599 117.373 32.2439 117.176 32.3879C117.016 32.5106 116.834 32.5559 116.632 32.5239C112.546 31.7879 108.426 31.5746 104.272 31.8839C104.015 31.9049 103.758 31.8579 103.528 31.7479C102.669 31.3479 101.781 31.2679 100.864 31.5079C100.796 31.5259 100.737 31.5655 100.694 31.6205C100.651 31.6756 100.627 31.7431 100.626 31.8129C100.625 31.8826 100.647 31.9507 100.689 32.0069C100.73 32.063 100.789 32.1041 100.856 32.1239C107.16 33.8839 113.864 33.7879 119.648 35.1239C122.842 35.8652 125.901 36.7159 128.824 37.6759C128.974 37.713 129.104 37.8085 129.184 37.9412C129.264 38.074 129.289 38.2332 129.252 38.3839C129.214 38.5345 129.119 38.6643 128.986 38.7445C128.853 38.8248 128.694 38.849 128.544 38.8119C109.64 35.5559 90.5516 40.8599 77.9596 55.4199C77.5063 54.2732 77.1729 53.7212 76.9596 53.7639C79.4636 40.2279 86.9596 30.2039 101.144 28.5879Z" fill="#523D38"/>
<path d="M111.472 29.3318C126.848 31.9078 141.912 36.5078 156.44 42.1238L171.224 48.0038C170.792 47.8972 170.506 48.0012 170.368 48.3158C170.256 48.5772 170.333 48.7532 170.6 48.8438L171.136 49.0278C171.285 49.0812 171.336 49.1852 171.288 49.3398C171.037 50.1238 170.648 50.8065 170.12 51.3878C169.842 51.6918 169.693 51.6412 169.672 51.2358C169.666 51.1292 169.669 51.0225 169.68 50.9158C169.685 50.8687 169.676 50.8211 169.656 50.7784C169.636 50.7356 169.604 50.6994 169.564 50.6736C169.524 50.6479 169.478 50.6338 169.431 50.6328C169.383 50.6317 169.336 50.6439 169.296 50.6678C167.914 51.4198 166.52 52.1398 165.112 52.8278C163.616 53.5558 161.528 53.7558 159.896 55.0358C159.712 55.183 159.492 55.2845 159.256 55.3318C157.68 55.6198 156.44 56.7958 155.288 57.2438C153.458 57.9532 151.658 58.7238 149.888 59.5558C148.216 60.3398 145.832 61.0278 143.976 62.2118C142.104 63.4038 140.232 63.8278 138.384 64.9958C138.361 65.0103 138.339 65.0247 138.323 65.0365C138.307 65.0483 138.297 65.0565 138.296 65.0598L138.4 65.2438C138.437 65.3185 138.418 65.3745 138.344 65.4118L132.992 67.8358C132.741 67.9478 132.48 67.9985 132.208 67.9878L130.688 67.9238C130.405 67.9078 130.186 68.0198 130.032 68.2598C129.322 69.3532 128.328 70.1932 127.048 70.7798C126.829 70.8812 126.6 70.9345 126.36 70.9398C124.925 70.9718 123.821 71.6092 123.048 72.8518C122.98 72.9587 122.89 73.0488 122.783 73.1154C122.676 73.1819 122.556 73.2231 122.432 73.2358C121.504 73.3105 120.525 73.7052 119.496 74.4198C118.136 75.3532 116.029 76.0892 113.176 76.6278C112.909 76.6812 112.682 76.8065 112.496 77.0038C111.594 77.9425 110.389 78.2652 108.88 77.9718C104.138 77.0385 99.8316 75.5798 95.9596 73.5958C88.0636 69.5478 79.6956 65.1398 77.9596 55.4198C90.5516 40.8598 109.64 35.5558 128.544 38.8118C128.694 38.849 128.853 38.8247 128.986 38.7445C129.119 38.6642 129.214 38.5345 129.252 38.3838C129.289 38.2332 129.264 38.074 129.184 37.9412C129.104 37.8084 128.974 37.713 128.824 37.6758C125.901 36.7158 122.842 35.8652 119.648 35.1238C113.864 33.7878 107.16 33.8838 100.856 32.1238C100.789 32.1041 100.73 32.063 100.689 32.0068C100.647 31.9507 100.625 31.8825 100.626 31.8128C100.627 31.7431 100.651 31.6755 100.694 31.6205C100.737 31.5654 100.796 31.5259 100.864 31.5078C101.781 31.2678 102.669 31.3478 103.528 31.7478C103.758 31.8579 104.015 31.9048 104.272 31.8838C108.426 31.5745 112.546 31.7878 116.632 32.5238C116.834 32.5558 117.016 32.5105 117.176 32.3878C117.373 32.2438 117.477 32.0598 117.488 31.8358C117.509 31.4838 117.344 31.2865 116.992 31.2438C115.152 31.0038 113.336 30.6225 111.544 30.0998C111.277 30.0198 111.186 29.8465 111.272 29.5798C111.309 29.4732 111.376 29.3905 111.472 29.3318Z" fill="#1C0E18"/>
<path d="M171.223 48.0038C184.487 52.9958 196.351 58.8118 206.815 65.4518C209.237 66.9931 210.749 69.3851 211.351 72.6278C211.149 74.4998 211.191 75.7451 211.479 76.3638C210.098 97.0945 208.826 113.974 207.663 127.004C207.567 128.065 207.237 129.35 206.671 130.86C201.178 127.628 196.133 128.468 191.535 133.38C189.247 136.174 187.301 139.337 185.695 142.868C185.685 142.893 185.665 142.913 185.639 142.924C185.614 142.934 185.585 142.934 185.559 142.924C185.534 142.913 185.514 142.893 185.503 142.867C185.493 142.842 185.493 142.813 185.503 142.788C186.511 139.948 187.783 137.612 187.447 134.556C186.159 122.964 182.399 110.78 179.095 99.5318C179.021 99.2758 178.85 99.1371 178.583 99.1158C161.021 97.6438 143.602 95.1771 126.327 91.7158C113.399 89.1291 101.077 84.8225 89.3594 78.7958C89.1034 78.6625 88.9141 78.7265 88.7914 78.9878L85.3434 86.5558C80.1221 98.3531 75.3274 110.313 70.9594 122.436C69.5034 126.478 68.7008 129.838 68.5514 132.516C68.3168 136.713 68.8074 141.022 70.0234 145.444C68.1088 138.697 65.0768 133.782 60.9274 130.7C55.8128 128.006 51.3408 128.689 47.5114 132.748L45.3914 109.476L44.3514 94.5558C43.8448 86.3585 43.6821 79.1078 43.8634 72.8038C43.9168 70.9531 44.5674 68.9478 45.8154 66.7878L44.9674 70.7318L44.9514 77.0118C44.9514 77.4011 45.1114 77.4838 45.4314 77.2598C54.1941 71.0678 63.9594 67.5745 74.7274 66.7798C75.0848 66.7531 75.1728 66.5851 74.9914 66.2758C73.0074 62.8598 69.4314 62.2918 65.7994 62.1718C65.674 62.1696 65.5521 62.1266 65.4515 62.0489C65.3508 61.9713 65.2766 61.863 65.2394 61.7398C65.1274 61.3878 65.2101 60.9505 65.4874 60.4278C69.1621 61.4465 72.3594 61.1691 75.0794 59.5958L75.5754 59.7558C75.8368 59.8358 75.9888 59.7398 76.0314 59.4678L76.9594 53.7638C77.1728 53.7211 77.5061 54.2731 77.9594 55.4198C79.6954 65.1398 88.0634 69.5478 95.9594 73.5958C99.8314 75.5798 104.138 77.0385 108.879 77.9718C110.389 78.2651 111.594 77.9425 112.495 77.0038C112.682 76.8065 112.909 76.6811 113.175 76.6278C116.029 76.0891 118.135 75.3531 119.495 74.4198C120.525 73.7051 121.503 73.3105 122.431 73.2358C122.556 73.2231 122.676 73.1819 122.783 73.1153C122.89 73.0488 122.98 72.9587 123.047 72.8518C123.821 71.6091 124.925 70.9718 126.359 70.9398C126.599 70.9345 126.829 70.8811 127.047 70.7798C128.327 70.1931 129.322 69.3531 130.031 68.2598C130.186 68.0198 130.405 67.9078 130.687 67.9238L132.207 67.9878C132.479 67.9985 132.741 67.9478 132.991 67.8358L138.343 65.4118C138.418 65.3745 138.437 65.3185 138.399 65.2438L138.295 65.0598C138.297 65.0565 138.307 65.0482 138.323 65.0365C138.339 65.0247 138.361 65.0103 138.383 64.9958C140.231 63.8278 142.103 63.4038 143.975 62.2118C145.831 61.0278 148.215 60.3398 149.887 59.5558C151.658 58.7238 153.458 57.9531 155.287 57.2438C156.439 56.7958 157.679 55.6198 159.255 55.3318C159.492 55.2845 159.712 55.183 159.895 55.0358C161.527 53.7558 163.615 53.5558 165.111 52.8278C166.519 52.1398 167.914 51.4198 169.295 50.6678C169.336 50.6438 169.383 50.6317 169.43 50.6327C169.478 50.6337 169.524 50.6479 169.564 50.6736C169.604 50.6993 169.635 50.7356 169.656 50.7783C169.676 50.8211 169.684 50.8687 169.679 50.9158C169.669 51.0225 169.666 51.1291 169.671 51.2358C169.693 51.6411 169.842 51.6918 170.119 51.3878C170.647 50.8065 171.037 50.1238 171.287 49.3398C171.335 49.1851 171.285 49.0811 171.135 49.0278L170.599 48.8438C170.333 48.7531 170.255 48.5771 170.367 48.3158C170.506 48.0011 170.791 47.8971 171.223 48.0038Z" fill="#0E040B"/>
<path d="M75.0795 59.5958C72.3595 61.1691 69.1622 61.4465 65.4875 60.4278C60.9995 59.8038 55.5995 61.3958 52.0475 64.2518C50.9595 65.1265 49.8902 66.0118 48.8395 66.9078C48.6551 67.066 48.5078 67.2597 48.4075 67.4758L45.6795 73.1798C45.6505 73.2378 45.6032 73.2847 45.5448 73.3133C45.4865 73.3418 45.4204 73.3503 45.3568 73.3376C45.2931 73.3249 45.2354 73.2915 45.1925 73.2428C45.1497 73.194 45.124 73.1326 45.1195 73.0678L44.9675 70.7318L45.8155 66.7878C52.5115 57.5718 64.8155 57.3878 75.0795 59.5958Z" fill="#472D30"/>
<path d="M65.4875 60.4279C65.2102 60.9506 65.1275 61.3879 65.2395 61.7399C65.2767 61.8632 65.3509 61.9714 65.4516 62.0491C65.5522 62.1267 65.6741 62.1697 65.7995 62.1719C69.4315 62.2919 73.0075 62.8599 74.9915 66.2759C75.1729 66.5853 75.0849 66.7533 74.7275 66.7799C63.9595 67.5746 54.1942 71.0679 45.4315 77.2599C45.1115 77.4839 44.9515 77.4013 44.9515 77.0119L44.9675 70.7319L45.1195 73.0679C45.124 73.1327 45.1497 73.1942 45.1925 73.2429C45.2354 73.2917 45.2931 73.325 45.3568 73.3377C45.4204 73.3505 45.4865 73.3419 45.5448 73.3134C45.6032 73.2849 45.6505 73.238 45.6795 73.1799L48.4075 67.4759C48.5078 67.2598 48.6551 67.0661 48.8395 66.9079C49.8902 66.0119 50.9595 65.1266 52.0475 64.2519C55.5995 61.3959 60.9995 59.8039 65.4875 60.4279Z" fill="#2D1920"/>
<path d="M35.8636 90.7238L34.8796 92.0678C34.6929 92.3184 34.7089 92.5558 34.9276 92.7798C37.8076 95.6331 39.1382 98.2678 38.9196 100.684C35.7036 103.66 32.5782 106.012 29.5436 107.74C29.3302 107.862 29.1196 107.86 28.9116 107.732C27.4982 106.878 26.2502 106.958 25.1676 107.972C25.0777 108.057 24.9673 108.117 24.847 108.147C24.7266 108.177 24.6005 108.174 24.4806 108.141C24.3608 108.107 24.2514 108.043 24.1629 107.954C24.0744 107.866 24.0099 107.756 23.9756 107.636L23.7836 106.964C26.0609 94.5104 30.3169 82.7691 36.5516 71.7398L39.2396 70.8678C39.3481 70.835 39.4615 70.8245 39.573 70.8369C39.6844 70.8493 39.7915 70.8843 39.8876 70.9398C40.6822 71.3984 41.3409 71.5664 41.8636 71.4438C42.5782 71.2678 42.8796 71.5424 42.7676 72.2678C42.4102 74.6251 42.2982 77.0038 42.4316 79.4038C42.4476 79.7024 42.3142 79.9078 42.0316 80.0198C37.6236 81.6998 36.0556 85.5078 34.6076 89.8358C34.5169 90.1024 34.6049 90.2838 34.8716 90.3798L35.8636 90.7238Z" fill="#9CC49A"/>
<path d="M217.944 69.9478C231.714 93.3932 236.69 118.745 232.872 146.004C232.701 145.972 232.546 146.044 232.408 146.22C232.274 146.396 232.112 146.425 231.92 146.308C229.68 144.9 229.4 129.796 229.12 127.692C227.576 115.964 225.168 104.068 220.608 93.2518C218.304 87.7852 215.261 82.1558 211.48 76.3638C211.192 75.7452 211.149 74.4998 211.352 72.6278L212.008 71.9558C212.248 71.7158 212.344 71.7638 212.296 72.0998L212.272 72.3078C212.256 72.3985 212.293 72.4492 212.384 72.4598L214.608 72.7318C214.874 72.7692 215.104 72.6945 215.296 72.5078L217.944 69.9478Z" fill="#56915F"/>
<path d="M232.872 146.004C230.632 162.062 225.069 176.782 216.184 190.164C204.064 207.716 184.992 224.084 164.296 230.484C164.29 230.334 164.333 230.209 164.424 230.108C164.552 229.964 164.6 229.796 164.568 229.604C162.272 216.292 158.8 200.428 143.048 197.604C140.536 196.494 137.648 195.913 134.384 195.86C133.541 195.71 133.245 194.652 133.496 192.684V186.564C155.088 185.02 171.288 179.116 181.808 158.972C181.936 158.726 182.125 158.66 182.376 158.772L186.144 160.388C201.936 166.292 219.672 142.404 206.672 130.86C207.237 129.35 207.568 128.065 207.664 127.004C208.826 113.974 210.098 97.0943 211.48 76.3637C215.261 82.1557 218.304 87.785 220.608 93.2517C225.168 104.068 227.576 115.964 229.12 127.692C229.4 129.796 229.68 144.9 231.92 146.308C232.112 146.425 232.274 146.396 232.408 146.22C232.546 146.044 232.701 145.972 232.872 146.004Z" fill="#487A4B"/>
<path d="M191.535 133.38C192.005 133.785 192.511 133.921 193.055 133.788C193.322 133.718 193.541 133.577 193.712 133.364C195.317 131.305 197.431 130.388 200.055 130.612C200.311 130.633 200.482 130.766 200.568 131.012C201.232 132.98 202.383 136.524 204.303 138.156C204.495 138.316 204.625 138.539 204.672 138.788C206.536 148.26 201.391 153.612 194.103 158.436C191.519 160.14 189.144 160.02 186.144 160.388L182.376 158.772C182.125 158.66 181.935 158.726 181.807 158.972C171.287 179.116 155.087 185.02 133.495 186.564L130.088 186.116C132.312 185.236 135.77 184.398 140.464 183.604C144.373 182.948 149.304 181.204 155.256 178.372C162.621 174.868 168.661 169.756 173.376 163.036C175.424 161.692 176.541 159.905 176.727 157.676C178.589 152.934 180.272 147.881 181.776 142.516C182.4 140.292 182.439 137.364 182.207 135.46C181.359 128.476 177.8 117.692 175.376 107.012C175.348 106.898 175.285 106.797 175.196 106.722C175.107 106.647 174.996 106.603 174.879 106.596L161.32 105.708C156.648 105.116 150.701 103.862 143.48 101.948C127.32 97.665 112.528 92.321 99.1035 85.9157C96.1035 84.4917 92.9595 83.2757 90.1035 81.1237C89.8955 80.969 89.7195 80.9983 89.5755 81.2117C89.2502 81.697 89.0955 82.3077 89.1115 83.0437L87.8315 86.3717L87.1195 87.1877C86.9702 87.3583 86.7835 87.425 86.5595 87.3877C86.1115 87.3023 85.7062 87.025 85.3435 86.5557L88.7915 78.9877C88.9142 78.7263 89.1035 78.6624 89.3595 78.7957C101.077 84.8224 113.4 89.129 126.328 91.7157C143.602 95.177 161.021 97.6437 178.583 99.1157C178.85 99.137 179.021 99.2757 179.096 99.5317C182.4 110.78 186.16 122.964 187.448 134.556C187.784 137.612 186.511 139.948 185.503 142.788C185.493 142.813 185.493 142.842 185.503 142.867C185.514 142.893 185.534 142.913 185.559 142.924C185.585 142.934 185.614 142.934 185.639 142.924C185.665 142.913 185.685 142.893 185.696 142.868C187.301 139.337 189.247 136.174 191.535 133.38ZM199.431 137.772C193.551 132.332 188.311 148.228 187.103 150.996C186.959 151.321 187.064 151.46 187.416 151.412C191.224 150.852 197.392 149.124 199.592 145.828C201 143.724 201.567 139.74 199.431 137.772Z" fill="#FB9E50"/>
<path d="M161.319 105.708C159.023 107.66 157.271 111.988 161.503 113.228C157.599 112.988 148.439 113.204 147.023 117.044C146.945 117.258 146.934 117.489 146.991 117.708C147.546 119.75 148.839 120.524 150.871 120.028C155.207 118.977 159.159 118.417 162.727 118.348C166.199 118.276 169.831 119.396 173.455 120.212C173.018 121.502 172.063 122.734 170.591 123.908C170.378 124.073 170.29 124.292 170.327 124.564C170.647 126.868 170.399 129.524 171.735 131.588C173.071 133.644 174.167 135.164 173.303 137.172C170.575 127.388 160.359 122.724 151.407 127.924C151.187 128.054 151.02 128.258 150.935 128.499C150.85 128.741 150.853 129.004 150.943 129.244C150.975 129.334 151.149 129.297 151.463 129.132C151.378 129.654 151.525 130.148 151.903 130.612C146.015 135.228 147.495 145.148 155.271 146.356C154.37 146.692 154.698 146.982 156.255 147.228L157.087 147.892C157.375 148.121 157.338 148.22 156.975 148.188C155.743 148.081 154.917 148.652 154.495 149.9C154.442 150.054 154.477 150.185 154.599 150.292C154.845 150.5 154.938 150.756 154.879 151.06C154.827 151.321 154.855 151.591 154.959 151.836C155.381 152.796 156.039 153.641 156.935 154.372C154.114 155.753 152.815 157.652 153.039 160.068L148.935 160.292C148.642 160.308 148.399 160.425 148.207 160.644C146.858 162.174 145.191 163.142 143.207 163.548C144.263 160.46 144.842 157.425 144.943 154.444C144.954 154.172 144.861 154.132 144.663 154.324C137.455 161.516 126.039 164.884 115.671 163.54C115.442 163.508 115.354 163.606 115.407 163.836C116.159 166.838 117.837 169.342 120.439 171.348C122.578 172.665 125.119 173.35 128.063 173.404C128.026 173.553 127.826 173.636 127.463 173.652C127.149 173.668 127.085 173.801 127.271 174.052L127.463 174.308C127.597 174.489 127.551 174.58 127.327 174.58L118.575 174.692C118.55 174.691 118.526 174.7 118.507 174.716C118.488 174.732 118.475 174.755 118.471 174.78C118.455 174.849 118.453 174.921 118.463 174.996C118.469 175.03 118.466 175.065 118.456 175.098C118.446 175.131 118.428 175.161 118.405 175.186C118.382 175.211 118.353 175.229 118.322 175.241C118.29 175.252 118.257 175.256 118.223 175.252C115.431 174.988 112.591 175.412 110.735 172.94C110.57 172.721 110.354 172.582 110.087 172.524C107.223 171.873 104.511 170.838 101.951 169.42C98.5994 167.556 96.3674 169.308 93.4474 168.916C91.5808 168.665 89.8741 167.94 88.3274 166.74C88.2848 166.702 88.2634 166.657 88.2634 166.604C88.2634 166.529 88.2634 166.452 88.2634 166.372C88.2581 166.19 88.1648 166.086 87.9834 166.06C83.9674 165.428 78.9594 160.316 77.4474 156.076C77.3765 155.873 77.2414 155.7 77.0626 155.583C76.8839 155.465 76.6713 155.409 76.4569 155.424C76.2426 155.438 76.0383 155.522 75.8749 155.663C75.7115 155.804 75.5979 155.993 75.5514 156.204L74.2474 162.26L72.3675 158.692C72.2555 156.82 71.8395 155.428 72.0555 153.516C72.4181 150.294 71.7408 147.604 70.0234 145.444C68.8074 141.022 68.3168 136.713 68.5514 132.516C68.7008 129.838 69.5034 126.478 70.9594 122.436C75.3274 110.313 80.1221 98.353 85.3435 86.5557C85.7061 87.025 86.1114 87.3023 86.5594 87.3877C86.7834 87.425 86.9701 87.3583 87.1195 87.1877L87.8315 86.3717C86.4075 92.6117 83.8554 98.6037 81.7754 104.644C81.2074 106.276 79.8394 107.788 79.6074 109.964C79.5754 110.23 79.4821 110.47 79.3274 110.684C77.9568 112.54 77.2128 113.916 77.0954 114.812C76.8234 116.876 76.0634 119.657 74.8154 123.156C72.4101 129.865 71.5994 137.137 72.3834 144.972C72.4474 145.668 72.9275 146.268 73.6315 146.212C73.9355 146.185 74.0741 146.02 74.0474 145.716C73.3701 136.804 74.6555 128.246 77.9035 120.044C81.1195 111.94 84.1195 103.676 86.7435 95.4517C87.1435 94.1983 87.8768 93.9584 88.9435 94.7317C91.8555 96.8384 94.6208 99.1317 97.2395 101.612C97.363 101.728 97.5244 101.796 97.6941 101.803C97.8637 101.81 98.03 101.755 98.1625 101.649C98.295 101.542 98.3846 101.392 98.4149 101.225C98.4452 101.058 98.4142 100.886 98.3275 100.74C95.4955 95.9797 91.7754 90.7637 91.5594 85.1077C91.5114 83.8757 90.4954 81.9957 89.1114 83.0437C89.0954 82.3077 89.2501 81.697 89.5754 81.2117C89.7194 80.9983 89.8955 80.969 90.1035 81.1237C92.9595 83.2757 96.1035 84.4917 99.1035 85.9157C112.527 92.321 127.319 97.665 143.479 101.948C150.701 103.862 156.647 105.116 161.319 105.708ZM107.671 114.276C101.327 109.972 89.0955 112.1 82.8795 115.34C81.7701 115.921 81.6234 116.684 82.4394 117.628C83.3274 118.652 84.1114 118.772 85.4634 118.396C91.0154 116.865 96.5381 116.844 102.031 118.332C105.039 119.148 108.327 118.964 108.087 114.996C108.078 114.851 108.035 114.711 107.963 114.586C107.891 114.462 107.791 114.355 107.671 114.276ZM86.1594 142.22C88.0741 144.678 90.9061 146.148 94.6555 146.628C98.9275 147.172 103.439 149.212 107.231 146.348C113.759 141.404 112.063 134.9 106.831 129.908C106.319 124.764 95.7434 125.836 92.8714 127.044C88.4474 128.916 80.7914 137.708 86.1594 142.22ZM124.071 144.012C123.527 143.846 123.122 143.828 122.855 143.956C122.545 144.105 122.279 144.35 122.099 144.653C121.918 144.956 121.833 145.3 121.855 145.634C121.878 145.967 122.008 146.27 122.224 146.498C122.441 146.725 122.733 146.863 123.055 146.892L124.591 147.044C124.842 147.07 125.095 147.013 125.31 146.882C125.524 146.75 125.69 146.551 125.78 146.316C125.871 146.081 125.881 145.822 125.809 145.58C125.737 145.339 125.588 145.128 125.383 144.98L124.071 144.012C125.298 144.166 126.258 144.796 126.951 145.9C127.133 146.182 127.074 146.401 126.775 146.556C125.815 147.062 124.781 147.361 123.671 147.452C123.373 147.473 123.127 147.598 122.935 147.828C122.301 148.612 122.213 149.545 122.671 150.628C122.789 150.9 122.997 151.06 123.295 151.108C127.567 151.74 132.271 146.268 127.223 143.212C126.671 142.876 123.135 142.1 124.071 144.012ZM103.943 158.828C103.881 157.287 102.753 155.852 100.807 154.838C98.861 153.825 96.2563 153.316 93.566 153.424C90.8757 153.532 88.3202 154.248 86.4616 155.415C84.6031 156.581 83.5937 158.102 83.6556 159.643C83.7175 161.184 84.8456 162.62 86.7918 163.633C88.7379 164.646 91.3426 165.155 94.0329 165.047C96.7232 164.939 99.2787 164.223 101.137 163.057C102.996 161.891 104.005 160.369 103.943 158.828Z" fill="#FDBC79"/>
<path d="M87.8316 86.3717L89.1116 83.0437C90.4956 81.9957 91.5116 83.8757 91.5596 85.1077C91.7756 90.7637 95.4956 95.9797 98.3276 100.74C98.4143 100.886 98.4453 101.058 98.415 101.225C98.3847 101.392 98.2951 101.542 98.1626 101.649C98.0302 101.755 97.8638 101.81 97.6942 101.803C97.5246 101.796 97.3631 101.728 97.2396 101.612C94.6209 99.1317 91.8556 96.8384 88.9436 94.7317C87.8769 93.9584 87.1436 94.1983 86.7436 95.4517C84.1196 103.676 81.1196 111.94 77.9036 120.044C74.6556 128.246 73.3702 136.804 74.0476 145.716C74.0742 146.02 73.9356 146.185 73.6316 146.212C72.9276 146.268 72.4476 145.668 72.3836 144.972C71.5996 137.137 72.4102 129.865 74.8156 123.156C76.0636 119.657 76.8236 116.876 77.0956 114.812C77.2129 113.916 77.9569 112.54 79.3276 110.684C79.4822 110.47 79.5756 110.23 79.6076 109.964C79.8396 107.788 81.2076 106.276 81.7756 104.644C83.8556 98.6037 86.4076 92.6117 87.8316 86.3717Z" fill="#FED987"/>
<path d="M35.8636 90.7238C38.1196 91.4865 40.4476 91.5905 42.8476 91.0358C43.1729 90.9612 43.3196 91.0892 43.2876 91.4198C43.0956 93.4625 43.4502 94.5078 44.3516 94.5558L45.3916 109.476C43.8556 107.604 43.4582 104.892 44.1996 101.34C44.2636 101.041 44.2182 100.759 44.0636 100.492C43.4716 99.4625 43.2849 98.3585 43.5036 97.1798C43.5207 97.1157 43.513 97.0475 43.4821 96.9888C43.4512 96.9301 43.3993 96.8852 43.3368 96.863C43.2742 96.8408 43.2056 96.843 43.1446 96.8691C43.0836 96.8952 43.0347 96.9433 43.0076 97.0038C42.5382 97.8785 41.8289 98.3772 40.8796 98.4998C40.6342 98.5318 40.4636 98.6598 40.3676 98.8838C39.8662 100.047 39.3836 100.647 38.9196 100.684C39.1382 98.2678 37.8076 95.6332 34.9276 92.7798C34.7089 92.5558 34.6929 92.3185 34.8796 92.0678L35.8636 90.7238Z" fill="#83B890"/>
<path d="M45.3916 109.476L47.5116 132.748C44.6796 136.929 44.1222 141.604 45.8396 146.772C45.2582 146.654 44.9462 146.945 44.9036 147.644C44.8929 147.846 44.7996 147.897 44.6236 147.796L44.3676 147.636C44.1809 147.524 43.9889 147.518 43.7916 147.62C37.3196 150.852 30.5836 154.012 27.5356 159.62C27.4533 159.774 27.3251 159.898 27.1688 159.976C27.0125 160.054 26.8358 160.081 26.6633 160.054C26.4908 160.027 26.3311 159.946 26.2064 159.824C26.0817 159.702 25.9982 159.544 25.9676 159.372C25.9036 159.036 25.7142 158.91 25.3996 158.996C20.9462 141.897 20.4076 124.553 23.7836 106.964L23.9756 107.636C24.0099 107.756 24.0744 107.866 24.1629 107.954C24.2514 108.043 24.3608 108.107 24.4806 108.141C24.6005 108.174 24.7266 108.177 24.847 108.147C24.9673 108.117 25.0777 108.057 25.1676 107.972C26.2502 106.958 27.4982 106.878 28.9116 107.732C29.1196 107.86 29.3302 107.862 29.5436 107.74C32.5782 106.012 35.7036 103.66 38.9196 100.684C39.3836 100.646 39.8662 100.046 40.3676 98.8837C40.4636 98.6597 40.6342 98.5317 40.8796 98.4997C41.8289 98.377 42.5382 97.8784 43.0076 97.0037C43.0347 96.9432 43.0836 96.895 43.1446 96.8689C43.2056 96.8428 43.2742 96.8407 43.3368 96.8629C43.3993 96.885 43.4512 96.93 43.4821 96.9887C43.513 97.0474 43.5207 97.1156 43.5036 97.1797C43.2849 98.3584 43.4716 99.4624 44.0636 100.492C44.2182 100.758 44.2636 101.041 44.1996 101.34C43.4582 104.892 43.8556 107.604 45.3916 109.476Z" fill="#67AA79"/>
<path d="M161.319 105.708L174.879 106.596C174.996 106.603 175.107 106.647 175.196 106.722C175.285 106.797 175.348 106.898 175.375 107.012C177.799 117.692 181.359 128.476 182.207 135.46C182.439 137.364 182.399 140.292 181.775 142.516C180.271 147.881 178.589 152.934 176.727 157.676C171.405 152.806 164.807 151.705 156.935 154.372C156.039 153.641 155.381 152.796 154.959 151.836C154.855 151.591 154.827 151.321 154.879 151.06C154.938 150.756 154.845 150.5 154.599 150.292C154.477 150.185 154.442 150.054 154.495 149.9C154.917 148.652 155.743 148.081 156.975 148.188C157.338 148.22 157.375 148.121 157.087 147.892L156.255 147.228C162.623 146.092 166.927 145.9 171.695 140.988C172.965 141.014 173.501 139.742 173.303 137.172C174.167 135.164 173.071 133.644 171.735 131.588C170.399 129.524 170.647 126.868 170.327 124.564C170.29 124.292 170.378 124.073 170.591 123.908C172.063 122.734 173.018 121.502 173.455 120.212C174.031 120.036 174.517 119.518 174.911 118.66C175.109 118.244 175.021 117.897 174.647 117.62C170.717 114.681 166.335 113.217 161.503 113.228C157.271 111.988 159.023 107.66 161.319 105.708Z" fill="#FCB468"/>
<path d="M107.671 114.276C107.791 114.355 107.891 114.462 107.963 114.587C108.035 114.711 108.078 114.852 108.087 114.996C108.327 118.964 105.039 119.148 102.031 118.332C96.5381 116.844 91.0154 116.865 85.4634 118.396C84.1114 118.772 83.3274 118.652 82.4394 117.628C81.6234 116.684 81.7701 115.921 82.8794 115.34C89.0954 112.1 101.327 109.972 107.671 114.276Z" fill="#070608"/>
<path d="M161.504 113.228C166.336 113.217 170.717 114.681 174.648 117.62C175.021 117.897 175.109 118.244 174.912 118.66C174.517 119.518 174.032 120.036 173.456 120.212C169.832 119.396 166.2 118.276 162.728 118.348C159.16 118.417 155.208 118.977 150.872 120.028C148.84 120.524 147.546 119.75 146.992 117.708C146.934 117.489 146.945 117.258 147.024 117.044C148.44 113.204 157.6 112.988 161.504 113.228Z" fill="#070608"/>
<path d="M173.304 137.172C173.501 139.742 172.965 141.014 171.696 140.988C169.125 130.161 162.381 126.209 151.464 129.132C151.149 129.297 150.976 129.334 150.944 129.244C150.853 129.004 150.85 128.741 150.935 128.499C151.02 128.258 151.187 128.054 151.408 127.924C160.36 122.724 170.576 127.388 173.304 137.172Z" fill="#070608"/>
<path d="M106.832 129.908C95.621 126.932 88.7303 131.036 86.1597 142.22C80.7917 137.708 88.4477 128.916 92.8717 127.044C95.7437 125.836 106.32 124.764 106.832 129.908Z" fill="#160B14"/>
<path d="M171.695 140.988C166.927 145.9 162.623 146.092 156.255 147.228C154.698 146.982 154.37 146.692 155.271 146.356C158.847 146.66 161.583 143.196 162.591 140.188C164.775 133.676 158.455 126.7 151.903 130.612C151.525 130.148 151.378 129.654 151.463 129.132C162.381 126.209 169.125 130.161 171.695 140.988Z" fill="#EBE1DA"/>
<path d="M106.832 129.908C112.064 134.9 113.76 141.404 107.232 146.348C103.44 149.212 98.9276 147.172 94.6556 146.628C90.9062 146.148 88.0742 144.678 86.1595 142.22C88.7302 131.036 95.6209 126.932 106.832 129.908ZM100.529 146.681C101.415 146.958 102.357 147.029 103.3 146.888C104.244 146.747 105.17 146.398 106.027 145.86C106.884 145.322 107.654 144.605 108.294 143.752C108.934 142.899 109.43 141.925 109.756 140.887C110.413 138.789 110.333 136.555 109.532 134.675C108.731 132.795 107.276 131.424 105.486 130.863C104.6 130.585 103.658 130.515 102.715 130.656C101.772 130.797 100.845 131.146 99.9883 131.684C99.1315 132.222 98.3612 132.938 97.7213 133.791C97.0815 134.645 96.5846 135.618 96.2592 136.657C95.6018 138.755 95.6824 140.989 96.4832 142.869C97.284 144.749 98.7393 146.12 100.529 146.681Z" fill="#F3DEC9"/>
<path d="M206.672 130.86C219.672 142.404 201.936 166.292 186.144 160.388C189.144 160.02 191.52 160.14 194.104 158.436C201.392 153.612 206.536 148.26 204.672 138.788C204.625 138.539 204.495 138.316 204.304 138.156C202.384 136.524 201.232 132.98 200.568 131.012C200.482 130.766 200.312 130.633 200.056 130.612C197.432 130.388 195.317 131.305 193.712 133.364C193.541 133.577 193.322 133.718 193.056 133.788C192.512 133.921 192.005 133.785 191.536 133.38C196.133 128.468 201.178 127.628 206.672 130.86Z" fill="#FCBA5E"/>
<path d="M60.9276 130.7C52.3089 133.174 49.3516 138.545 52.0556 146.812C52.8556 149.26 54.7863 151.67 57.8476 154.044C57.9547 154.127 58.0332 154.241 58.072 154.37C58.1107 154.5 58.1078 154.637 58.0636 154.764C57.7329 155.724 57.7383 156.67 58.0796 157.604C58.1756 157.865 58.1969 158.129 58.1436 158.396L57.7516 160.356C51.9703 157.593 47.9996 153.065 45.8396 146.772C44.1223 141.604 44.6796 136.929 47.5116 132.748C51.3409 128.689 55.8129 128.006 60.9276 130.7Z" fill="#FED987"/>
<path d="M155.272 146.356C147.496 145.148 146.016 135.228 151.904 130.612C158.456 126.7 164.776 133.676 162.592 140.188C161.584 143.196 158.848 146.66 155.272 146.356ZM155.761 138.874C155.982 138.852 156.197 138.778 156.391 138.656C156.586 138.534 156.757 138.367 156.895 138.165C157.033 137.962 157.135 137.728 157.196 137.475C157.256 137.222 157.274 136.956 157.247 136.691C157.194 136.157 156.965 135.663 156.611 135.317C156.257 134.971 155.806 134.801 155.359 134.846C155.137 134.868 154.923 134.942 154.728 135.064C154.534 135.185 154.362 135.352 154.224 135.555C154.086 135.758 153.984 135.992 153.924 136.245C153.863 136.498 153.846 136.764 153.872 137.028C153.925 137.562 154.154 138.057 154.509 138.403C154.863 138.749 155.313 138.919 155.761 138.874Z" fill="#070608"/>
<path d="M100.529 146.681C98.7392 146.12 97.2839 144.749 96.4831 142.869C95.6824 140.989 95.6018 138.755 96.2591 136.657C96.5846 135.618 97.0814 134.645 97.7212 133.791C98.3611 132.938 99.1314 132.222 99.9882 131.684C100.845 131.146 101.771 130.797 102.715 130.656C103.658 130.515 104.6 130.585 105.486 130.863C107.276 131.424 108.731 132.795 109.532 134.675C110.333 136.555 110.413 138.789 109.756 140.887C109.43 141.925 108.934 142.899 108.294 143.752C107.654 144.605 106.884 145.322 106.027 145.86C105.17 146.398 104.243 146.747 103.3 146.888C102.357 147.029 101.415 146.958 100.529 146.681ZM99.7995 138.564L101.895 138.548C102.091 138.546 102.279 138.466 102.416 138.327C102.554 138.188 102.631 138 102.631 137.804V137.132C102.629 136.668 102.583 136.208 102.495 135.779C102.408 135.351 102.281 134.962 102.122 134.635C101.963 134.308 101.775 134.049 101.569 133.874C101.362 133.698 101.142 133.609 100.919 133.612H100.711C100.265 133.617 99.8389 133.992 99.527 134.655C99.2151 135.318 99.0427 136.214 99.0475 137.148V137.82C99.0475 137.918 99.067 138.016 99.1049 138.106C99.1428 138.197 99.1983 138.28 99.2682 138.349C99.3382 138.418 99.4211 138.473 99.5123 138.51C99.6035 138.546 99.7011 138.565 99.7995 138.564Z" fill="#070608"/>
<path d="M60.9275 130.7C65.0769 133.782 68.1089 138.697 70.0235 145.444C71.7409 147.604 72.4182 150.294 72.0555 153.516C71.8395 155.428 72.2555 156.82 72.3675 158.692C68.1809 161.193 63.3382 161.721 57.8395 160.276C58.2075 160.436 58.1782 160.462 57.7515 160.356L58.1435 158.396C58.1969 158.129 58.1755 157.865 58.0795 157.604C57.7382 156.67 57.7329 155.724 58.0635 154.764C58.1077 154.637 58.1106 154.5 58.0719 154.37C58.0331 154.241 57.9547 154.127 57.8475 154.044C54.7862 151.67 52.8555 149.26 52.0555 146.812C49.3515 138.545 52.3089 133.174 60.9275 130.7ZM64.4075 143.06C60.4715 132.596 50.7755 141.492 58.1835 148.692C60.7649 151.204 63.8235 152.326 67.3595 152.06C67.4472 152.052 67.5318 152.023 67.6062 151.976C67.6806 151.929 67.7428 151.866 67.7874 151.791C67.832 151.715 67.8579 151.631 67.8628 151.544C67.8677 151.457 67.8515 151.371 67.8155 151.292C66.6049 148.614 65.4689 145.87 64.4075 143.06Z" fill="#FCB468"/>
<path d="M99.7996 138.564C99.7012 138.565 99.6036 138.546 99.5124 138.509C99.4212 138.473 99.3383 138.418 99.2683 138.349C99.1984 138.28 99.1429 138.197 99.105 138.106C99.0671 138.016 99.0476 137.918 99.0476 137.82V137.148C99.0428 136.214 99.2152 135.318 99.5271 134.655C99.839 133.992 100.265 133.617 100.712 133.612H100.92C101.142 133.609 101.362 133.698 101.569 133.874C101.775 134.049 101.963 134.308 102.122 134.635C102.281 134.962 102.408 135.351 102.496 135.779C102.583 136.208 102.629 136.667 102.632 137.132V137.804C102.632 138 102.554 138.188 102.417 138.327C102.279 138.466 102.092 138.546 101.896 138.548L99.7996 138.564ZM101.2 137.156L101.344 135.748C101.357 135.644 101.333 135.54 101.276 135.452C101.219 135.365 101.133 135.301 101.033 135.271C100.933 135.241 100.826 135.248 100.73 135.29C100.635 135.332 100.557 135.406 100.512 135.5C100.181 136.124 100.208 136.726 100.592 137.308C100.933 137.825 101.136 137.774 101.2 137.156Z" fill="#EBE1DA"/>
<path d="M155.761 138.874C155.313 138.918 154.863 138.749 154.508 138.403C154.154 138.057 153.925 137.562 153.872 137.028C153.846 136.764 153.863 136.498 153.924 136.245C153.984 135.992 154.086 135.757 154.224 135.555C154.362 135.352 154.533 135.185 154.728 135.064C154.923 134.942 155.137 134.868 155.359 134.846C155.806 134.801 156.257 134.97 156.611 135.317C156.965 135.663 157.194 136.157 157.247 136.691C157.274 136.956 157.256 137.222 157.196 137.475C157.135 137.728 157.033 137.962 156.895 138.165C156.757 138.367 156.586 138.534 156.391 138.656C156.197 138.778 155.982 138.852 155.761 138.874ZM156.032 137.732C156.144 137.193 156.018 136.7 155.656 136.252C155.341 135.862 155.096 135.902 154.92 136.372C154.68 137.017 154.818 137.553 155.336 137.98C155.704 138.284 155.936 138.201 156.032 137.732Z" fill="#EBE1DA"/>
<path d="M100.591 137.308C100.207 136.727 100.181 136.124 100.511 135.5C100.557 135.406 100.635 135.332 100.73 135.29C100.826 135.248 100.933 135.241 101.033 135.271C101.133 135.301 101.219 135.365 101.276 135.452C101.332 135.54 101.357 135.644 101.343 135.748L101.199 137.156C101.135 137.775 100.933 137.825 100.591 137.308Z" fill="#645A4F"/>
<path d="M155.335 137.98C154.818 137.553 154.68 137.017 154.92 136.372C155.096 135.902 155.341 135.862 155.656 136.252C156.018 136.7 156.144 137.193 156.032 137.732C155.936 138.201 155.703 138.284 155.335 137.98Z" fill="#523D38"/>
<path d="M187.104 150.996C188.312 148.228 193.552 132.332 199.432 137.772C201.568 139.74 201 143.724 199.592 145.828C197.392 149.124 191.224 150.852 187.416 151.412C187.064 151.46 186.96 151.321 187.104 150.996Z" fill="#E05E28"/>
<path d="M58.1836 148.692C50.7756 141.492 60.4716 132.596 64.4076 143.06C65.4689 145.87 66.6049 148.614 67.8156 151.292C67.8515 151.371 67.8677 151.457 67.8628 151.544C67.8579 151.631 67.8321 151.715 67.7874 151.791C67.7428 151.866 67.6807 151.929 67.6062 151.976C67.5318 152.023 67.4472 152.052 67.3596 152.06C63.8236 152.326 60.7649 151.204 58.1836 148.692Z" fill="#ED6735"/>
<path d="M124.071 144.012C123.135 142.1 126.671 142.876 127.223 143.212C132.271 146.268 127.567 151.74 123.295 151.108C122.997 151.06 122.789 150.9 122.671 150.628C122.213 149.545 122.301 148.612 122.935 147.828C123.127 147.598 123.373 147.473 123.671 147.452C124.781 147.361 125.815 147.062 126.775 146.556C127.074 146.401 127.133 146.182 126.951 145.9C126.258 144.796 125.298 144.166 124.071 144.012Z" fill="#FB9E50"/>
<path d="M124.072 144.012L125.384 144.98C125.588 145.128 125.737 145.339 125.809 145.58C125.881 145.822 125.871 146.081 125.781 146.316C125.69 146.551 125.525 146.75 125.31 146.882C125.095 147.013 124.842 147.07 124.592 147.044L123.056 146.892C122.733 146.863 122.441 146.725 122.225 146.498C122.008 146.27 121.878 145.967 121.856 145.634C121.833 145.301 121.918 144.956 122.099 144.653C122.28 144.35 122.545 144.105 122.856 143.956C123.122 143.828 123.528 143.846 124.072 144.012Z" fill="#FCE8A3"/>
<path d="M45.8397 146.772C47.9997 153.065 51.9703 157.593 57.7517 160.356C58.1783 160.462 58.2077 160.436 57.8397 160.276C59.0317 163.564 61.1677 165.892 63.1357 168.66C62.2077 171.054 61.1517 173.417 59.9677 175.748C58.9277 177.788 56.9357 179.108 55.7837 181.372C55.661 181.612 55.4903 181.806 55.2717 181.956C53.101 183.428 51.581 185.398 50.7117 187.868C50.6263 188.108 50.5997 188.356 50.6317 188.612C51.0957 192.212 45.8157 188.924 44.9277 188.164C44.6663 187.945 44.4317 187.972 44.2237 188.244C43.2797 189.513 41.973 189.886 40.3037 189.364C40.181 189.326 40.1117 189.372 40.0957 189.5L40.0557 189.788C40.0343 189.937 39.965 189.969 39.8477 189.884C39.7357 189.798 39.597 189.777 39.4317 189.82C33.1917 180.316 28.5143 170.041 25.3997 158.996C25.7143 158.91 25.9037 159.036 25.9677 159.372C25.9983 159.544 26.0818 159.702 26.2065 159.824C26.3312 159.946 26.4909 160.027 26.6634 160.054C26.8359 160.081 27.0126 160.054 27.1689 159.976C27.3252 159.898 27.4534 159.774 27.5357 159.62C30.5837 154.012 37.3197 150.852 43.7917 147.62C43.989 147.518 44.181 147.524 44.3677 147.636L44.6237 147.796C44.7997 147.897 44.893 147.846 44.9037 147.644C44.9463 146.945 45.2583 146.654 45.8397 146.772Z" fill="#56915F"/>
<path d="M176.728 157.676C176.541 159.905 175.424 161.692 173.376 163.036C167.224 164.364 157.536 165.244 153.04 160.068C152.816 157.652 154.114 155.753 156.936 154.372C164.808 151.705 171.405 152.806 176.728 157.676Z" fill="#F98759"/>
<path d="M94.0329 165.047C99.6352 164.822 104.072 162.038 103.943 158.828C103.814 155.619 99.1683 153.2 93.5661 153.425C87.9638 153.65 83.5267 156.434 83.6556 159.643C83.7846 162.853 88.4306 165.272 94.0329 165.047Z" fill="#F98759"/>
<path d="M143.208 163.548L141.064 167.596C133.981 164.833 127.394 165.3 121.304 168.996C120.434 169.524 120.146 170.308 120.44 171.348C117.837 169.342 116.16 166.838 115.408 163.836C115.354 163.606 115.442 163.508 115.672 163.54C126.04 164.884 137.456 161.516 144.664 154.324C144.861 154.132 144.954 154.172 144.944 154.444C144.842 157.425 144.264 160.46 143.208 163.548Z" fill="#60080C"/>
<path d="M128.064 173.404C133.408 173.569 137.741 171.633 141.064 167.596L143.208 163.548C145.192 163.142 146.858 162.174 148.208 160.644C148.4 160.425 148.642 160.308 148.936 160.292L153.04 160.068C157.536 165.244 167.224 164.364 173.376 163.036C168.661 169.756 162.621 174.868 155.256 178.372C149.304 181.204 144.373 182.948 140.464 183.604C135.77 184.398 132.312 185.236 130.088 186.116L121.536 186.212C102.328 185.796 83.9357 179.812 74.2477 162.26L75.5517 156.204C75.5982 155.994 75.7117 155.804 75.8751 155.663C76.0385 155.522 76.2428 155.438 76.4572 155.424C76.6715 155.409 76.8841 155.465 77.0629 155.583C77.2416 155.7 77.3767 155.873 77.4477 156.076C78.9597 160.316 83.9677 165.428 87.9837 166.06C88.165 166.086 88.2584 166.19 88.2637 166.372C88.2637 166.452 88.2637 166.529 88.2637 166.604C88.2637 166.657 88.285 166.702 88.3277 166.74C89.8744 167.94 91.581 168.665 93.4477 168.916C96.3677 169.308 98.5997 167.556 101.952 169.42C104.512 170.838 107.224 171.873 110.088 172.524C110.354 172.582 110.57 172.721 110.736 172.94C112.592 175.412 115.432 174.988 118.224 175.252C118.257 175.256 118.29 175.252 118.322 175.241C118.353 175.23 118.382 175.211 118.405 175.186C118.428 175.161 118.446 175.131 118.456 175.098C118.466 175.065 118.469 175.03 118.464 174.996C118.453 174.921 118.456 174.849 118.472 174.78C118.476 174.755 118.488 174.733 118.507 174.716C118.526 174.7 118.551 174.691 118.576 174.692L127.328 174.58C127.552 174.58 127.597 174.489 127.464 174.308L127.272 174.052C127.085 173.801 127.149 173.668 127.464 173.652C127.826 173.636 128.026 173.553 128.064 173.404Z" fill="#FCB468"/>
<path d="M72.3675 158.692L74.2475 162.26C83.9355 179.812 102.327 185.796 121.535 186.212L121.719 192.588C121.885 194.369 121.562 195.513 120.751 196.02C106.975 197.324 99.0235 204.052 95.3435 217.404C94.3888 214.993 93.2901 212.918 92.0475 211.18C82.0795 197.26 72.8955 182.676 63.1355 168.66C61.1675 165.892 59.0315 163.564 57.8395 160.276C63.3381 161.721 68.1808 161.193 72.3675 158.692Z" fill="#487A4B"/>
<path d="M141.063 167.596C137.741 171.633 133.407 173.569 128.063 173.404C125.119 173.35 122.578 172.665 120.44 171.348C120.146 170.308 120.434 169.524 121.304 168.996C127.394 165.3 133.981 164.833 141.063 167.596Z" fill="#CF3722"/>
<path d="M63.1356 168.66C72.8956 182.676 82.0796 197.26 92.0476 211.18C93.2903 212.919 94.389 214.993 95.3436 217.404C94.0316 221.329 92.9756 225.873 92.1756 231.036C70.1223 223.009 52.541 209.271 39.4316 189.82C39.597 189.777 39.7356 189.799 39.8476 189.884C39.965 189.969 40.0343 189.937 40.0556 189.788L40.0956 189.5C40.1116 189.372 40.181 189.327 40.3036 189.364C41.973 189.887 43.2796 189.513 44.2236 188.244C44.4316 187.972 44.6663 187.945 44.9276 188.164C45.8156 188.924 51.0956 192.212 50.6316 188.612C50.5996 188.356 50.6263 188.108 50.7116 187.868C51.581 185.399 53.101 183.428 55.2716 181.956C55.4903 181.807 55.661 181.612 55.7836 181.372C56.9356 179.108 58.9276 177.788 59.9676 175.748C61.1516 173.417 62.2076 171.055 63.1356 168.66Z" fill="#4B855D"/>
<path d="M130.088 186.116L133.496 186.564V192.684L121.72 192.588L121.536 186.212L130.088 186.116Z" fill="#ED6735"/>
<path d="M121.719 192.588L133.495 192.684C133.245 194.652 133.541 195.71 134.383 195.86C134.679 201.692 131.839 204.604 127.063 207.3C126.844 207.426 126.586 207.47 126.336 207.424C126.086 207.379 125.859 207.247 125.695 207.052C123.253 204.124 121.466 200.777 120.335 197.012C119.973 196.846 120.111 196.516 120.751 196.02C121.562 195.513 121.885 194.369 121.719 192.588Z" fill="#FB8A30"/>
<path d="M134.384 195.86C137.648 195.913 140.536 196.495 143.048 197.604C149.032 199.497 153.349 202.585 156 206.868C159.984 213.292 162.12 222.556 163.208 229.516C163.312 230.22 163.376 230.188 163.944 230.58L153.848 233.316C153.997 227.215 153.365 221.236 151.952 215.38C151.845 214.948 151.784 214.956 151.768 215.404L151.112 233.436C150.909 234.007 150.626 234.284 150.264 234.268C149.848 234.279 149.453 234.185 149.08 233.988C148.824 233.855 148.738 233.649 148.824 233.372C149.8 230.196 150.2 226.42 148.112 223.532C144.04 217.908 135.88 215.26 130.728 212.596C130.514 212.484 130.392 212.548 130.36 212.788L129.672 218.412C129.669 218.448 129.653 218.482 129.626 218.506C129.599 218.53 129.564 218.542 129.528 218.54C129.492 218.538 129.458 218.521 129.434 218.494C129.41 218.467 129.397 218.432 129.4 218.396C129.33 216.172 129.426 213.951 129.688 211.732C129.693 211.678 129.688 211.623 129.671 211.571C129.655 211.519 129.628 211.472 129.593 211.431C129.558 211.39 129.514 211.358 129.466 211.335C129.418 211.313 129.365 211.301 129.312 211.3L125.744 211.236C125.349 211.225 125.125 211.025 125.072 210.636L124.696 207.972C124.669 207.791 124.602 207.628 124.496 207.484C122.186 204.252 120.285 200.865 118.792 197.324C118.888 196.999 119.402 196.895 120.336 197.012C121.466 200.777 123.253 204.124 125.696 207.052C125.86 207.247 126.086 207.379 126.336 207.424C126.587 207.47 126.844 207.426 127.064 207.3C131.84 204.604 134.68 201.692 134.384 195.86Z" fill="#B79623"/>
<path d="M120.752 196.02C120.112 196.516 119.973 196.847 120.336 197.012C119.402 196.895 118.888 196.999 118.792 197.324C115.288 197.484 112.376 198.284 110.056 199.724C108.045 200.721 106.794 201.564 106.304 202.252C102.552 207.5 97.1835 216.244 96.7675 222.748C96.7515 223.015 96.6449 223.236 96.4475 223.412C95.0022 224.724 94.2182 226.329 94.0955 228.228C93.2582 229.263 93.3435 230.345 94.3515 231.476L92.1755 231.036C92.9755 225.873 94.0315 221.329 95.3435 217.404C99.0235 204.052 106.976 197.324 120.752 196.02Z" fill="#FED987"/>
<path d="M118.791 197.324C120.285 200.865 122.186 204.252 124.495 207.484C124.602 207.628 124.669 207.79 124.695 207.972L125.071 210.636C125.125 211.025 125.349 211.225 125.743 211.236L129.311 211.3C129.365 211.301 129.417 211.313 129.466 211.335C129.514 211.358 129.558 211.39 129.593 211.431C129.628 211.472 129.655 211.519 129.671 211.571C129.687 211.623 129.693 211.678 129.687 211.732C129.426 213.95 129.33 216.172 129.399 218.396C129.398 218.414 129.401 218.432 129.407 218.448C129.413 218.465 129.422 218.481 129.434 218.494C129.458 218.521 129.491 218.538 129.527 218.54C129.563 218.542 129.599 218.53 129.626 218.506C129.653 218.482 129.669 218.448 129.671 218.412L130.359 212.788C130.391 212.548 130.514 212.484 130.727 212.596C135.879 215.26 144.039 217.908 148.111 223.532C150.199 226.42 149.799 230.196 148.823 233.372C148.738 233.649 148.823 233.855 149.079 233.988C149.453 234.185 149.847 234.278 150.263 234.268C141.245 235.985 132.181 236.716 123.071 236.46V213.548C123.071 213.387 123.021 213.229 122.928 213.098C122.835 212.966 122.703 212.866 122.551 212.812C116.063 210.428 113.567 205.132 110.055 199.724C112.375 198.284 115.287 197.484 118.791 197.324Z" fill="#B7AC2E"/>
<path d="M143.048 197.604C158.8 200.428 162.272 216.292 164.568 229.604C164.6 229.796 164.552 229.964 164.424 230.108C164.333 230.209 164.29 230.334 164.296 230.484C164.152 230.201 164.034 230.233 163.944 230.58C163.376 230.188 163.312 230.22 163.208 229.516C162.12 222.556 159.984 213.292 156 206.868C153.349 202.585 149.032 199.497 143.048 197.604Z" fill="#FED987"/>
<path d="M110.056 199.724C113.568 205.132 116.064 210.428 122.552 212.812C122.704 212.866 122.835 212.966 122.928 213.098C123.021 213.229 123.071 213.387 123.072 213.548V236.46C121.832 236.396 103.112 234.996 102.544 233.228L103.48 215.868C103.49 215.59 103.552 215.326 103.664 215.076C103.952 214.425 103.85 213.833 103.36 213.3C103.269 213.204 103.156 213.131 103.03 213.09C102.905 213.049 102.771 213.04 102.642 213.064C102.513 213.088 102.392 213.144 102.291 213.227C102.19 213.31 102.112 213.418 102.064 213.54C100.202 218.276 99.5757 223.185 100.184 228.268C100.192 228.35 100.176 228.433 100.136 228.505C100.096 228.578 100.036 228.636 99.962 228.674C99.8884 228.711 99.8051 228.725 99.7233 228.714C99.6414 228.703 99.5649 228.667 99.5037 228.612L96.2477 225.508C96.1993 225.461 96.1384 225.43 96.0724 225.419C96.0065 225.407 95.9383 225.416 95.8763 225.443C95.8144 225.47 95.7613 225.515 95.7235 225.572C95.6857 225.629 95.6649 225.696 95.6637 225.764C95.6637 226.27 96.0664 226.977 96.8717 227.884C95.2877 227.67 94.3624 227.785 94.0957 228.228C94.2184 226.329 95.0024 224.724 96.4477 223.412C96.645 223.236 96.7517 223.014 96.7677 222.748C97.1837 216.244 102.552 207.5 106.304 202.252C106.794 201.564 108.045 200.721 110.056 199.724ZM106.848 207.3C107.594 205.918 108.514 204.686 109.608 203.604C109.885 203.332 109.861 203.086 109.536 202.868L109.216 202.652C109.092 202.571 108.942 202.538 108.795 202.561C108.648 202.583 108.513 202.658 108.416 202.772L104.024 207.916C103.784 208.198 103.81 208.454 104.104 208.684L105.504 209.788C105.733 209.964 105.76 210.166 105.584 210.396C103.952 212.524 105.384 215.46 106.544 217.884C109.064 223.124 113.912 216.188 114.4 213.508C114.448 213.257 114.344 213.116 114.088 213.084C112.274 212.854 110.562 212.292 108.952 211.396C108.722 211.268 108.477 211.204 108.216 211.204H107.296C107.159 211.205 107.026 211.162 106.916 211.081C106.806 211 106.725 210.885 106.684 210.754C106.644 210.622 106.647 210.481 106.692 210.35C106.737 210.22 106.823 210.107 106.936 210.028C108.157 209.18 109.178 208.118 110 206.844C110.037 206.786 110.054 206.718 110.049 206.649C110.044 206.58 110.017 206.515 109.972 206.463C109.927 206.411 109.867 206.375 109.8 206.36C109.733 206.345 109.662 206.352 109.6 206.38C108.986 206.662 108.41 207.017 107.872 207.444C107.69 207.588 107.485 207.644 107.256 207.612L106.984 207.572C106.808 207.55 106.762 207.46 106.848 207.3Z" fill="#C5BF44"/>
<path d="M106.984 207.572L107.256 207.612C107.485 207.644 107.69 207.588 107.872 207.444C108.41 207.017 108.986 206.663 109.6 206.38C109.662 206.352 109.733 206.345 109.8 206.36C109.867 206.375 109.927 206.411 109.972 206.463C110.017 206.515 110.044 206.58 110.049 206.649C110.054 206.718 110.037 206.786 110 206.844C109.178 208.119 108.157 209.18 106.936 210.028C106.823 210.107 106.737 210.22 106.692 210.35C106.647 210.481 106.644 210.622 106.684 210.754C106.725 210.885 106.806 211 106.916 211.081C107.026 211.162 107.159 211.205 107.296 211.204H108.216C108.477 211.204 108.722 211.268 108.952 211.396C110.562 212.292 112.274 212.855 114.088 213.084C114.344 213.116 114.448 213.257 114.4 213.508C113.912 216.188 109.064 223.124 106.544 217.884C105.384 215.46 103.952 212.524 105.584 210.396C105.76 210.167 105.733 209.964 105.504 209.788L104.104 208.684C103.81 208.455 103.784 208.199 104.024 207.916L108.416 202.772C108.513 202.658 108.648 202.583 108.795 202.561C108.942 202.538 109.092 202.571 109.216 202.652L109.536 202.868C109.861 203.087 109.885 203.332 109.608 203.604C108.514 204.687 107.594 205.919 106.848 207.3C106.762 207.46 106.808 207.551 106.984 207.572Z" fill="#B3AB69"/>
<path d="M102.544 233.228C101.525 233.532 100.853 233.481 100.528 233.076C99.7757 230.846 98.557 229.116 96.8717 227.884C96.0664 226.977 95.6637 226.27 95.6637 225.764C95.6649 225.696 95.6857 225.629 95.7235 225.572C95.7612 225.515 95.8144 225.47 95.8763 225.443C95.9383 225.416 96.0065 225.407 96.0724 225.419C96.1384 225.43 96.1993 225.461 96.2477 225.508L99.5037 228.612C99.5649 228.667 99.6414 228.703 99.7232 228.714C99.8051 228.725 99.8883 228.711 99.962 228.674C100.036 228.636 100.096 228.578 100.136 228.505C100.176 228.433 100.192 228.35 100.184 228.268C99.5757 223.185 100.202 218.276 102.064 213.54C102.112 213.418 102.19 213.31 102.291 213.227C102.392 213.144 102.513 213.088 102.642 213.064C102.771 213.04 102.905 213.049 103.03 213.09C103.156 213.131 103.269 213.204 103.36 213.3C103.85 213.833 103.952 214.425 103.664 215.076C103.552 215.326 103.49 215.59 103.48 215.868L102.544 233.228Z" fill="#B79623"/>
<path d="M153.848 233.316L151.112 233.436L151.768 215.404C151.784 214.956 151.845 214.948 151.952 215.38C153.365 221.236 153.997 227.214 153.848 233.316Z" fill="#60080C"/>
<path d="M96.8717 227.884C98.557 229.116 99.7757 230.847 100.528 233.076L94.3517 231.476C93.3437 230.345 93.2583 229.263 94.0957 228.228C94.3623 227.785 95.2877 227.671 96.8717 227.884Z" fill="#B7AC2E"/>
</svg>
